v 85353.110 446476.480 -0.914
v 85366.314 446481.921 -0.914
v 85364.644 446485.896 -0.914
v 85365.571 446486.280 -0.914
v 85368.232 446487.383 -0.914
v 85373.293 446489.483 -0.914
v 85425.306 446511.058 -0.914
v 85426.856 446507.285 -0.914
v 85426.952 446507.050 -0.914
v 85427.123 446507.120 -0.914
v 85430.989 446508.714 -0.914
v 85433.293 446503.154 -0.914
v 85433.696 446502.181 -0.914
v 85435.587 446497.617 -0.914
v 85436.479 446495.465 -0.914
v 85436.983 446494.248 -0.914
v 85437.943 446491.931 -0.914
v 85442.193 446481.672 -0.914
v 85447.897 446467.907 -0.914
v 85448.294 446466.947 -0.914
v 85451.039 446460.322 -0.914
v 85448.560 446459.293 -0.914
v 85447.053 446458.667 -0.914
v 85446.983 446458.638 -0.914
v 85447.079 446458.410 -0.914
v 85448.622 446454.703 -0.914
v 85397.503 446433.501 -0.914
v 85392.394 446431.382 -0.914
v 85387.980 446429.551 -0.914
v 85387.849 446429.873 -0.914
v 85386.345 446433.536 -0.914
v 85373.248 446427.913 -0.914
v 85346.047 446425.076 -0.914
v 85332.015 446458.913 -0.914
v 85332.548 446459.338 -0.914
v 85332.336 446459.855 -0.914
v 85387.659 446446.061 13.575
v 85387.659 446446.061 13.336
v 85387.569 446446.270 12.962
v 85387.569 446446.270 13.583
v 85382.360 446489.592 13.644
v 85382.360 446489.592 12.027
v 85383.375 446487.418 12.025
v 85383.375 446487.418 13.631
v 85390.037 446462.610 14.978
v 85390.037 446462.610 14.043
v 85389.964 446463.378 12.836
v 85389.964 446463.378 14.978
v 85369.116 446436.721 15.891
v 85369.116 446436.721 15.821
v 85367.696 446440.113 15.823
v 85367.696 446440.113 15.878
v 85346.047 446425.076 9.714
v 85373.248 446427.913 9.706
v 85374.719 446479.645 14.993
v 85374.719 446479.645 14.429
v 85375.041 446478.823 14.439
v 85375.041 446478.823 14.993
v 85375.041 446478.823 15.011
v 85377.953 446480.033 14.989
v 85387.849 446429.873 6.417
v 85387.980 446429.551 6.420
v 85444.595 446474.646 18.386
v 85444.595 446474.646 17.822
v 85423.502 446465.863 17.800
v 85423.502 446465.863 18.229
v 85411.109 446484.961 14.058
v 85411.109 446484.961 14.230
v 85411.109 446484.961 15.885
v 85410.539 446486.192 15.859
v 85410.492 446486.294 15.857
v 85410.492 446486.294 16.009
v 85410.492 446486.294 15.222
v 85410.217 446486.061 15.402
v 85410.217 446486.061 15.862
v 85363.693 446448.240 18.550
v 85363.693 446448.240 18.516
v 85360.231 446446.167 17.558
v 85360.231 446446.167 17.616
v 85426.952 446507.050 12.410
v 85426.856 446507.285 11.997
v 85375.663 446442.170 14.014
v 85375.663 446442.170 13.997
v 85373.726 446441.670 14.454
v 85378.929 446472.417 14.990
v 85378.929 446472.417 13.740
v 85379.717 446471.533 13.504
v 85379.952 446471.268 13.433
v 85379.952 446471.268 13.059
v 85372.237 446456.562 13.635
v 85372.237 446456.562 13.489
v 85372.284 446456.484 13.486
v 85372.489 446456.140 13.473
v 85372.489 446456.140 12.832
v 85413.398 446480.015 15.988
v 85413.398 446480.015 14.360
v 85413.543 446479.702 14.910
v 85413.543 446479.702 15.994
v 85410.419 446484.550 13.904
v 85410.419 446484.550 13.824
v 85410.637 446484.680 13.953
v 85391.721 446460.087 13.015
v 85391.721 446460.087 14.977
v 85392.309 446458.847 14.977
v 85392.312 446458.841 14.977
v 85392.312 446458.841 14.986
v 85373.854 446479.286 14.994
v 85420.925 446456.212 13.302
v 85420.925 446456.212 13.056
v 85420.989 446456.027 13.308
v 85374.372 446449.362 13.603
v 85374.372 446449.362 13.599
v 85364.429 446446.763 15.899
v 85364.429 446446.763 15.953
v 85361.251 446453.363 15.769
v 85361.251 446453.363 15.693
v 85360.788 446453.172 15.694
v 85377.692 446465.540 13.556
v 85377.692 446465.540 14.014
v 85377.838 446465.910 13.556
v 85426.813 446457.902 17.824
v 85426.813 446457.902 17.813
v 85426.813 446457.902 17.238
v 85446.661 446466.260 17.358
v 85446.661 446466.260 17.829
v 85447.897 446467.907 8.815
v 85442.193 446481.672 8.689
v 85442.193 446481.672 8.799
v 85431.809 446505.390 18.467
v 85431.809 446505.390 17.926
v 85411.753 446497.086 17.890
v 85411.753 446497.086 18.308
v 85384.224 446451.108 15.697
v 85384.224 446451.108 15.676
v 85384.224 446451.108 9.660
v 85384.464 446451.331 9.656
v 85384.464 446451.331 15.491
v 85384.464 446451.331 15.510
v 85384.783 446452.749 13.601
v 85384.783 446452.749 13.593
v 85384.783 446452.749 13.559
v 85384.834 446452.629 13.772
v 85385.128 446451.946 14.994
v 85385.128 446451.946 14.756
v 85368.794 446463.142 13.672
v 85368.794 446463.142 12.137
v 85372.338 446464.097 12.885
v 85372.933 446464.257 13.010
v 85372.933 446464.257 12.753
v 85416.075 446467.648 14.923
v 85416.075 446467.648 14.943
v 85400.622 446461.230 14.965
v 85384.514 446454.541 14.988
v 85384.514 446454.541 15.009
v 85386.345 446433.536 9.704
v 85387.849 446429.873 9.702
v 85388.080 446429.969 6.426
v 85388.080 446429.969 9.702
v 85384.473 446447.443 16.434
v 85384.473 446447.443 16.378
v 85383.830 446447.864 16.640
v 85383.830 446447.864 17.469
v 85384.146 446448.051 16.420
v 85384.146 446448.051 9.642
v 85383.830 446447.864 9.648
v 85394.811 446447.939 14.981
v 85394.811 446447.939 14.977
v 85394.811 446447.941 14.977
v 85394.473 446449.126 14.977
v 85394.473 446449.126 12.957
v 85447.622 446466.662 17.829
v 85447.622 446466.662 17.362
v 85447.622 446466.662 8.805
v 85448.294 446466.947 8.816
v 85448.294 446466.947 17.829
v 85360.168 446445.649 17.496
v 85360.168 446445.649 16.885
v 85360.225 446446.122 17.552
v 85412.396 446467.195 14.948
v 85412.396 446467.195 14.931
v 85399.654 446461.895 14.966
v 85365.633 446443.266 15.911
v 85365.633 446443.266 15.768
v 85353.555 446439.597 13.885
v 85349.713 446438.431 13.286
v 85349.713 446438.431 13.240
v 85372.695 446455.795 13.483
v 85372.695 446455.795 13.460
v 85364.030 446450.762 15.666
v 85413.832 446472.938 13.480
v 85413.832 446472.938 13.333
v 85414.221 446473.101 13.330
v 85414.221 446473.101 13.483
v 85413.717 446473.215 13.487
v 85413.717 446473.215 12.841
v 85395.658 446493.466 12.017
v 85395.658 446493.466 13.295
v 85395.783 446494.369 12.018
v 85407.648 446492.577 15.754
v 85407.648 446492.577 15.363
v 85408.014 446491.347 13.655
v 85408.014 446491.347 14.059
v 85408.014 446491.347 15.693
v 85396.519 446490.419 12.332
v 85396.519 446490.419 12.015
v 85391.795 446488.446 12.018
v 85391.795 446488.446 12.361
v 85396.519 446490.419 13.413
v 85396.810 446489.794 13.457
v 85396.005 446491.524 14.959
v 85396.005 446491.524 12.016
v 85396.519 446490.419 13.416
v 85387.999 446445.117 14.991
v 85387.999 446445.117 14.987
v 85365.571 446486.280 9.724
v 85365.571 446486.280 6.500
v 85364.644 446485.896 9.724
v 85373.293 446489.483 8.679
v 85368.232 446487.383 6.471
v 85441.728 446481.479 17.897
v 85441.728 446481.479 8.791
v 85441.728 446481.479 8.695
v 85441.535 446481.979 8.703
v 85441.535 446481.979 17.019
v 85392.394 446431.382 6.584
v 85385.128 446451.946 9.709
v 85385.361 446452.043 9.709
v 85385.361 446452.043 14.756
v 85385.344 446451.442 14.974
v 85385.344 446451.442 9.709
v 85385.199 446451.781 9.709
v 85385.199 446451.781 14.978
v 85357.196 446461.790 18.324
v 85357.196 446461.790 18.933
v 85357.087 446462.144 18.332
v 85360.168 446445.649 16.831
v 85360.021 446444.418 15.105
v 85360.021 446444.418 15.147
v 85360.021 446444.418 15.064
v 85364.429 446446.763 15.811
v 85357.307 446461.428 18.315
v 85384.304 446479.529 14.948
v 85384.304 446479.529 14.981
v 85407.229 446489.033 14.947
v 85423.147 446462.844 16.500
v 85423.147 446462.844 16.681
v 85423.469 446463.102 16.577
v 85423.517 446462.401 17.193
v 85423.517 446462.401 17.187
v 85423.147 446462.844 17.113
v 85371.623 446457.590 19.506
v 85371.623 446457.590 15.591
v 85370.479 446458.623 17.889
v 85370.479 446458.623 19.536
v 85366.506 446462.210 13.700
v 85366.506 446462.210 12.123
v 85366.237 446462.454 14.240
v 85366.237 446462.454 14.204
v 85366.256 446462.436 14.202
v 85366.506 446462.210 14.171
v 85395.609 446492.376 14.950
v 85395.609 446492.376 12.017
v 85409.205 446485.474 15.655
v 85381.952 446448.058 18.897
v 85381.952 446448.058 17.643
v 85382.164 446449.199 17.263
v 85382.164 446449.199 17.299
v 85377.953 446480.033 14.177
v 85378.119 446480.103 14.199
v 85378.119 446480.103 14.988
v 85368.502 446434.476 18.927
v 85368.502 446434.476 18.357
v 85369.458 446431.495 13.156
v 85369.458 446431.495 13.788
v 85382.078 446467.681 13.503
v 85382.078 446467.681 13.519
v 85382.139 446467.717 13.503
v 85376.472 446460.931 17.656
v 85376.472 446460.931 17.625
v 85377.174 446461.002 17.290
v 85381.384 446461.430 15.283
v 85381.384 446461.430 15.094
v 85423.627 446450.834 15.190
v 85423.627 446450.834 14.933
v 85423.176 446450.477 14.932
v 85384.158 446477.454 14.981
v 85384.158 446477.454 13.524
v 85384.277 446478.465 14.981
v 85438.801 446488.265 17.783
v 85438.801 446488.265 8.808
v 85438.392 446489.248 8.824
v 85438.392 446489.248 16.685
v 85438.801 446488.265 17.857
v 85417.860 446479.436 17.793
v 85417.860 446479.436 17.845
v 85384.591 446453.194 12.959
v 85384.591 446453.194 13.595
v 85384.780 446452.754 13.594
v 85375.863 446462.374 17.650
v 85375.863 446462.374 17.583
v 85375.880 446462.335 17.651
v 85376.177 446461.629 18.876
v 85376.177 446461.629 17.653
v 85385.511 446451.911 9.709
v 85385.511 446451.911 14.988
v 85385.511 446451.911 14.993
v 85376.541 446482.086 12.443
v 85376.541 446482.086 12.029
v 85376.541 446482.086 8.587
v 85374.447 446481.213 9.720
v 85374.447 446481.213 12.455
v 85431.809 446505.390 8.803
v 85427.123 446507.120 8.695
v 85427.123 446507.120 12.411
v 85437.757 446490.778 17.851
v 85437.757 446490.778 17.838
v 85437.757 446490.778 8.849
v 85437.377 446491.693 8.864
v 85437.377 446491.693 17.212
v 85437.377 446491.693 17.849
v 85363.592 446448.451 18.927
v 85363.592 446448.451 18.889
v 85363.592 446448.451 18.513
v 85371.921 446451.888 18.871
v 85371.921 446451.888 18.910
v 85367.700 446450.147 18.900
v 85392.040 446490.938 12.019
v 85392.040 446490.938 13.675
v 85372.749 446454.375 19.538
v 85372.749 446454.375 15.666
v 85371.373 446453.805 15.666
v 85371.373 446453.805 19.623
v 85371.921 446451.888 19.648
v 85427.971 446490.544 17.838
v 85427.971 446490.544 17.058
v 85436.983 446494.248 17.139
v 85436.983 446494.248 17.843
v 85390.464 446435.586 9.703
v 85390.464 446435.586 6.536
v 85392.926 446436.617 7.852
v 85392.926 446436.617 9.677
v 85392.926 446436.617 9.702
v 85437.379 446483.326 13.321
v 85437.379 446483.326 8.789
v 85439.386 446487.161 8.788
v 85439.386 446487.161 17.860
v 85439.386 446487.161 17.904
v 85437.379 446483.326 13.675
v 85437.127 446483.457 13.679
v 85391.285 446492.996 13.687
v 85391.285 446492.996 12.021
v 85376.464 446460.948 17.656
v 85425.309 446461.551 17.844
v 85425.309 446461.551 17.813
v 85446.330 446470.147 17.819
v 85446.330 446470.147 17.867
v 85408.234 446466.889 12.963
v 85408.234 446466.889 13.059
v 85410.650 446467.927 13.008
v 85408.167 446466.898 13.009
v 85420.867 446456.380 13.297
v 85373.424 446452.517 18.875
v 85373.424 446452.517 18.901
v 85373.424 446452.517 19.555
v 85416.598 446466.518 13.343
v 85416.598 446466.518 12.921
v 85416.716 446466.230 13.332
v 85425.047 446451.957 15.999
v 85425.047 446451.957 15.559
v 85424.630 446451.628 15.762
v 85423.627 446450.834 16.248
v 85384.513 446457.592 14.987
v 85384.513 446457.592 13.538
v 85386.185 446458.253 13.526
v 85386.185 446458.253 13.582
v 85386.185 446458.253 14.985
v 85362.548 446453.899 15.702
v 85362.548 446453.899 15.692
v 85361.251 446453.363 16.014
v 85386.852 446434.072 6.402
v 85386.852 446434.072 9.704
v 85356.834 446467.532 15.997
v 85356.834 446467.532 15.711
v 85356.083 446467.332 15.882
v 85356.884 446467.418 15.507
v 85356.884 446467.418 15.710
v 85357.365 446467.673 15.590
v 85356.884 446467.418 15.997
v 85341.516 446441.434 12.975
v 85341.516 446441.434 9.720
v 85346.878 446428.742 9.715
v 85346.878 446428.742 12.994
v 85374.852 446448.584 13.636
v 85374.852 446448.584 13.573
v 85371.541 446446.674 14.453
v 85365.633 446443.266 16.023
v 85389.726 446441.087 15.596
v 85389.726 446441.087 15.011
v 85388.826 446440.713 15.595
v 85390.071 446441.088 15.381
v 85390.071 446441.088 14.985
v 85390.071 446441.088 14.822
v 85394.759 446437.385 8.685
v 85394.759 446437.385 8.682
v 85394.672 446437.580 8.688
v 85393.420 446440.359 8.766
v 85393.420 446440.359 8.737
v 85446.983 446458.638 12.924
v 85446.983 446458.638 12.401
v 85447.053 446458.667 12.894
v 85447.079 446458.410 11.997
v 85448.560 446459.293 8.784
v 85451.039 446460.322 8.824
v 85409.780 446483.256 13.477
v 85409.780 446483.256 13.269
v 85409.732 446483.404 13.275
v 85409.681 446483.560 13.282
v 85409.681 446483.560 13.062
v 85374.544 446449.433 13.560
v 85374.544 446449.433 13.599
v 85374.387 446449.369 13.599
v 85379.126 446454.896 17.625
v 85379.126 446454.896 18.876
v 85379.560 446454.191 17.559
v 85384.637 446451.127 15.441
v 85384.637 446451.127 9.651
v 85384.568 446451.098 9.653
v 85384.568 446451.098 15.486
v 85375.570 446440.518 14.174
v 85375.570 446440.518 14.170
v 85375.589 446440.847 13.681
v 85375.589 446440.847 14.142
v 85394.562 446440.834 12.160
v 85394.562 446440.834 12.038
v 85413.603 446448.754 12.025
v 85413.603 446448.754 12.198
v 85381.567 446462.320 14.812
v 85381.567 446462.320 14.990
v 85381.567 446462.320 15.004
v 85381.504 446462.450 14.815
v 85381.376 446462.716 14.430
v 85381.376 446462.716 14.823
v 85382.642 446458.910 14.989
v 85382.642 446458.910 15.006
v 85448.560 446459.293 12.243
v 85449.523 446462.439 8.812
v 85449.523 446462.439 9.099
v 85448.739 446462.479 17.102
v 85448.739 446462.479 9.075
v 85449.277 446462.708 8.838
v 85449.277 446462.708 17.111
v 85449.277 446462.708 8.810
v 85421.426 446485.001 18.326
v 85421.426 446485.001 17.073
v 85417.470 446483.341 17.038
v 85417.470 446483.341 18.276
v 85393.156 446462.275 14.979
v 85393.156 446462.275 14.974
v 85393.143 446462.266 14.975
v 85391.306 446460.964 14.977
v 85391.306 446460.964 14.307
v 85389.305 446460.688 14.980
v 85389.305 446460.688 14.990
v 85389.311 446460.683 14.980
v 85390.040 446460.066 13.847
v 85390.040 446460.066 14.979
v 85390.040 446460.066 13.499
v 85391.272 446459.025 13.487
v 85391.272 446459.025 14.978
v 85380.433 446464.664 14.875
v 85380.433 446464.664 14.568
v 85380.340 446464.857 14.881
v 85380.304 446464.932 15.002
v 85380.304 446464.932 14.946
v 85380.304 446464.932 14.883
v 85390.682 446441.091 14.999
v 85390.682 446441.091 14.985
v 85388.174 446444.719 14.990
v 85388.174 446444.719 15.707
v 85387.066 446444.260 15.709
v 85388.385 446444.237 14.990
v 85388.385 446444.237 14.987
v 85388.174 446444.719 14.987
v 85391.710 446439.647 12.154
v 85391.710 446439.647 9.704
v 85391.710 446439.647 9.661
v 85393.420 446440.359 12.157
v 85447.897 446467.907 17.827
v 85447.555 446467.763 8.809
v 85447.555 446467.763 17.822
v 85447.555 446467.763 17.826
v 85448.275 446465.234 16.707
v 85448.275 446465.234 8.808
v 85350.633 446430.045 14.424
v 85350.633 446430.045 13.946
v 85351.017 446429.845 14.013
v 85351.992 446429.337 14.182
v 85351.992 446429.337 12.966
v 85449.038 446462.969 8.808
v 85449.038 446462.969 17.654
v 85448.937 446463.079 17.852
v 85448.937 446463.079 17.883
v 85448.951 446463.064 17.852
v 85449.038 446462.969 17.853
v 85449.163 446463.172 8.811
v 85449.163 446463.172 17.852
v 85443.812 446475.393 16.666
v 85443.812 446475.393 8.792
v 85442.793 446477.911 8.790
v 85442.793 446477.911 16.918
v 85442.793 446477.911 18.333
v 85425.215 446470.614 16.769
v 85425.215 446470.614 18.197
v 85414.914 446486.587 17.800
v 85414.914 446486.587 16.872
v 85413.962 446486.195 16.864
v 85413.962 446486.195 17.323
v 85412.290 446476.649 13.320
v 85412.290 446476.649 13.013
v 85412.381 446476.428 13.325
v 85412.983 446487.702 17.172
v 85412.983 446487.702 16.874
v 85414.050 446488.722 16.889
v 85414.050 446488.722 17.808
v 85411.778 446483.516 14.263
v 85411.778 446483.516 15.915
v 85411.869 446479.009 14.915
v 85411.869 446479.009 14.979
v 85411.869 446479.009 15.156
v 85412.277 446478.052 14.912
v 85412.277 446478.052 14.916
v 85412.277 446478.052 15.161
v 85413.983 446478.752 14.911
v 85413.983 446478.752 16.014
v 85414.145 446478.402 14.347
v 85414.145 446478.402 16.021
v 85437.943 446491.931 8.856
v 85437.943 446491.931 17.217
v 85410.135 446482.159 16.439
v 85410.135 446482.159 14.973
v 85397.884 446477.089 14.976
v 85397.884 446477.089 16.477
v 85439.209 446488.002 17.858
v 85439.209 446488.002 8.799
v 85438.953 446487.896 8.802
v 85438.953 446487.896 17.858
v 85439.471 446487.323 17.860
v 85439.471 446487.323 8.788
v 85421.148 446471.570 17.800
v 85421.148 446471.570 16.760
v 85423.127 446472.388 16.776
v 85423.127 446472.388 17.800
v 85384.746 446451.593 15.291
v 85384.746 446451.593 15.273
v 85385.199 446451.781 15.289
v 85383.025 446447.386 17.253
v 85383.025 446447.386 9.662
v 85382.693 446447.373 9.669
v 85382.693 446447.373 17.441
v 85385.936 446450.067 14.960
v 85385.936 446450.067 9.594
v 85385.504 446451.072 9.741
v 85385.504 446451.072 14.970
v 85386.502 446451.043 9.681
v 85386.502 446451.043 14.421
v 85413.234 446474.377 14.919
v 85413.234 446474.377 14.944
v 85393.397 446466.200 14.973
v 85389.837 446464.732 14.978
v 85389.837 446464.732 14.983
v 85370.445 446475.294 17.811
v 85370.445 446475.294 18.897
v 85371.339 446474.709 17.447
v 85412.210 446476.840 13.316
v 85410.826 446480.028 13.202
v 85410.826 446480.028 12.773
v 85410.908 446479.775 13.196
v 85373.010 446484.692 9.721
v 85373.010 446484.692 7.749
v 85370.090 446483.302 6.445
v 85370.090 446483.302 9.722
v 85425.306 446511.058 12.000
v 85373.293 446489.483 12.035
v 85374.984 446485.632 8.631
v 85374.984 446485.632 12.032
v 85412.927 446462.439 14.953
v 85412.927 446462.439 14.948
v 85387.386 446451.852 14.985
v 85387.386 446451.852 14.991
v 85423.685 446471.820 17.742
v 85423.685 446471.820 16.773
v 85442.420 446479.686 16.933
v 85442.420 446479.686 17.748
v 85396.616 446493.369 14.946
v 85396.616 446493.369 14.037
v 85396.616 446493.369 12.017
v 85402.348 446445.907 14.968
v 85402.348 446445.907 16.115
v 85401.353 446445.917 15.610
v 85394.823 446475.267 15.644
v 85394.759 446437.385 8.832
v 85394.622 446437.327 8.759
v 85397.503 446433.501 9.312
v 85368.143 446458.325 18.910
v 85368.143 446458.325 18.868
v 85362.920 446456.154 18.897
v 85360.417 446455.114 18.910
v 85360.417 446455.114 18.891
v 85360.417 446455.114 18.423
v 85360.454 446455.036 18.424
v 85360.454 446455.036 18.749
v 85439.879 446482.036 15.896
v 85439.879 446482.036 8.733
v 85438.294 446482.854 8.769
v 85438.294 446482.854 13.663
v 85427.682 446487.626 17.843
v 85427.682 446487.626 17.128
v 85424.523 446486.627 17.092
v 85424.523 446486.627 17.840
v 85442.420 446479.686 8.793
v 85443.062 446478.023 16.920
v 85443.062 446478.023 8.794
v 85445.420 446472.156 16.689
v 85445.420 446472.156 8.800
v 85444.595 446474.646 8.800
v 85432.665 446500.368 17.851
v 85432.665 446500.368 16.898
v 85433.958 446498.729 16.965
v 85433.958 446498.729 17.843
v 85349.235 446438.680 13.179
v 85349.235 446438.680 13.235
v 85355.451 446441.987 14.289
v 85433.293 446503.154 16.666
v 85433.293 446503.154 8.878
v 85432.649 446502.888 8.875
v 85432.649 446502.888 16.661
v 85433.696 446502.181 17.823
v 85435.587 446497.617 17.836
v 85435.587 446497.617 17.070
v 85433.696 446502.181 17.858
v 85390.145 446444.208 14.031
v 85390.145 446444.208 14.984
v 85388.392 446444.237 14.987
v 85389.783 446444.816 14.988
v 85389.783 446444.816 14.985
v 85389.784 446444.814 14.985
v 85390.885 446442.966 13.924
v 85390.885 446442.966 13.934
v 85390.894 446442.987 13.913
v 85390.911 446443.026 13.875
v 85390.911 446443.026 13.895
v 85413.602 446473.492 13.493
v 85413.602 446473.492 13.336
v 85384.446 446453.530 13.597
v 85384.446 446453.530 13.548
v 85374.544 446449.433 13.690
v 85419.103 446466.412 16.006
v 85419.103 446466.412 14.322
v 85419.303 446465.944 14.994
v 85419.303 446465.944 16.009
v 85398.130 446444.578 15.606
v 85398.130 446444.578 14.974
v 85398.258 446444.215 14.974
v 85398.533 446443.429 14.974
v 85398.533 446443.429 13.603
v 85378.740 446455.524 17.683
v 85406.559 446496.232 15.420
v 85406.559 446496.232 15.936
v 85405.907 446496.156 15.644
v 85422.596 446466.654 17.551
v 85422.596 446466.654 16.541
v 85421.492 446467.376 17.204
v 85420.323 446457.459 14.943
v 85420.323 446457.459 14.940
v 85370.901 446458.798 19.849
v 85370.901 446458.798 17.890
v 85370.589 446459.322 18.885
v 85368.919 446457.977 19.856
v 85368.919 446457.977 19.632
v 85370.479 446458.623 19.850
v 85370.184 446455.936 19.624
v 85370.184 446455.936 13.976
v 85370.184 446455.936 13.963
v 85370.209 446455.732 13.975
v 85370.209 446455.732 19.629
v 85372.237 446456.562 19.504
v 85387.079 446450.537 13.523
v 85387.079 446450.537 14.215
v 85388.150 446450.977 13.517
v 85388.192 446450.995 13.489
v 85388.192 446450.995 13.516
v 85367.615 446469.834 13.304
v 85367.615 446469.834 13.578
v 85366.162 446469.846 13.601
v 85365.739 446469.849 13.608
v 85365.739 446469.849 13.688
v 85416.496 446466.766 13.352
v 85386.849 446470.104 12.843
v 85386.849 446470.104 13.447
v 85386.998 446469.759 13.443
v 85430.989 446508.714 8.711
v 85409.702 446488.001 15.822
v 85409.702 446488.001 14.170
v 85410.871 446487.004 14.388
v 85410.871 446487.004 16.145
v 85412.547 446463.172 14.949
v 85412.547 446463.172 14.953
v 85358.243 446464.375 15.691
v 85358.243 446464.375 15.983
v 85357.564 446463.978 15.864
v 85387.366 446446.743 13.627
v 85387.366 446446.743 13.600
v 85387.374 446446.723 13.599
v 85339.306 446459.407 14.445
v 85339.306 446459.407 14.140
v 85339.399 446459.248 14.146
v 85339.730 446458.688 14.168
v 85339.730 446458.688 13.087
v 85339.730 446458.688 12.723
v 85340.251 446458.963 12.633
v 85340.251 446458.963 13.176
v 85382.195 446447.723 18.279
v 85382.195 446447.723 17.584
v 85381.952 446448.058 18.936
v 85345.955 446445.386 14.322
v 85345.955 446445.386 13.185
v 85345.780 446446.076 14.347
v 85388.324 446450.687 13.486
v 85388.324 446450.687 13.068
v 85388.200 446450.976 13.489
v 85423.573 446455.368 15.970
v 85423.573 446455.368 15.973
v 85423.573 446455.367 15.970
v 85423.982 446454.422 14.274
v 85423.982 446454.422 14.318
v 85423.982 446454.422 15.978
v 85448.701 446464.304 17.819
v 85448.701 446464.304 8.810
v 85408.834 446491.690 16.104
v 85408.834 446491.690 14.514
v 85408.690 446490.253 14.169
v 85408.690 446490.253 14.173
v 85408.690 446490.253 15.788
v 85378.924 446468.672 14.602
v 85378.924 446468.672 15.668
v 85379.685 446470.594 13.736
v 85445.808 446470.986 17.858
v 85445.808 446470.986 17.817
v 85425.002 446462.285 17.811
v 85425.002 446462.285 17.837
v 85416.888 446471.590 15.972
v 85416.888 446471.590 14.338
v 85417.650 446469.810 14.349
v 85417.650 446469.810 15.983
v 85418.115 446468.720 15.991
v 85418.115 446468.720 15.252
v 85418.329 446468.220 14.376
v 85418.329 446468.220 15.994
v 85369.769 446430.521 12.109
v 85369.769 446430.521 9.708
v 85407.821 446488.235 15.059
v 85407.821 446488.235 14.947
v 85409.308 446488.852 14.945
v 85409.308 446488.852 15.804
v 85407.826 446489.072 15.209
v 85407.826 446489.072 14.947
v 85366.963 446481.813 9.722
v 85366.963 446481.813 6.479
v 85375.041 446478.823 9.719
v 85375.123 446478.614 9.719
v 85375.123 446478.614 14.441
v 85375.123 446478.614 14.724
v 85373.209 446468.430 18.906
v 85373.209 446468.430 17.844
v 85372.963 446468.760 17.906
v 85372.963 446468.760 18.256
v 85379.894 446465.779 15.007
v 85379.894 446465.779 15.002
v 85379.894 446465.779 14.906
v 85377.518 446463.772 16.524
v 85394.562 446440.834 8.754
v 85419.716 446452.124 13.469
v 85419.716 446452.124 13.467
v 85419.899 446452.199 13.468
v 85422.350 446453.205 13.480
v 85422.350 446453.205 13.452
v 85383.041 446448.167 17.010
v 85383.041 446448.167 9.667
v 85383.173 446448.154 9.664
v 85383.173 446448.154 16.940
v 85383.303 446448.208 9.661
v 85383.303 446448.208 16.855
v 85421.984 446469.752 17.837
v 85421.984 446469.752 16.746
v 85421.040 446469.500 16.740
v 85421.040 446469.500 17.387
v 85421.984 446469.752 18.445
v 85422.336 446468.794 17.819
v 85446.828 446458.691 12.578
v 85446.828 446458.691 12.875
v 85446.790 446458.801 12.767
v 85446.683 446459.112 12.460
v 85446.683 446459.112 13.303
v 85428.321 446454.548 17.867
v 85428.321 446454.548 17.836
v 85427.995 446455.140 17.832
v 85424.594 446453.006 15.990
v 85424.594 446453.006 14.266
v 85424.594 446453.006 13.929
v 85345.020 446465.259 12.943
v 85345.020 446465.259 9.725
v 85337.783 446459.526 9.725
v 85337.783 446459.526 12.960
v 85345.056 446465.342 12.870
v 85345.056 446465.342 9.725
v 85346.062 446444.965 14.307
v 85346.062 446444.965 13.174
v 85351.992 446429.337 9.713
v 85340.237 446444.675 12.990
v 85340.237 446444.675 9.721
v 85341.696 446441.508 9.720
v 85341.696 446441.508 13.021
v 85339.800 446445.496 12.969
v 85339.800 446445.496 9.721
v 85340.161 446444.643 9.721
v 85340.161 446444.643 12.970
v 85339.850 446445.516 12.982
v 85339.850 446445.516 9.721
v 85346.231 446444.302 14.284
v 85339.144 446447.050 12.966
v 85339.144 446447.050 9.722
v 85332.336 446459.855 9.727
v 85332.548 446459.338 9.727
v 85335.287 446456.668 12.998
v 85335.287 446456.668 9.725
v 85337.610 446450.680 9.723
v 85337.610 446450.680 12.961
v 85395.775 446437.810 9.375
v 85395.775 446437.810 8.672
v 85395.775 446437.810 12.033
v 85391.981 446444.177 13.031
v 85391.981 446444.177 13.036
v 85394.388 446445.180 13.035
v 85397.503 446433.501 12.026
v 85414.268 446449.834 13.422
v 85414.268 446449.834 13.439
v 85419.111 446451.869 13.464
v 85448.622 446454.703 11.991
v 85412.885 446486.434 16.862
v 85412.885 446486.434 16.905
v 85359.603 446460.657 15.977
v 85359.603 446460.657 15.698
v 85357.909 446459.954 15.700
v 85374.852 446448.584 13.687
v 85377.046 446466.505 13.570
v 85377.046 446466.505 13.567
v 85374.630 446465.522 13.600
v 85382.954 446482.090 14.825
v 85382.954 446482.090 14.981
v 85386.220 446459.416 14.985
v 85386.220 446459.416 14.998
v 85401.954 446441.313 13.642
v 85401.954 446441.313 12.030
v 85402.831 446439.334 12.026
v 85402.831 446439.334 13.640
v 85423.380 446466.142 17.446
v 85423.380 446466.142 17.798
v 85444.283 446475.587 8.800
v 85444.283 446475.587 16.669
v 85383.646 446480.777 14.567
v 85383.646 446480.777 13.032
v 85383.646 446480.777 13.004
v 85383.017 446481.970 14.801
v 85384.304 446479.529 14.322
v 85383.981 446479.369 14.274
v 85383.981 446479.369 14.981
v 85385.965 446481.747 13.021
v 85384.113 446479.891 14.393
v 85378.650 446468.081 14.946
v 85378.650 446468.081 14.890
v 85373.637 446467.856 17.738
v 85373.637 446467.856 17.765
v 85353.110 446476.480 9.725
v 85332.015 446458.913 9.727
v 85340.893 446458.816 13.254
v 85397.975 446445.022 15.001
v 85397.975 446445.022 14.974
v 85343.113 446452.146 14.315
v 85343.113 446452.146 13.191
v 85343.529 446453.185 14.503
v 85396.820 446443.625 14.976
v 85396.820 446443.625 14.982
v 85396.830 446443.625 14.976
v 85397.651 446443.588 14.402
v 85397.651 446443.588 14.975
v 85398.087 446443.246 13.606
v 85398.087 446443.246 14.974
v 85357.900 446456.364 15.526
v 85357.900 446456.364 15.493
v 85357.652 446454.716 17.774
v 85357.652 446454.716 17.813
v 85360.290 446455.380 18.439
v 85360.290 446455.380 18.419
v 85362.744 446450.230 15.667
v 85362.744 446450.230 15.787
v 85362.005 446449.923 15.667
v 85362.744 446450.230 15.975
v 85360.293 446454.714 18.359
v 85364.029 446450.762 15.666
v 85390.069 446457.908 14.992
v 85390.069 446457.908 14.980
v 85390.074 446457.919 14.980
v 85390.433 446458.764 14.979
v 85390.433 446458.764 14.059
v 85386.441 446457.523 13.522
v 85386.441 446457.523 13.516
v 85386.486 446457.537 13.522
v 85390.433 446458.764 13.493
v 85363.492 446448.661 18.510
v 85381.400 446468.205 13.516
v 85381.400 446468.205 13.399
v 85381.187 446468.195 13.519
v 85396.786 446448.757 14.974
v 85396.786 446448.757 14.978
v 85396.779 446448.756 14.974
v 85396.528 446448.729 14.857
v 85396.528 446448.729 14.974
v 85414.480 446473.851 13.500
v 85414.480 446473.851 13.329
v 85414.540 446473.990 13.503
v 85414.295 446473.031 13.481
v 85446.330 446470.147 8.803
v 85445.883 446471.017 8.801
v 85445.883 446471.017 17.858
v 85445.808 446470.986 8.800
v 85446.921 446468.997 16.627
v 85446.921 446468.997 8.806
v 85389.838 446464.730 14.978
v 85414.635 446471.129 14.921
v 85414.635 446471.129 14.943
v 85396.876 446463.809 14.969
v 85383.427 446448.127 9.658
v 85383.427 446448.127 16.804
v 85385.916 446451.557 14.987
v 85385.916 446451.557 14.629
v 85385.916 446451.557 9.708
v 85385.916 446451.557 9.627
v 85387.171 446451.809 9.602
v 85387.171 446451.809 14.986
v 85339.034 446459.241 14.659
v 85339.034 446459.241 14.065
v 85339.306 446459.407 14.725
v 85338.521 446459.358 13.962
v 85337.783 446459.526 13.814
v 85386.712 446470.421 13.411
v 85386.712 446470.421 13.450
v 85383.335 446477.115 14.983
v 85383.335 446477.115 13.527
v 85384.069 446476.697 13.504
v 85384.069 446476.697 14.982
v 85361.114 446457.583 16.010
v 85361.114 446457.583 15.682
v 85361.114 446457.583 15.660
v 85359.603 446460.657 15.697
v 85359.672 446460.685 15.680
v 85359.672 446460.685 15.698
v 85395.932 446452.251 14.978
v 85395.932 446452.251 14.974
v 85396.109 446451.912 14.974
v 85396.109 446451.912 15.473
v 85360.317 446457.116 15.872
v 85360.317 446457.116 15.888
v 85360.352 446457.137 15.878
v 85436.479 446495.465 17.054
v 85436.479 446495.465 17.840
v 85353.806 446428.393 9.712
v 85353.806 446428.393 11.021
v 85373.267 446480.710 9.720
v 85373.267 446480.710 12.477
v 85384.909 446456.864 13.533
v 85384.909 446456.864 13.548
v 85385.972 446457.321 13.526
v 85385.398 446455.965 14.987
v 85385.398 446455.965 15.005
v 85385.392 446455.976 14.987
v 85384.909 446456.864 14.987
v 85406.743 446490.522 13.297
v 85406.743 446490.522 13.282
v 85406.743 446490.522 12.816
v 85407.105 446490.214 13.394
v 85407.105 446490.214 13.409
v 85407.276 446491.037 13.649
v 85407.276 446491.037 13.648
v 85377.078 446471.654 14.993
v 85377.078 446471.654 14.947
v 85369.907 446475.645 18.030
v 85416.775 446462.116 12.574
v 85416.775 446462.116 13.511
v 85417.566 446462.829 13.049
v 85409.575 446483.890 13.521
v 85409.575 446483.890 13.296
v 85344.379 446462.504 15.942
v 85383.568 446440.713 18.912
v 85383.568 446440.713 18.481
v 85383.488 446440.975 18.461
v 85423.262 446451.513 14.944
v 85423.262 446451.513 15.153
v 85422.801 446451.474 14.948
v 85417.061 446468.439 15.488
v 85417.061 446468.439 14.941
v 85416.109 446467.675 14.943
v 85372.984 446480.592 9.720
v 85372.984 446480.592 12.479
v 85394.090 446450.470 14.977
v 85394.090 446450.470 14.750
v 85406.684 446492.418 15.658
v 85406.684 446492.418 14.947
v 85406.805 446492.201 14.947
v 85406.805 446492.201 15.327
v 85406.156 446491.627 14.948
v 85406.407 446490.196 13.051
v 85422.350 446453.205 13.491
v 85422.708 446452.541 13.476
v 85422.708 446452.541 13.493
v 85410.972 446445.566 13.677
v 85410.972 446445.566 12.024
v 85421.713 446453.902 16.197
v 85421.713 446453.902 14.916
v 85422.980 446454.901 15.636
v 85423.573 446455.368 15.373
v 85415.363 446485.300 17.764
v 85415.363 446485.300 16.947
v 85415.455 446485.399 16.946
v 85415.455 446485.399 17.821
v 85416.361 446483.128 17.806
v 85416.361 446483.128 17.022
v 85383.976 446464.969 13.040
v 85383.976 446464.969 13.007
v 85418.101 446468.755 15.990
v 85418.115 446468.720 16.044
v 85417.061 446468.439 15.839
v 85388.460 446450.370 13.516
v 85388.460 446450.370 13.483
v 85387.146 446448.930 14.546
v 85387.146 446448.930 14.591
v 85422.108 446457.465 15.712
v 85422.108 446457.465 14.015
v 85422.514 446457.819 14.250
v 85422.514 446457.819 15.949
v 85387.021 446447.544 14.992
v 85387.021 446447.544 14.987
v 85387.021 446447.544 14.934
v 85387.146 446448.930 14.987
v 85386.656 446448.393 14.942
v 85386.656 446448.393 14.988
v 85387.719 446448.835 14.986
v 85387.719 446448.835 14.991
v 85387.713 446448.836 14.986
v 85365.557 446469.850 13.725
v 85388.450 446450.394 13.483
v 85419.954 446458.355 14.941
v 85419.954 446458.355 14.943
v 85419.260 446461.476 15.516
v 85419.260 446461.476 15.438
v 85420.180 446461.492 15.003
v 85420.180 446461.492 15.597
v 85420.180 446461.492 15.954
v 85414.518 446475.386 15.647
v 85414.518 446475.386 14.942
v 85413.278 446474.412 14.944
v 85412.479 446467.217 14.948
v 85384.158 446477.454 12.131
v 85405.101 446486.102 12.152
v 85405.101 446486.102 13.428
v 85406.577 446492.610 15.302
v 85406.577 446492.610 14.947
v 85412.850 446475.301 14.918
v 85412.850 446475.301 14.944
v 85412.909 446475.304 14.944
v 85378.700 446468.102 14.946
v 85378.700 446468.102 14.858
v 85418.104 446462.855 13.285
v 85418.104 446462.855 12.805
v 85419.036 446461.416 15.477
v 85417.966 446463.190 13.290
v 85387.366 446446.743 13.570
v 85377.061 446442.531 13.667
v 85377.061 446442.531 13.695
v 85387.021 446447.544 14.753
v 85387.299 446446.898 13.846
v 85412.670 446492.082 17.825
v 85412.670 446492.082 17.814
v 85412.670 446492.082 16.721
v 85376.732 446472.484 14.993
v 85376.732 446472.484 14.950
v 85372.910 446468.967 17.911
v 85372.910 446468.967 17.888
v 85405.788 446492.518 14.948
v 85423.812 446452.683 13.920
v 85348.445 446438.260 14.218
v 85348.445 446438.260 13.038
v 85348.370 446439.069 14.276
v 85348.445 446438.260 12.702
v 85349.235 446438.680 12.561
v 85357.691 446430.001 9.712
v 85357.691 446430.001 12.960
v 85369.035 446431.321 9.708
v 85369.035 446431.321 12.947
v 85369.458 446431.495 9.708
v 85383.641 446440.472 18.499
v 85414.160 446476.714 13.866
v 85414.160 446476.714 14.100
v 85413.667 446476.510 13.867
v 85414.709 446449.214 13.435
v 85414.709 446449.214 13.424
v 85418.033 446450.597 13.452
v 85406.821 446495.352 14.263
v 85406.821 446495.352 15.892
v 85414.395 446447.908 14.967
v 85414.395 446447.908 12.023
v 85415.101 446447.154 12.021
v 85415.101 446447.154 14.953
v 85415.498 446471.898 15.951
v 85415.498 446471.898 15.428
v 85415.896 446472.253 15.663
v 85414.249 446472.061 14.920
v 85414.249 446472.061 14.944
v 85414.301 446472.068 14.944
v 85415.206 446472.173 14.942
v 85415.206 446472.173 15.352
v 85415.498 446471.898 14.942
v 85416.571 446472.332 15.967
v 85416.571 446472.332 15.415
v 85345.189 446465.393 12.943
v 85345.189 446465.393 9.725
v 85414.673 446471.163 14.943
v 85412.588 446481.764 15.951
v 85412.588 446481.764 14.294
v 85381.902 446461.628 15.258
v 85381.902 446461.628 14.989
v 85381.902 446461.628 14.793
v 85436.816 446482.249 8.790
v 85436.816 446482.249 13.652
v 85420.993 446458.785 15.466
v 85420.993 446458.785 14.942
v 85420.993 446458.785 13.850
v 85420.503 446459.364 13.750
v 85419.492 446459.478 12.940
v 85419.492 446459.478 13.404
v 85419.357 446459.807 13.398
v 85410.211 446486.901 15.845
v 85410.211 446486.901 14.132
v 85412.699 446486.892 16.865
v 85412.699 446486.892 16.907
v 85386.159 446451.343 14.543
v 85386.159 446451.343 9.620
v 85368.035 446469.831 13.571
v 85423.265 446456.081 14.372
v 85423.265 446456.081 15.964
v 85427.102 446459.102 17.807
v 85427.102 446459.102 17.821
v 85426.329 446457.698 17.569
v 85426.329 446457.698 17.235
v 85410.585 446482.014 15.937
v 85410.585 446482.014 15.370
v 85410.515 446482.178 15.138
v 85410.515 446482.178 16.229
v 85412.294 446481.527 15.783
v 85412.294 446481.527 14.121
v 85411.778 446483.516 14.157
v 85412.041 446482.947 14.972
v 85412.041 446482.947 15.927
v 85411.582 446482.207 15.599
v 85411.582 446482.207 15.634
v 85411.524 446482.195 15.619
v 85423.376 446485.007 17.842
v 85423.376 446485.007 17.826
v 85417.243 446483.298 17.035
v 85417.243 446483.298 18.213
v 85417.243 446483.298 18.307
v 85417.298 446483.178 18.215
v 85372.933 446464.257 13.618
v 85375.645 446464.988 13.583
v 85342.940 446451.713 14.237
v 85342.940 446451.713 13.142
v 85385.712 446475.760 15.652
v 85385.712 446475.760 14.980
v 85386.269 446475.443 14.979
v 85389.120 446459.414 13.513
v 85389.120 446459.414 13.505
v 85427.564 446489.699 17.839
v 85427.564 446489.699 17.072
v 85365.932 446454.802 14.932
v 85448.701 446464.304 17.844
v 85427.778 446455.585 17.806
v 85427.778 446455.585 17.817
v 85427.778 446455.585 17.828
v 85449.210 446463.192 8.811
v 85449.210 446463.192 17.852
v 85376.167 446476.121 14.992
v 85376.167 446476.121 14.430
v 85375.670 446475.032 14.957
v 85375.670 446475.032 14.993
v 85375.720 446474.914 14.957
v 85375.720 446474.914 14.993
v 85376.644 446477.166 13.925
v 85410.918 446496.740 17.889
v 85410.918 446496.740 18.301
v 85411.572 446496.816 18.182
v 85411.070 446496.070 17.836
v 85409.629 446483.723 13.289
v 85391.299 446442.272 14.983
v 85391.299 446442.272 14.966
v 85391.299 446442.272 13.863
v 85390.425 446441.905 14.431
v 85390.425 446441.905 14.985
v 85412.606 446489.783 17.379
v 85412.606 446489.783 16.778
v 85411.108 446490.206 16.738
v 85411.108 446490.206 16.813
v 85405.669 446494.231 13.500
v 85386.944 446445.768 13.582
v 85386.944 446445.768 13.333
v 85386.885 446445.583 13.578
v 85388.581 446464.187 14.980
v 85388.581 446464.187 14.944
v 85389.504 446463.187 12.836
v 85389.504 446463.187 14.979
v 85423.762 446465.266 17.807
v 85414.914 446486.587 17.827
v 85348.531 446437.340 14.152
v 85368.919 446457.977 17.889
v 85369.985 446457.499 16.486
v 85369.985 446457.499 19.591
v 85368.159 446458.318 18.889
v 85372.688 446455.807 13.461
v 85396.198 446451.949 14.974
v 85396.198 446451.949 15.473
v 85396.405 446449.926 14.974
v 85396.405 446449.926 12.956
v 85396.239 446451.548 14.974
v 85391.837 446444.022 13.149
v 85391.837 446444.022 13.148
v 85391.781 446443.961 13.193
v 85391.837 446444.022 12.911
v 85391.701 446444.182 13.184
v 85419.600 446459.216 13.408
v 85421.698 446459.077 15.821
v 85421.698 446459.077 14.140
v 85421.649 446458.008 14.941
v 85421.649 446458.008 15.611
v 85422.636 446463.478 17.005
v 85404.845 446496.032 15.167
v 85404.845 446496.032 14.954
v 85405.036 446495.797 14.957
v 85405.036 446495.797 15.640
v 85405.238 446495.547 15.250
v 85405.238 446495.547 14.960
v 85404.749 446495.101 14.962
v 85407.474 446492.792 15.717
v 85407.474 446492.792 15.587
v 85407.373 446492.703 15.659
v 85407.561 446492.869 15.768
v 85407.561 446492.869 15.525
v 85356.913 446469.914 19.274
v 85356.913 446469.914 18.574
v 85354.631 446472.782 12.816
v 85354.631 446472.782 13.042
v 85354.631 446472.782 9.724
v 85354.394 446472.685 9.724
v 85354.394 446472.685 12.922
v 85355.238 446473.032 12.818
v 85355.238 446473.032 9.724
v 85356.960 446469.854 18.693
v 85356.960 446469.854 19.154
v 85361.234 446471.474 18.915
v 85434.014 446498.595 17.842
v 85434.014 446498.595 16.970
v 85432.308 446497.580 16.963
v 85432.308 446497.580 17.838
v 85382.264 446447.627 18.091
v 85382.264 446447.627 9.680
v 85382.195 446447.723 9.682
v 85394.847 446443.712 15.009
v 85394.847 446443.712 14.978
v 85342.629 446450.937 14.097
v 85414.709 446449.214 12.201
v 85413.603 446448.754 13.414
v 85415.795 446446.413 13.402
v 85415.795 446446.413 12.020
v 85417.058 446446.018 12.018
v 85378.349 446467.038 13.554
v 85411.106 446443.748 13.674
v 85411.106 446443.748 12.022
v 85411.388 446443.373 13.674
v 85411.388 446443.373 12.021
v 85366.231 446441.528 18.924
v 85366.231 446441.528 18.460
v 85366.325 446441.256 18.456
v 85414.862 446475.656 15.842
v 85414.862 446475.656 15.492
v 85414.160 446476.714 15.729
v 85414.803 446476.980 16.051
v 85414.803 446476.980 14.405
v 85411.749 446482.338 15.694
v 85411.749 446482.338 15.559
v 85411.616 446482.234 15.619
v 85411.492 446482.720 15.652
v 85411.492 446482.720 14.972
v 85411.107 446483.429 13.929
v 85410.744 446480.281 13.209
v 85375.589 446440.847 13.679
v 85379.152 446442.342 13.647
v 85418.493 446478.509 17.899
v 85418.493 446478.509 17.848
v 85418.179 446478.969 17.846
v 85335.187 446457.469 13.049
v 85335.187 446457.469 9.726
v 85335.667 446456.764 9.725
v 85335.667 446456.764 13.091
v 85340.194 446457.901 14.198
v 85384.166 446464.985 13.082
v 85384.166 446464.985 12.923
v 85375.182 446440.290 14.273
v 85375.663 446442.170 13.714
v 85376.931 446442.498 13.697
v 85415.588 446479.945 16.912
v 85415.588 446479.945 16.570
v 85415.499 446480.546 16.980
v 85416.768 446479.594 17.206
v 85416.768 446479.594 17.354
v 85417.249 446479.451 17.534
v 85417.854 446464.653 15.157
v 85417.854 446464.653 15.837
v 85415.828 446464.087 15.499
v 85413.050 446463.312 15.037
v 85413.050 446463.312 15.969
v 85415.455 446485.399 17.830
v 85418.190 446486.523 16.971
v 85418.190 446486.523 17.832
v 85418.543 446486.419 17.833
v 85418.543 446486.419 16.980
v 85422.131 446485.371 17.077
v 85422.131 446485.371 17.840
v 85422.131 446485.371 18.383
v 85378.150 446466.041 13.552
v 85423.341 446485.017 17.842
v 85356.463 446474.323 11.631
v 85356.463 446474.323 9.723
v 85355.116 446473.257 9.724
v 85355.116 446473.257 12.402
v 85357.248 446474.042 12.547
v 85357.248 446474.042 9.723
v 85413.607 446489.822 16.797
v 85413.607 446489.822 17.814
v 85386.220 446459.405 14.985
v 85366.140 446441.793 18.464
v 85408.412 446487.469 13.604
v 85408.412 446487.469 13.412
v 85408.325 446486.606 12.159
v 85408.325 446486.606 13.402
v 85379.460 446477.490 13.684
v 85379.460 446477.490 14.988
v 85407.827 446489.281 15.247
v 85407.827 446489.281 14.946
v 85408.626 446489.613 15.647
v 85408.626 446489.613 14.945
v 85407.860 446495.144 16.299
v 85407.860 446495.144 14.716
v 85407.852 446493.710 14.436
v 85407.852 446493.710 16.042
v 85407.324 446493.664 14.177
v 85407.324 446493.664 15.808
v 85406.991 446494.782 15.864
v 85406.991 446494.782 14.234
v 85367.492 446461.320 14.050
v 85367.492 446461.320 14.041
v 85365.697 446460.268 14.503
v 85386.954 446450.646 13.722
v 85386.954 446450.646 14.259
v 85386.954 446450.646 9.606
v 85386.922 446450.473 9.587
v 85386.922 446450.473 14.317
v 85386.502 446451.043 14.445
v 85387.171 446451.809 15.048
v 85387.162 446451.759 9.601
v 85387.162 446451.759 14.991
v 85386.159 446451.343 14.992
v 85384.045 446476.500 14.982
v 85384.045 446476.500 13.499
v 85383.923 446475.465 14.982
v 85385.258 446476.019 14.980
v 85384.069 446476.697 13.217
v 85382.361 446477.670 14.984
v 85411.910 446491.437 17.374
v 85411.910 446491.437 16.722
v 85419.102 446464.690 15.700
v 85419.102 446464.690 14.562
v 85419.102 446464.690 14.063
v 85419.852 446464.659 14.379
v 85419.852 446464.659 16.018
v 85418.973 446464.098 13.895
v 85417.950 446464.738 15.213
v 85417.950 446464.738 15.781
v 85418.435 446465.171 15.499
v 85412.219 446493.155 17.811
v 85412.219 446493.155 17.830
v 85410.746 446493.834 17.301
v 85410.746 446493.834 16.496
v 85410.556 446495.305 17.481
v 85416.768 446479.594 16.038
v 85416.847 446480.358 16.511
v 85406.734 446486.357 12.785
v 85409.702 446488.001 13.405
v 85408.373 446490.245 14.017
v 85397.794 446493.249 14.951
v 85414.412 446461.519 13.051
v 85413.050 446463.312 14.948
v 85404.366 446495.977 14.953
v 85358.742 446445.276 17.146
v 85404.127 446473.281 13.011
v 85420.388 446469.787 17.157
v 85420.388 446469.787 16.739
v 85420.002 446470.577 16.745
v 85420.002 446470.577 17.131
v 85410.817 446493.288 17.079
v 85410.817 446493.288 17.235
v 85411.301 446493.156 17.418
v 85377.074 446478.108 13.157
v 85377.074 446478.108 13.469
v 85377.074 446478.108 13.724
v 85377.435 446478.899 13.910
v 85374.738 446478.713 14.632
v 85374.738 446478.713 9.719
v 85376.052 446478.373 13.978
v 85377.450 446478.011 13.717
v 85377.450 446478.011 13.281
v 85377.954 446477.880 13.709
v 85425.513 446456.215 16.954
v 85425.513 446456.215 16.789
v 85426.070 446456.039 17.163
v 85426.070 446456.039 16.634
v 85427.534 446455.578 17.711
v 85421.420 446461.514 16.134
v 85421.420 446461.514 14.416
v 85421.420 446461.514 14.358
v 85423.814 446459.652 16.833
v 85423.814 446459.652 16.710
v 85424.139 446460.207 17.072
v 85424.155 446459.522 16.957
v 85424.155 446459.522 16.479
v 85426.782 446458.522 18.161
v 85426.782 446458.522 17.910
v 85426.782 446458.522 17.822
v 85427.089 446459.079 17.821
v 85425.878 446458.866 17.582
v 85426.650 446458.282 17.810
v 85426.650 446458.282 17.823
v 85426.667 446458.311 17.822
v 85420.336 446463.529 16.025
v 85420.336 446463.529 14.372
v 85420.292 446462.962 14.245
v 85420.292 446462.962 15.906
v 85421.310 446461.372 14.300
v 85420.199 446461.753 15.651
v 85395.944 446464.445 14.970
v 85351.095 446431.400 14.173
v 85351.095 446431.400 13.128
v 85350.342 446431.688 14.033
v 85349.569 446430.599 13.761
v 85349.569 446430.599 12.909
v 85351.095 446431.400 12.649
v 85350.251 446430.244 13.880
v 85351.531 446431.233 13.179
v 85366.314 446481.921 9.722
v 85368.450 446434.640 18.643
v 85392.462 446466.841 14.974
v 85387.795 446463.886 14.981
v 85394.741 446443.717 14.978
v 85394.741 446443.717 14.951
v 85375.664 446474.891 14.993
v 85394.790 446443.715 14.978
v 85414.864 446469.672 13.007
v 85420.858 446472.831 17.899
v 85406.049 446493.552 13.550
o NL.IMBAG.Pand.0503100000019275-0
f 32 35 1
f 1 35 36
f 33 34 35
f 3 4 2
f 2 5 6
f 5 2 4
f 2 6 27
f 2 31 1
f 29 30 28
f 33 35 32
f 31 28 30
f 28 31 27
f 27 25 26
f 27 31 2
f 1 31 32
f 24 25 27
f 27 6 18
f 14 9 13
f 9 6 8
f 14 15 9
f 9 15 16
f 12 13 9
f 12 10 11
f 12 9 10
f 6 7 8
f 22 23 20
f 21 22 20
f 23 24 20
f 24 27 18
f 24 19 20
f 19 24 18
f 17 18 6
f 16 17 6
f 9 16 6
f 38 39 40
f 40 37 38
f 42 43 44
f 44 41 42
f 46 47 48
f 48 45 46
f 49 50 52
f 51 52 50
f 53 33 54
f 32 54 33
f 56 57 55
f 58 55 57
f 58 59 60
f 30 29 61
f 62 61 29
f 65 66 64
f 63 64 66
f 67 68 70
f 69 70 68
f 71 72 70
f 73 74 71
f 75 72 71
f 75 71 74
f 78 79 77
f 76 77 79
f 9 8 81
f 81 80 9
f 82 83 84
f 52 51 84
f 85 86 87
f 88 89 87
f 90 91 92
f 93 94 92
f 96 97 95
f 98 95 97
f 99 100 101
f 68 67 101
f 102 103 104
f 105 106 104
f 56 55 107
f 108 109 110
f 113 114 111
f 111 112 113
f 115 116 117
f 118 119 120
f 122 123 124
f 122 125 121
f 125 122 124
f 19 18 127
f 126 127 128
f 127 126 19
f 131 132 130
f 129 130 132
f 134 135 137
f 137 135 136
f 134 138 133
f 138 134 137
f 140 141 142
f 142 139 140
f 143 144 142
f 145 146 147
f 148 149 147
f 150 151 152
f 153 154 152
f 31 30 61
f 61 156 155
f 61 155 31
f 61 157 156
f 158 156 157
f 160 161 159
f 162 159 161
f 164 165 163
f 161 163 165
f 166 167 168
f 169 170 168
f 173 174 172
f 172 175 171
f 175 172 174
f 176 177 178
f 79 78 178
f 179 180 181
f 106 105 181
f 182 183 184
f 185 186 184
f 187 188 189
f 190 191 193
f 192 193 191
f 195 191 194
f 190 194 191
f 196 197 198
f 201 202 200
f 203 199 200
f 203 200 202
f 206 207 204
f 204 205 206
f 208 204 209
f 205 204 211
f 211 204 208
f 212 210 211
f 212 211 208
f 213 214 166
f 167 166 214
f 4 3 216
f 216 217 215
f 217 216 3
f 6 5 219
f 219 218 6
f 221 222 223
f 224 220 221
f 224 221 223
f 29 28 62
f 225 62 28
f 226 227 228
f 228 144 226
f 230 231 229
f 232 229 231
f 233 234 235
f 237 238 236
f 177 236 238
f 237 239 240
f 238 240 113
f 240 238 237
f 234 233 241
f 242 243 244
f 245 246 247
f 246 250 249
f 248 249 250
f 252 253 251
f 254 251 253
f 255 256 145
f 146 145 256
f 257 258 259
f 260 255 259
f 262 211 261
f 210 261 211
f 75 74 263
f 265 266 267
f 267 264 265
f 268 269 60
f 270 60 269
f 273 274 272
f 271 272 274
f 275 276 277
f 278 279 280
f 281 282 280
f 283 284 285
f 286 287 288
f 290 291 292
f 292 289 290
f 294 295 289
f 293 289 295
f 296 297 298
f 140 139 298
f 299 300 301
f 302 303 301
f 227 304 228
f 228 305 306
f 305 228 304
f 309 310 308
f 311 307 308
f 311 308 310
f 312 313 314
f 314 130 312
f 10 9 313
f 313 80 314
f 80 313 9
f 317 318 319
f 317 319 316
f 316 320 315
f 320 316 319
f 77 76 323
f 76 322 323
f 322 76 321
f 324 325 326
f 322 321 326
f 44 43 327
f 327 328 44
f 330 331 329
f 332 329 331
f 54 32 155
f 31 155 32
f 331 325 332
f 333 332 325
f 334 335 336
f 336 337 334
f 338 339 340
f 341 342 338
f 341 338 340
f 343 344 345
f 346 347 343
f 345 346 343
f 348 343 349
f 42 41 351
f 350 351 41
f 303 302 352
f 279 278 352
f 353 354 355
f 355 356 353
f 357 358 359
f 358 357 360
f 109 108 361
f 325 364 333
f 363 325 324
f 363 364 325
f 362 363 324
f 365 366 367
f 368 369 370
f 371 283 370
f 372 373 375
f 375 376 372
f 375 373 374
f 116 115 377
f 377 378 116
f 377 115 379
f 157 380 381
f 381 158 157
f 381 380 339
f 339 338 381
f 382 383 384
f 385 386 387
f 386 385 383
f 383 382 388
f 383 388 386
f 391 392 389
f 389 390 391
f 393 394 395
f 396 182 395
f 397 398 399
f 402 398 401
f 398 400 401
f 400 398 397
f 403 404 405
f 406 407 405
f 24 23 409
f 409 410 408
f 410 409 23
f 25 24 411
f 409 411 24
f 22 21 412
f 413 412 21
f 414 415 416
f 417 418 416
f 419 420 421
f 112 111 421
f 422 423 424
f 363 362 423
f 363 330 329
f 329 364 363
f 426 427 425
f 428 425 427
f 430 431 432
f 432 429 430
f 433 434 435
f 435 436 433
f 440 437 438
f 438 439 440
f 441 442 440
f 154 153 444
f 443 444 153
f 445 412 447
f 446 447 412
f 449 450 451
f 451 448 449
f 446 452 450
f 450 447 446
f 23 22 412
f 412 445 410
f 412 410 23
f 455 456 454
f 453 454 456
f 457 458 459
f 460 461 459
f 102 461 103
f 460 103 461
f 462 463 464
f 465 466 464
f 467 468 465
f 465 469 466
f 469 465 468
f 5 4 219
f 216 219 4
f 470 471 472
f 475 472 474
f 473 474 472
f 401 400 476
f 476 477 401
f 478 479 480
f 481 482 483
f 483 478 481
f 485 486 406
f 406 486 407
f 487 484 485
f 487 485 406
f 126 489 490
f 490 491 488
f 490 488 126
f 174 20 126
f 126 20 19
f 488 175 174
f 488 174 126
f 125 124 172
f 172 171 125
f 493 173 492
f 172 492 173
f 494 495 496
f 497 498 496
f 452 499 450
f 499 451 450
f 451 499 500
f 21 20 174
f 174 413 21
f 501 502 503
f 500 504 503
f 499 505 500
f 500 506 504
f 506 500 505
f 508 509 507
f 507 510 511
f 510 507 509
f 512 513 510
f 511 510 513
f 516 517 515
f 514 515 517
f 518 519 520
f 521 522 523
f 523 524 521
f 68 525 69
f 526 69 525
f 527 528 97
f 529 98 97
f 529 97 528
f 530 531 528
f 532 529 528
f 532 528 531
f 532 531 533
f 533 534 532
f 533 535 536
f 536 534 533
f 318 537 538
f 538 319 318
f 17 16 537
f 537 336 538
f 336 537 16
f 291 317 292
f 316 292 317
f 541 542 539
f 539 540 541
f 544 545 543
f 546 543 545
f 545 290 289
f 546 289 293
f 289 546 545
f 548 544 547
f 543 547 544
f 549 550 551
f 551 552 549
f 18 17 127
f 537 127 17
f 553 554 555
f 232 555 554
f 231 226 144
f 231 144 232
f 232 143 555
f 143 232 144
f 557 558 556
f 559 556 558
f 561 562 560
f 563 560 562
f 562 564 565
f 565 563 562
f 138 137 553
f 554 553 137
f 136 426 425
f 425 137 136
f 566 567 568
f 569 570 568
f 571 572 573
f 519 518 574
f 575 576 577
f 580 581 579
f 578 579 581
f 6 218 7
f 582 7 218
f 582 218 583
f 218 584 585
f 585 583 218
f 579 578 584
f 584 309 308
f 308 585 584
f 588 589 586
f 586 587 588
f 327 351 328
f 350 328 351
f 590 591 592
f 592 593 590
f 596 262 595
f 261 594 595
f 261 595 262
f 196 596 197
f 595 197 596
f 597 598 599
f 542 541 600
f 342 341 485
f 486 485 341
f 601 403 602
f 341 340 602
f 28 27 225
f 603 225 27
f 604 605 606
f 607 608 606
f 609 610 611
f 611 608 609
f 613 614 615
f 615 612 613
f 618 619 617
f 616 617 619
f 222 221 127
f 128 127 221
f 620 221 592
f 592 220 593
f 220 592 221
f 622 620 621
f 592 621 620
f 624 625 623
f 623 64 63
f 64 623 625
f 627 628 626
f 629 626 628
f 630 631 632
f 239 237 632
f 634 635 636
f 636 633 634
f 13 12 634
f 634 633 637
f 634 637 13
f 14 13 639
f 639 13 637
f 638 637 640
f 637 638 639
f 478 483 214
f 213 479 478
f 213 478 214
f 641 642 643
f 482 481 643
f 644 645 646
f 642 641 646
f 647 648 649
f 650 651 649
f 195 194 653
f 652 653 194
f 420 656 654
f 654 655 420
f 658 659 657
f 660 657 659
f 661 662 663
f 664 665 663
f 423 422 666
f 667 668 669
f 670 671 672
f 645 644 673
f 673 674 645
f 675 676 677
f 678 679 680
f 254 680 679
f 683 684 682
f 684 681 682
f 681 684 685
f 684 91 90
f 686 685 684
f 686 684 90
f 687 688 689
f 690 691 689
f 692 693 694
f 695 696 694
f 366 365 697
f 617 616 319
f 320 319 616
f 509 622 510
f 621 510 622
f 698 699 700
f 12 11 701
f 701 634 12
f 703 704 702
f 705 702 704
f 306 305 707
f 706 707 305
f 708 709 710
f 711 712 713
f 40 39 713
f 714 715 716
f 717 718 716
f 718 719 721
f 720 721 719
f 723 265 722
f 722 264 724
f 264 722 265
f 725 726 727
f 728 729 730
f 691 690 730
f 731 732 733
f 734 735 733
f 736 733 735
f 738 493 492
f 492 737 738
f 741 742 740
f 743 739 740
f 743 740 742
f 202 740 203
f 739 203 740
f 744 745 746
f 89 88 746
f 749 750 748
f 747 748 750
f 752 753 751
f 754 751 753
f 756 757 758
f 758 755 756
f 759 760 485
f 485 484 759
f 761 762 763
f 763 764 761
f 762 761 766
f 765 766 761
f 768 216 767
f 215 767 216
f 768 767 581
f 581 580 768
f 769 770 57
f 57 770 771
f 772 59 58
f 58 57 772
f 772 57 771
f 774 775 776
f 776 773 774
f 475 474 779
f 778 779 474
f 777 778 474
f 779 778 780
f 300 299 780
f 406 781 434
f 487 434 433
f 434 487 406
f 782 783 784
f 785 786 784
f 788 789 790
f 790 787 788
f 789 791 792
f 792 790 789
f 427 135 428
f 134 428 135
f 795 796 794
f 793 794 796
f 794 793 512
f 513 512 793
f 513 793 797
f 797 793 798
f 799 800 801
f 802 803 801
f 804 805 806
f 808 809 369
f 369 368 807
f 369 807 808
f 812 813 810
f 810 811 812
f 815 811 814
f 810 814 811
f 817 726 816
f 725 816 726
f 392 391 498
f 498 497 392
f 818 498 391
f 820 821 819
f 822 819 821
f 824 825 823
f 826 823 825
f 828 824 823
f 823 827 828
f 817 816 829
f 825 820 826
f 819 826 820
f 831 828 830
f 827 830 828
f 36 35 832
f 833 832 35
f 836 837 835
f 834 835 837
f 836 831 837
f 830 837 831
f 821 390 389
f 389 822 821
f 404 403 839
f 601 838 839
f 601 839 403
f 839 838 781
f 838 434 781
f 434 838 840
f 841 842 843
f 838 603 844
f 844 840 838
f 845 846 847
f 783 782 847
f 603 27 26
f 603 848 844
f 848 603 26
f 849 850 516
f 517 516 850
f 851 852 853
f 854 393 140
f 141 140 393
f 855 856 857
f 635 312 636
f 636 130 129
f 130 636 312
f 270 269 858
f 858 859 270
f 860 861 463
f 463 462 860
f 863 864 865
f 865 862 863
f 866 867 65
f 671 670 866
f 867 866 670
f 625 868 869
f 869 64 625
f 868 508 507
f 507 869 868
f 871 872 873
f 873 870 871
f 859 858 873
f 874 875 876
f 876 243 242
f 876 242 874
f 872 871 877
f 874 242 878
f 871 870 878
f 881 882 879
f 879 880 881
f 36 832 883
f 883 1 36
f 33 53 34
f 884 34 53
f 721 720 885
f 887 662 886
f 661 886 662
f 888 889 890
f 891 892 893
f 894 895 893
f 894 896 897
f 897 895 894
f 896 665 664
f 664 897 896
f 898 899 900
f 900 901 898
f 903 609 902
f 902 608 607
f 608 902 609
f 904 905 906
f 905 907 115
f 379 115 907
f 611 610 908
f 905 904 909
f 909 907 905
f 910 911 912
f 913 914 912
f 915 916 917
f 914 918 917
f 323 322 919
f 920 921 922
f 923 924 925
f 926 927 925
f 653 652 928
f 928 929 653
f 929 928 930
f 193 192 931
f 932 933 355
f 355 934 356
f 934 355 933
f 933 935 748
f 748 747 934
f 748 934 933
f 935 624 623
f 623 748 935
f 937 932 936
f 355 936 932
f 570 569 938
f 48 47 938
f 489 937 936
f 936 490 489
f 939 940 941
f 458 457 941
f 791 942 943
f 943 792 791
f 942 164 163
f 163 943 942
f 947 948 946
f 946 948 945
f 945 949 944
f 949 945 948
f 951 715 714
f 950 714 952
f 714 950 951
f 951 950 953
f 813 954 953
f 699 698 955
f 955 956 699
f 958 959 960
f 960 957 958
f 962 963 964
f 961 962 851
f 852 851 962
f 852 962 964
f 852 964 966
f 965 966 964
f 253 676 254
f 254 675 680
f 675 254 676
f 968 969 967
f 970 967 969
f 971 972 973
f 962 961 973
f 336 16 974
f 974 16 15
f 975 337 336
f 975 336 974
f 818 976 977
f 977 498 818
f 799 409 408
f 408 800 799
f 310 978 311
f 979 311 978
f 980 981 982
f 916 915 982
f 983 984 985
f 981 986 985
f 988 989 990
f 987 990 991
f 990 987 988
f 988 987 993
f 992 993 987
f 994 995 85
f 86 85 995
f 572 571 996
f 997 998 999
f 1000 1001 100
f 100 99 1000
f 952 714 1002
f 1003 1004 1005
f 709 708 386
f 386 388 709
f 1006 1007 1008
f 1009 1010 1011
f 151 150 1011
f 978 1012 979
f 1013 979 1012
f 803 802 449
f 449 448 803
f 170 169 1015
f 1014 1015 169
f 1017 1018 1019
f 1019 1016 1017
f 1019 1018 1020
f 989 988 1021
f 1023 1024 785
f 1022 785 1024
f 863 862 1026
f 1025 1026 862
f 1027 1028 1029
f 1030 1029 731
f 732 731 1029
f 1032 1033 1031
f 1034 1031 1033
f 1035 1036 1031
f 1032 1031 1036
f 471 470 1037
f 1037 1038 471
f 805 804 501
f 502 501 804
f 754 753 1039
f 1040 755 1039
f 551 591 590
f 590 552 551
f 1041 1009 755
f 755 1040 1041
f 756 755 1009
f 1044 1045 1042
f 1042 1043 1044
f 1047 1048 1046
f 1049 1046 1048
f 160 159 1050
f 160 1051 1052
f 1051 160 1050
f 1054 1055 1053
f 1045 1044 1054
f 1053 1045 1054
f 1056 1057 1058
f 1045 1053 1058
f 696 695 1059
f 1043 1042 1060
f 729 728 1060
f 924 923 1062
f 1061 1062 923
f 1063 1064 1066
f 1066 1067 1063
f 1066 1064 1065
f 1068 1069 1070
f 567 566 1070
f 1071 1010 1009
f 1009 1041 1071
f 180 179 1071
f 287 1072 1074
f 1073 1074 1072
f 1076 1017 1075
f 1016 1075 1017
f 1077 1078 1079
f 1069 1068 1079
f 1081 880 1080
f 879 1080 880
f 921 920 956
f 956 955 921
f 1082 1083 999
f 1064 1063 1084
f 1083 1082 1085
f 1057 1056 967
f 968 967 1056
f 1087 1088 712
f 712 1086 1087
f 420 394 393
f 656 393 854
f 420 419 394
f 656 420 393
f 165 557 161
f 556 162 161
f 556 161 557
f 1052 1089 1015
f 1052 1014 1051
f 1014 1052 1015
f 1086 712 1090
f 711 1090 712
f 1090 1089 1052
f 1051 1050 1090
f 1052 1051 1090
f 1092 1093 627
f 1092 626 1091
f 626 1092 627
f 442 441 1037
f 1038 1037 441
f 995 994 1095
f 1094 1095 994
f 1096 1097 1094
f 1095 1094 1097
f 1076 1075 1098
f 284 283 1007
f 284 1007 1006
f 1007 283 371
f 809 808 1099
f 757 658 657
f 657 758 757
f 1100 1101 1102
f 1101 1103 630
f 1104 630 1103
f 977 976 1105
f 1105 1106 977
f 1106 1105 1108
f 1107 1108 1105
f 1109 760 759
f 759 274 273
f 759 273 1109
f 1107 1109 1108
f 273 1108 1109
f 1004 1003 1110
f 1111 1112 1113
f 8 7 81
f 582 81 7
f 1114 1115 1116
f 1024 1023 1116
f 297 296 655
f 655 654 297
f 1117 1118 667
f 668 667 1118
f 1120 1121 1122
f 1122 1119 1120
f 1123 1124 1125
f 1126 1127 1128
f 1129 1130 1128
f 1129 1131 1130
f 1130 1124 1123
f 1124 1130 1131
f 1133 752 751
f 751 1132 1133
f 1135 815 814
f 814 1134 1135
f 1124 1131 1136
f 940 939 1136
f 1138 96 1137
f 95 1137 96
f 282 281 1139
f 1140 1141 282
f 1139 1140 282
f 786 785 734
f 1022 735 734
f 1022 734 785
f 614 1142 615
f 1143 615 1142
f 1142 344 343
f 1143 343 348
f 343 1143 1142
f 223 613 612
f 612 224 223
f 345 548 346
f 547 346 548
f 1144 1145 1062
f 1145 1146 1147
f 1148 1149 1150
f 1152 73 1151
f 71 1151 73
f 704 1152 1151
f 1151 705 704
f 850 849 1153
f 1153 1154 850
f 1156 947 946
f 946 945 1155
f 946 1155 1156
f 946 230 945
f 229 945 230
f 304 946 945
f 945 944 305
f 945 305 304
f 693 692 1157
f 1048 1158 1049
f 1159 1049 1158
f 1158 1030 1159
f 731 1159 1030
f 1160 1161 490
f 491 490 1161
f 1162 1163 123
f 123 122 1162
f 1165 1166 1164
f 1167 1164 1166
f 1166 540 1167
f 539 1167 540
f 1169 1138 1168
f 1137 1168 1138
f 525 1170 1171
f 1171 1172 526
f 1171 526 525
f 1173 1174 1175
f 1165 1164 1175
f 1176 1177 316
f 316 315 1176
f 455 1178 1179
f 1179 1180 456
f 1179 456 455
f 1180 1179 1181
f 149 148 857
f 1182 857 148
f 1182 148 1183
f 119 118 1183
f 1185 889 1184
f 888 1184 889
f 1081 1080 744
f 745 744 1080
f 1186 1187 1188
f 984 983 910
f 911 910 983
f 1189 1190 467
f 467 465 1189
f 918 914 468
f 914 469 468
f 469 914 913
f 1191 1192 334
f 335 334 1192
f 630 1104 186
f 631 186 185
f 186 631 630
f 683 682 1193
f 378 377 1193
f 1036 1035 1178
f 1179 1178 1035
f 1195 1196 737
f 1197 1194 737
f 1197 737 1196
f 505 1198 506
f 1199 506 1198
f 1198 738 737
f 1199 737 1194
f 737 1199 1198
f 1202 1203 1200
f 1200 1201 1202
f 1204 1205 1202
f 1203 1202 1205
f 1201 1200 1206
f 477 476 892
f 892 891 477
f 1207 1208 1209
f 1208 1207 1210
f 132 131 1209
f 1001 1000 1211
f 418 417 1211
f 1215 1216 1213
f 1215 1213 1214
f 1213 1216 1212
f 402 401 1216
f 1216 1215 402
f 647 1214 648
f 1213 648 1214
f 1219 1220 1218
f 1217 1218 1220
f 1154 1153 522
f 522 521 1154
f 212 208 1221
f 1222 1223 37
f 38 37 1223
f 1223 1222 1224
f 267 266 133
f 134 133 266
f 1227 1228 1226
f 1225 1226 1228
f 1227 46 1228
f 45 1228 46
f 66 65 1229
f 515 514 974
f 975 974 514
f 975 514 1230
f 1103 1101 1231
f 1100 1231 1101
f 308 307 207
f 207 206 308
f 11 10 313
f 313 701 11
f 1232 1233 1234
f 1234 679 1232
f 1233 682 681
f 681 1234 1233
f 90 252 686
f 251 686 252
f 605 604 1235
f 1235 1232 679
f 679 678 1235
f 94 93 1236
f 188 187 1236
f 969 1237 1238
f 1238 970 969
f 1239 1240 1241
f 1238 1237 1241
f 926 1240 1239
f 1239 927 926
f 1242 1243 1244
f 651 650 1244
f 1243 1245 1246
f 1245 1243 841
f 842 841 1243
f 842 1243 1242
f 1149 1148 1247
f 674 673 1061
f 1062 1061 673
f 1146 1145 1249
f 1145 1248 1249
f 1248 1145 1144
f 1250 1251 673
f 1250 1047 1046
f 1046 1251 1250
f 246 245 1252
f 1252 250 246
f 1254 1255 1253
f 1256 1253 1255
f 1257 1258 1259
f 1255 1258 1257
f 1257 1256 1255
f 200 199 1260
f 1260 1261 1262
f 1264 1261 1263
f 1260 1263 1261
f 1267 1268 1266
f 1265 1266 1268
f 1269 1270 1267
f 1271 1268 1267
f 1271 1267 1270
f 1273 1269 1267
f 1267 1272 1273
f 1274 1275 1276
f 1274 1266 1275
f 1265 1275 1266
f 1279 1280 1278
f 1277 1278 1280
f 628 1278 629
f 1277 629 1278
f 1282 1283 723
f 723 722 1281
f 723 1281 1282
f 1283 788 787
f 787 723 1283
f 1284 1285 886
f 887 886 1285
f 558 1282 559
f 1281 559 1282
f 1185 1184 1286
f 1052 1051 1054
f 1055 1054 1051
f 436 1288 1287
f 1115 1287 1288
f 435 1120 436
f 1120 1288 436
f 1288 1120 1119
f 1287 1115 845
f 1114 846 845
f 1114 845 1115
f 1289 1290 1291
f 1121 1290 1289
f 1289 1122 1121
f 775 1097 1096
f 1096 776 775
f 882 881 774
f 774 773 882
f 856 855 1292
f 1293 1294 1026
f 1026 1025 1293
f 1296 1294 1295
f 1293 1295 1294
f 1297 1298 1299
f 865 864 1296
f 1296 1295 865
f 1300 1301 1068
f 1112 1111 1301
f 1301 1300 1302
f 1301 1302 1112
f 1304 1112 1302
f 1302 1303 1304
f 535 1304 536
f 1303 536 1304
f 1305 1306 1307
f 1174 1173 1307
f 1309 1306 1308
f 1305 1308 1306
f 1170 525 1310
f 415 414 1310
f 1309 1308 1171
f 1172 1171 1308
f 1169 1168 1305
f 576 575 1311
f 1133 1132 1125
f 474 473 531
f 531 530 474
f 1312 431 1313
f 1314 1315 1316
f 295 294 1316
f 35 34 833
f 884 833 34
f 1318 1319 1317
f 1320 1317 1319
f 1319 835 834
f 834 1320 1319
f 719 718 1321
f 717 1321 718
f 1318 1317 813
f 1318 813 812
f 813 1317 954
f 1322 1323 1038
f 50 49 1324
f 430 429 1324
f 431 83 432
f 1325 431 1312
f 83 82 432
f 1325 83 431
f 1088 1087 1326
f 83 1325 1326
f 1327 1328 1329
f 1330 1331 1332
f 1333 1334 1335
f 1336 1337 1335
f 1034 1338 1230
f 1230 514 1034
f 1034 1033 1339
f 1034 1340 1338
f 1340 1034 1339
f 1341 1342 1192
f 1192 1191 1341
f 1339 1342 1340
f 1341 1340 1342
f 1343 1344 618
f 619 618 1344
f 1343 454 1344
f 453 1345 1344
f 453 1344 454
f 276 275 1346
f 1177 1176 1347
f 1344 1345 1347
f 1349 1350 1348
f 1351 1348 1350
f 1350 1273 1351
f 1272 1351 1273
f 1353 1349 1348
f 1348 1352 1353
f 375 374 1189
f 1190 1189 374
f 1354 1355 1279
f 1280 1279 1355
f 1135 1134 1271
f 1271 1270 1135
f 376 375 1356
f 861 860 1356
f 15 14 974
f 639 974 14
f 524 523 639
f 639 638 524
f 1353 1352 1013
f 1013 1012 1353
f 1298 1297 1357
f 1360 1361 1359
f 1358 1359 1361
f 1362 1363 875
f 876 875 1363
f 1364 1365 765
f 1365 1364 1367
f 1366 1367 1364
f 766 765 244
f 742 1367 743
f 1366 743 1367
f 1370 1371 1369
f 1368 1369 1371
f 1370 1372 1373
f 1373 1371 1370
f 1372 1264 1373
f 1263 1373 1264
f 1374 1375 1369
f 1369 1368 1374
f 1117 1375 1374
f 1374 1118 1117
f 724 264 1297
f 256 255 1377
f 1377 260 1376
f 260 1377 255
f 963 962 1378
f 1377 1376 1378
f 687 1379 688
f 1380 688 1379
f 1381 1382 1379
f 1379 1383 1380
f 1383 1379 1382
f 1382 561 1383
f 560 1383 561
f 564 1381 1379
f 1379 1384 565
f 1379 565 564
f 948 1386 949
f 1387 1385 949
f 1387 949 1386
f 1386 1156 1155
f 1155 1388 1387
f 1155 1387 1386
f 565 1384 1155
f 1388 1155 1384
f 949 1385 589
f 589 588 949
f 1389 1390 1391
f 1187 1186 1392
f 1393 959 1392
f 960 1392 959
f 959 1390 1389
f 1389 960 959
f 26 25 848
f 411 848 25
f 1393 287 959
f 287 1393 1072
f 287 286 960
f 287 960 959
f 958 957 1394
f 778 777 528
f 528 527 778
f 1395 1396 1093
f 1093 1092 1395
f 1398 1399 1400
f 1400 1401 1397
f 1400 1397 1398
f 1399 1398 1402
f 1333 1403 1334
f 1404 1334 1403
f 1398 1397 1403
f 660 659 1405
f 1404 1403 1405
f 901 900 903
f 903 902 901
f 1406 1407 637
f 640 637 1407
f 899 898 971
f 972 971 898
f 1408 1409 1410
f 1411 1330 1412
f 1411 1328 1330
f 1327 1331 1330
f 1327 1330 1328
f 1074 1073 1413
f 1361 1360 1413
f 1359 1358 1414
f 703 1414 1358
f 1414 703 763
f 763 702 764
f 702 763 703
f 742 741 1415
f 991 990 1415
f 993 992 201
f 202 201 992
f 595 594 1416
f 998 997 1417
f 587 586 1418
f 586 1336 1418
f 1336 586 1337
f 1254 1253 1419
f 707 706 1418
f 1418 1336 707
f 1420 236 177
f 177 176 1420
f 182 396 114
f 183 182 240
f 182 113 240
f 113 182 114
f 1323 1322 1421
f 1423 1424 1425
f 1425 1422 1423
f 1425 1424 550
f 550 549 1425
f 795 1423 1422
f 1422 796 795
f 1426 1427 1428
f 1426 1409 1408
f 1408 1427 1426
f 1092 1091 1406
f 1407 1406 1091
f 1315 1314 346
f 347 346 1314
f 1429 1430 1432
f 1431 1432 1430
f 268 60 1432
f 1434 769 57
f 57 1433 1434
f 770 1434 771
f 1433 771 1434
f 966 965 257
f 258 257 965
f 1430 1429 1435
f 772 771 1435
f 1436 1437 1438
f 1363 1362 1438
f 1430 1437 1436
f 1436 1431 1430
f 735 808 807
f 807 736 735
f 1439 1440 1163
f 1163 1162 1439
f 1440 1439 1442
f 1441 1442 1439
f 1442 1441 1443
f 1197 1196 806
f 1196 1195 1443
f 1220 1219 1396
f 1396 1395 1220
f 1218 1217 1354
f 1355 1354 1217
f 1249 1248 1445
f 1445 1446 1249
f 1444 1445 1248
f 1447 1448 1449
f 1451 1448 1450
f 1447 1450 1448
f 1453 1454 1455
f 1455 1452 1453
f 1161 1160 1455
f 1451 1450 1456
f 1453 1452 1456
f 1457 1458 1459
f 1454 1453 1459
f 122 121 1458
f 1458 1457 122
f 1461 1462 1463
f 1463 1460 1461
f 1446 1445 1464
f 1066 1065 1444
f 1445 1444 1065
f 1463 1462 1465
f 1067 1066 1465
f 1400 1461 1460
f 1460 1401 1400
f 444 443 1466
f 1127 1126 1466
f 1467 1468 1469
f 1470 1471 1468
f 1468 1467 1470
f 1468 1471 1472
f 1471 1470 1473
f 495 494 1473
f 1468 1472 1474
f 249 248 749
f 354 353 750
f 750 749 354
f 3 2 1475
f 1475 217 3
f 1 883 1475
f 1475 2 1
f 272 271 1476
f 598 597 1028
f 1028 1027 598
f 981 980 373
f 372 986 981
f 372 981 373
f 1078 1077 1477
f 439 438 1477
f 1141 1140 437
f 438 437 1140
f 1140 1139 1478
f 1226 1225 1478
f 1213 1212 1479
f 1479 1480 1213
f 1205 1204 1481
f 1285 1284 1482
f 1480 1479 1482
f 62 157 61
f 157 62 225
f 157 339 380
f 339 157 225
f 332 333 364
f 364 329 332
f 219 580 579
f 579 584 218
f 579 218 219
f 41 44 350
f 328 350 44
f 405 341 602
f 405 602 403
f 405 407 486
f 405 486 341
f 422 424 444
f 422 444 666
f 444 424 154
f 752 1483 753
f 216 768 580
f 580 219 216
f 135 427 136
f 426 136 427
f 405 404 839
f 781 406 405
f 781 405 839
f 225 340 339
f 340 225 603
f 603 838 601
f 601 602 603
f 603 602 340
f 866 65 507
f 671 866 507
f 507 64 869
f 64 507 65
f 489 126 937
f 937 126 932
f 933 624 935
f 624 933 932
f 932 126 624
f 126 625 624
f 868 622 508
f 622 868 128
f 625 126 868
f 508 622 509
f 128 221 620
f 622 128 620
f 868 126 128
f 310 309 578
f 584 578 309
f 801 800 410
f 410 802 801
f 410 800 408
f 445 449 802
f 449 447 450
f 447 449 445
f 445 802 410
f 1484 549 552
f 590 220 552
f 220 590 593
f 552 220 1484
f 181 102 104
f 181 104 106
f 181 360 102
f 360 181 358
f 180 359 358
f 358 181 180
f 359 1071 1483
f 1483 1071 1041
f 1483 1041 753
f 753 1041 1039
f 1041 1040 1039
f 1071 359 180
f 324 326 112
f 112 326 113
f 362 112 421
f 362 324 112
f 362 420 424
f 362 421 420
f 177 113 178
f 113 177 238
f 113 76 79
f 113 326 76
f 326 321 76
f 113 79 178
f 152 366 697
f 1011 697 757
f 150 697 1011
f 757 756 1009
f 757 1009 1011
f 655 424 420
f 655 296 154
f 424 655 154
f 152 296 366
f 152 154 296
f 697 150 152
f 424 423 362
f 713 170 711
f 170 713 39
f 170 1015 1090
f 1089 1090 1015
f 170 1090 711
f 270 859 55
f 58 60 55
f 55 60 270
f 859 1098 55
f 1020 1018 1017
f 1098 1017 1076
f 1017 1098 1020
f 1020 1098 859
f 365 367 658
f 365 757 697
f 757 365 658
f 656 854 298
f 298 854 140
f 297 654 656
f 297 656 298
f 345 223 548
f 127 223 222
f 613 223 345
f 344 1142 614
f 614 345 344
f 345 614 613
f 223 127 548
f 290 544 291
f 544 290 545
f 548 537 544
f 317 291 537
f 537 318 317
f 291 544 537
f 548 127 537
f 817 906 726
f 726 906 117
f 115 117 906
f 115 906 905
f 384 721 885
f 384 885 710
f 388 384 710
f 382 384 388
f 388 710 709
f 231 230 304
f 226 231 227
f 304 227 231
f 946 304 230
f 982 985 916
f 982 981 985
f 985 984 917
f 910 912 917
f 917 916 985
f 917 912 914
f 917 984 910
f 631 185 184
f 631 184 632
f 183 240 239
f 239 632 183
f 183 632 184
f 412 413 446
f 452 446 1198
f 499 452 1198
f 413 1198 446
f 1198 505 499
f 738 1198 174
f 493 174 173
f 174 493 738
f 1198 413 174
f 1221 1259 212
f 1259 1221 1117
f 210 212 1259
f 1117 667 1257
f 1257 669 1256
f 669 1257 667
f 1117 1257 1259
f 1188 418 1211
f 418 1188 89
f 1186 1188 263
f 89 1188 87
f 85 87 1188
f 1188 1211 1000
f 1000 99 263
f 101 67 75
f 99 101 263
f 263 101 75
f 70 72 75
f 67 70 75
f 1000 263 1188
f 208 209 1221
f 1485 1221 209
f 43 206 327
f 206 43 308
f 351 327 262
f 206 205 327
f 308 43 585
f 583 42 351
f 42 583 585
f 43 42 585
f 351 582 583
f 205 211 327
f 81 582 198
f 262 196 351
f 196 262 596
f 196 198 351
f 582 351 198
f 211 262 327
f 634 701 312
f 312 701 313
f 634 312 635
f 681 685 686
f 251 1234 681
f 1234 254 679
f 254 1234 251
f 251 681 686
f 908 117 116
f 908 116 378
f 726 117 727
f 606 611 908
f 117 908 727
f 908 378 606
f 1193 682 1233
f 1233 1232 1193
f 1193 1232 1235
f 611 606 608
f 1235 604 606
f 1193 1235 606
f 606 378 1193
f 909 189 377
f 907 909 377
f 907 377 379
f 377 189 1193
f 189 684 1193
f 684 188 1236
f 684 1236 93
f 684 683 1193
f 92 91 684
f 684 93 92
f 188 684 189
f 398 402 1215
f 643 398 1215
f 643 399 398
f 1004 1110 399
f 1005 399 480
f 399 1005 1004
f 481 480 399
f 1215 1214 647
f 649 651 641
f 1244 1243 1246
f 1244 1246 651
f 651 1246 641
f 481 399 643
f 641 647 649
f 643 1215 641
f 647 641 1215
f 481 478 480
f 925 924 1240
f 1240 926 925
f 924 1062 1240
f 1062 1145 1147
f 1148 1240 1247
f 1147 1247 1062
f 1247 1240 1062
f 1245 841 1246
f 644 1246 843
f 1246 646 641
f 646 1246 644
f 1246 841 843
f 361 1047 673
f 109 361 843
f 361 673 843
f 673 1047 1250
f 843 673 644
f 108 1047 361
f 1047 108 110
f 1047 1158 1048
f 1158 1047 110
f 245 247 1252
f 1252 247 1229
f 623 63 1229
f 66 1229 63
f 623 1229 247
f 198 197 595
f 595 1416 198
f 198 1419 81
f 198 1416 1419
f 1253 669 81
f 1256 669 1253
f 1419 1253 81
f 668 1207 131
f 1209 131 1207
f 668 131 81
f 80 81 131
f 130 314 80
f 80 131 130
f 668 81 669
f 643 642 646
f 483 482 643
f 483 643 645
f 646 645 643
f 923 167 645
f 167 214 645
f 214 483 645
f 968 1056 1014
f 1058 1055 1051
f 1053 1055 1058
f 1058 1051 1056
f 167 927 168
f 167 925 927
f 168 927 169
f 923 674 1061
f 925 167 923
f 674 923 645
f 169 1239 1014
f 1239 169 927
f 1014 1239 1241
f 1014 1056 1051
f 1241 1237 969
f 968 1014 969
f 969 1014 1241
f 558 557 788
f 1282 788 1283
f 788 1282 558
f 557 789 788
f 165 164 942
f 789 942 791
f 789 557 942
f 942 557 165
f 1185 1286 900
f 900 899 1185
f 562 561 564
f 1382 1381 564
f 1382 564 561
f 1288 1119 1115
f 1115 1119 1116
f 1116 1008 1024
f 1008 1116 1119
f 1024 1008 1099
f 1007 371 370
f 1007 370 1099
f 1099 369 809
f 369 1099 370
f 1007 1099 1008
f 1116 847 846
f 847 1116 783
f 846 1114 1116
f 1023 785 784
f 783 1116 784
f 784 1116 1023
f 995 774 881
f 881 880 995
f 774 1097 775
f 995 1097 774
f 880 1081 744
f 995 744 746
f 87 746 88
f 995 1095 1097
f 86 995 746
f 746 87 86
f 744 995 880
f 862 865 1293
f 1293 1025 862
f 1295 1293 865
f 518 520 1113
f 574 518 1113
f 1112 1304 535
f 1113 535 574
f 535 1113 1112
f 1310 417 416
f 100 1211 417
f 1001 1211 100
f 416 415 1310
f 1310 525 68
f 1310 101 100
f 101 1310 68
f 1310 100 417
f 746 745 600
f 89 600 541
f 600 89 746
f 541 418 89
f 418 541 416
f 541 414 416
f 414 541 540
f 414 540 1310
f 1166 1165 1175
f 1307 1306 1175
f 1307 1175 1174
f 1309 1175 1306
f 1166 1310 540
f 1310 1166 1309
f 1309 1171 1170
f 1309 1166 1175
f 1309 1170 1310
f 575 1169 1311
f 1169 575 577
f 96 1138 1169
f 96 1169 577
f 102 360 941
f 360 357 359
f 360 939 941
f 461 102 459
f 457 459 102
f 102 941 457
f 1136 1483 752
f 752 1133 1124
f 1125 1124 1133
f 939 359 1483
f 1124 1136 752
f 939 1483 1136
f 939 360 359
f 817 829 906
f 904 906 919
f 919 322 326
f 919 906 829
f 326 189 919
f 919 189 909
f 331 326 325
f 919 909 904
f 331 187 189
f 189 326 331
f 1236 187 666
f 94 1236 444
f 331 330 187
f 363 423 666
f 666 444 1236
f 666 330 363
f 666 187 330
f 94 444 1227
f 46 1227 444
f 195 47 1466
f 1466 47 46
f 444 1466 46
f 931 1130 1125
f 1125 1130 1123
f 1128 1130 931
f 931 1125 1132
f 1484 1143 931
f 191 1126 931
f 1126 191 1466
f 192 191 931
f 1484 931 1132
f 1128 931 1126
f 191 195 1466
f 220 224 612
f 1143 612 615
f 1143 1484 612
f 220 612 1484
f 1316 1315 293
f 293 295 1316
f 546 1315 346
f 547 543 546
f 546 293 1315
f 547 546 346
f 1312 1313 1088
f 1312 1326 1325
f 1326 1312 1088
f 1313 712 1088
f 1222 37 40
f 1222 713 712
f 713 1222 40
f 1222 712 1313
f 1224 1222 1313
f 1228 45 48
f 48 938 1228
f 1228 938 1225
f 438 1140 1478
f 1478 1225 1477
f 438 1478 1477
f 569 1225 938
f 567 1070 1079
f 1069 1079 1070
f 567 1079 1078
f 569 1477 1225
f 568 1078 1477
f 1078 568 567
f 1477 569 568
f 51 50 84
f 84 50 1324
f 432 84 1324
f 82 84 432
f 432 1324 429
f 120 1346 855
f 118 120 855
f 857 1182 1183
f 1183 855 857
f 855 1183 118
f 1346 1292 855
f 277 700 699
f 699 956 277
f 277 956 920
f 1292 1346 922
f 920 275 277
f 275 920 922
f 1346 275 922
f 193 931 928
f 194 190 193
f 652 194 193
f 193 928 652
f 1143 348 349
f 930 928 931
f 930 1143 349
f 930 931 1143
f 1340 1341 334
f 1230 1338 1340
f 1340 334 1230
f 337 975 334
f 1191 334 1341
f 975 1230 334
f 1033 1036 1178
f 1178 455 1033
f 454 1342 455
f 1032 1036 1033
f 1339 1033 455
f 1342 1339 455
f 454 1343 1342
f 335 617 319
f 538 336 319
f 335 319 336
f 1192 1342 618
f 335 1192 617
f 618 617 1192
f 618 1342 1343
f 147 149 857
f 259 255 145
f 147 882 145
f 882 856 879
f 882 773 145
f 882 857 856
f 882 147 857
f 879 856 1292
f 257 145 773
f 853 852 241
f 890 889 853
f 853 241 890
f 257 259 145
f 966 234 241
f 234 966 257
f 966 241 852
f 257 773 234
f 539 1311 1164
f 1164 1311 1169
f 1169 1175 1164
f 576 1311 542
f 1307 1173 1169
f 1173 1175 1169
f 1307 1169 1305
f 539 1164 1167
f 745 922 955
f 879 1292 1080
f 745 1080 922
f 922 921 955
f 1080 1292 922
f 542 600 576
f 698 600 955
f 698 576 600
f 955 600 745
f 1311 539 542
f 619 1344 1347
f 619 1347 1176
f 315 320 616
f 619 1176 616
f 616 1176 315
f 708 387 386
f 387 708 1059
f 696 708 694
f 1059 708 696
f 694 708 692
f 950 952 953
f 813 953 810
f 952 810 953
f 810 952 1002
f 1002 1134 810
f 1134 1002 1265
f 1134 1265 1271
f 810 1134 814
f 1271 1265 1268
f 1356 375 1189
f 861 1356 463
f 1189 465 464
f 464 463 1189
f 1189 463 1356
f 849 516 1153
f 522 1153 516
f 516 515 522
f 974 639 523
f 515 523 522
f 523 515 974
f 877 871 878
f 877 878 242
f 244 1021 877
f 989 1021 990
f 877 242 244
f 244 765 1365
f 244 1365 990
f 990 1365 1415
f 1367 742 1415
f 1365 1367 1415
f 244 990 1021
f 85 1391 1094
f 1391 85 1188
f 1094 994 85
f 1392 1391 1187
f 1389 1392 960
f 1389 1391 1392
f 1187 1391 1188
f 1267 1266 1272
f 1352 1272 1266
f 1352 1266 1276
f 1276 1266 1274
f 996 1276 572
f 1351 1352 1348
f 1351 1272 1352
f 996 1013 1352
f 979 1013 107
f 996 107 1013
f 979 55 311
f 1276 996 1352
f 55 307 311
f 307 55 207
f 55 979 107
f 207 209 204
f 209 55 1098
f 1098 1485 209
f 207 55 209
f 1485 1098 1075
f 1485 1075 1372
f 1264 1075 1261
f 1372 1075 1264
f 1261 1075 1262
f 1075 1016 1262
f 1221 1485 1375
f 1375 1485 1372
f 1370 1369 1375
f 1375 1117 1221
f 1370 1375 1372
f 1103 1231 186
f 1103 186 1104
f 1231 184 186
f 182 1357 395
f 1357 182 184
f 395 1357 1297
f 1357 184 1231
f 1297 264 395
f 393 267 133
f 267 393 264
f 393 133 141
f 393 395 264
f 142 133 138
f 141 133 142
f 553 555 143
f 553 143 142
f 138 553 142
f 947 1156 948
f 1386 948 1156
f 1440 1442 1163
f 1163 1442 123
f 492 172 124
f 124 123 492
f 492 123 1442
f 163 160 1054
f 163 161 160
f 160 1052 1054
f 1054 1044 560
f 560 428 163
f 425 560 563
f 1044 1383 560
f 560 163 1054
f 425 428 560
f 787 790 792
f 265 723 787
f 787 266 265
f 134 792 163
f 134 163 428
f 792 134 266
f 792 943 163
f 792 266 787
f 1043 1060 688
f 1380 1383 688
f 1383 1044 688
f 1060 728 688
f 688 1044 1043
f 728 730 689
f 690 689 730
f 728 689 688
f 229 554 425
f 229 563 945
f 137 425 554
f 229 232 554
f 229 425 563
f 1155 563 565
f 563 1155 945
f 1101 630 1102
f 1102 630 632
f 237 236 1420
f 632 1420 1102
f 1420 632 237
f 719 1321 885
f 719 885 720
f 885 1321 235
f 235 708 710
f 708 235 234
f 885 235 710
f 234 773 708
f 1157 1096 1094
f 1096 1157 776
f 773 776 1157
f 692 708 1157
f 1390 1157 1094
f 1391 1390 1094
f 1157 708 773
f 1410 1409 1210
f 1208 1210 1209
f 1409 1209 1210
f 636 129 132
f 1209 1409 132
f 132 1409 636
f 694 693 958
f 695 694 958
f 1390 959 958
f 1157 958 693
f 958 1157 1390
f 864 844 1296
f 1296 844 1291
f 1294 1296 1026
f 434 840 863
f 864 863 840
f 840 844 864
f 435 434 863
f 1290 1026 1296
f 848 411 1291
f 1291 844 848
f 1026 1121 1120
f 1121 1026 1290
f 1120 435 1026
f 1026 435 863
f 1290 1296 1291
f 1119 1122 1008
f 1008 1122 285
f 285 1006 1008
f 1006 285 284
f 288 1394 957
f 1394 1363 1205
f 286 957 960
f 1203 1205 1200
f 1363 1200 1205
f 1394 876 1363
f 762 766 244
f 762 244 243
f 288 876 1394
f 243 876 288
f 288 762 243
f 288 957 286
f 384 1002 721
f 383 387 1275
f 387 383 385
f 1275 387 1276
f 383 1275 384
f 1002 384 1265
f 718 721 716
f 721 714 716
f 714 721 1002
f 384 1275 1265
f 1481 573 695
f 1205 958 1394
f 958 1205 1481
f 1481 695 958
f 1276 387 1059
f 572 1276 1059
f 1059 573 572
f 1059 695 573
f 777 474 528
f 530 528 474
f 889 899 853
f 889 1185 899
f 899 971 853
f 973 961 851
f 851 853 973
f 973 853 971
f 972 898 902
f 902 898 901
f 607 606 902
f 677 605 1235
f 678 677 1235
f 680 677 678
f 973 902 606
f 1378 606 605
f 973 606 962
f 1378 962 606
f 973 972 902
f 147 677 300
f 1377 1378 605
f 1377 147 146
f 147 1377 677
f 1377 146 256
f 677 1377 605
f 677 680 675
f 1183 300 780
f 300 148 147
f 1183 148 300
f 677 301 300
f 780 119 1183
f 120 119 1346
f 778 119 780
f 1346 119 778
f 677 302 301
f 1346 778 276
f 277 276 778
f 698 700 577
f 700 277 778
f 527 97 96
f 577 576 698
f 96 577 527
f 527 577 700
f 700 778 527
f 1328 1411 1412
f 1181 1412 456
f 1328 1412 1329
f 1181 1329 1412
f 1180 1181 456
f 1177 292 316
f 1177 1412 292
f 1412 453 456
f 1347 1345 453
f 1177 1347 453
f 453 1412 1177
f 1330 1332 1412
f 1412 1332 294
f 294 289 292
f 294 292 1412
f 1074 1413 762
f 288 287 1074
f 1074 762 288
f 1359 763 762
f 763 1359 1414
f 762 1413 1359
f 1359 1413 1360
f 1392 1186 1072
f 1393 1392 1072
f 1072 1186 1073
f 1186 263 1073
f 1152 263 74
f 1152 74 73
f 1361 1413 263
f 1152 1361 263
f 263 1413 1073
f 1358 1361 1152
f 1152 704 703
f 1152 703 1358
f 1302 1300 1303
f 534 536 1327
f 1300 1314 1303
f 529 532 98
f 534 98 532
f 98 534 1327
f 536 1303 1327
f 1331 1303 1332
f 1314 1316 1332
f 1327 1303 1331
f 1137 1329 1035
f 95 1329 1137
f 95 98 1329
f 1172 1137 1035
f 1327 1329 98
f 1168 1137 1305
f 1314 1332 1303
f 1308 1305 1172
f 526 1172 517
f 1305 1137 1172
f 765 761 764
f 1366 1364 765
f 70 69 850
f 71 70 705
f 705 1151 71
f 705 70 850
f 765 764 1366
f 1220 764 702
f 702 705 1220
f 743 1366 764
f 764 1220 743
f 69 526 850
f 1316 294 1332
f 1031 1172 1035
f 1181 1035 1329
f 517 1172 1031
f 526 517 850
f 521 705 1154
f 1220 705 521
f 1217 1220 521
f 743 1220 739
f 514 517 1031
f 705 850 1154
f 1179 1035 1181
f 1217 524 1355
f 1217 521 524
f 1395 1092 1406
f 514 1031 1034
f 1220 1395 739
f 1260 199 1263
f 1371 199 739
f 199 1371 1263
f 203 739 199
f 1371 1373 1263
f 1368 1118 1374
f 739 1427 1371
f 1427 739 1395
f 1395 1428 1427
f 1408 1368 1371
f 668 1368 1207
f 1368 668 1118
f 1410 1210 1207
f 1410 1207 1368
f 1368 1408 1410
f 1408 1371 1427
f 1395 1406 1428
f 987 991 992
f 992 991 1415
f 1415 741 202
f 740 202 741
f 1415 202 992
f 1020 1021 988
f 1020 877 1021
f 873 872 877
f 1020 859 877
f 877 859 873
f 988 993 1020
f 1019 201 200
f 1262 200 1260
f 1020 993 1019
f 1262 1016 1019
f 1019 200 1262
f 1019 993 201
f 586 691 730
f 689 691 589
f 730 729 586
f 687 689 1379
f 1384 1379 1387
f 1388 1384 1387
f 1387 589 1385
f 589 1387 1379
f 1379 689 589
f 691 586 589
f 999 1083 1085
f 1335 997 999
f 1333 1085 1402
f 999 1085 1335
f 1402 1398 1333
f 586 1335 1337
f 1335 586 1417
f 1417 586 729
f 1335 1417 997
f 1335 1085 1333
f 1398 1403 1333
f 305 944 949
f 305 949 588
f 587 1418 706
f 588 706 305
f 706 588 587
f 210 1416 594
f 1416 210 1259
f 594 261 210
f 1259 1258 1255
f 1419 1255 1254
f 1255 1419 1259
f 1259 1419 1416
f 142 144 228
f 142 228 139
f 296 228 306
f 296 298 139
f 228 296 139
f 296 306 707
f 296 707 366
f 367 1336 1335
f 1335 1334 367
f 1404 367 1334
f 367 366 1336
f 1405 659 658
f 1405 658 367
f 367 1404 1405
f 1336 366 707
f 368 370 411
f 804 411 799
f 411 804 368
f 370 283 411
f 1289 1291 285
f 285 1122 1289
f 283 285 411
f 1291 411 285
f 409 799 411
f 801 803 804
f 799 801 804
f 448 451 500
f 503 502 448
f 503 448 500
f 502 804 448
f 448 804 803
f 1473 494 1474
f 1471 1473 1472
f 1474 1472 1473
f 1474 494 1476
f 1476 271 49
f 1476 49 1474
f 271 1324 49
f 431 430 1313
f 430 1324 1003
f 430 1005 1313
f 1003 1324 271
f 1313 480 1224
f 1003 1005 430
f 480 479 213
f 480 213 1224
f 1224 213 38
f 1223 1224 38
f 39 38 170
f 38 168 170
f 38 213 168
f 166 168 213
f 1313 1005 480
f 396 395 114
f 114 395 111
f 394 419 421
f 421 111 394
f 394 111 395
f 1038 1323 473
f 1038 472 471
f 472 1038 473
f 1323 1421 473
f 531 535 533
f 1421 574 531
f 574 1421 519
f 531 574 535
f 1421 531 473
f 671 798 672
f 798 671 513
f 507 511 513
f 797 798 513
f 513 671 507
f 795 794 550
f 1423 550 1424
f 550 1423 795
f 794 591 550
f 510 621 592
f 510 592 512
f 512 592 591
f 512 591 794
f 591 551 550
f 1409 1426 1428
f 1409 1428 1406
f 1406 637 636
f 633 636 637
f 1406 636 1409
f 195 653 568
f 929 930 653
f 568 653 566
f 938 47 568
f 568 570 938
f 47 195 568
f 653 930 566
f 930 349 1314
f 1314 1300 930
f 349 347 1314
f 347 349 343
f 930 1070 566
f 930 1068 1070
f 1300 1068 930
f 1434 770 769
f 963 1378 965
f 965 964 963
f 1378 258 965
f 1376 260 1378
f 259 258 1378
f 260 259 1378
f 1435 1429 1432
f 772 1435 59
f 59 1432 60
f 1432 59 1435
f 1206 1200 1363
f 1438 1437 1206
f 1363 1438 1206
f 1432 1436 1438
f 1438 269 1432
f 1436 1432 1431
f 268 1432 269
f 1438 1362 269
f 875 874 878
f 875 878 870
f 269 870 873
f 269 1362 870
f 873 858 269
f 870 1362 875
f 1022 1024 1099
f 1099 808 735
f 1099 735 1022
f 1160 1451 1456
f 1455 1456 1452
f 1455 1160 1456
f 490 936 1160
f 1160 936 1451
f 806 805 501
f 501 1197 806
f 506 1199 1194
f 506 503 504
f 506 501 503
f 501 506 1194
f 501 1194 1197
f 1442 1443 1195
f 1195 737 492
f 1195 492 1442
f 524 1280 1355
f 1280 524 638
f 626 1407 1091
f 1277 638 629
f 638 1277 1280
f 629 640 626
f 640 629 638
f 626 640 1407
f 1396 1218 1093
f 1396 1219 1218
f 1218 1354 1093
f 1278 628 1279
f 1093 1279 627
f 1279 1093 1354
f 627 1279 628
f 1458 121 1459
f 121 1454 1459
f 1454 121 1455
f 121 1161 1455
f 491 125 171
f 491 171 175
f 125 491 1161
f 491 175 488
f 125 1161 121
f 1148 1150 1241
f 1148 1241 1240
f 1241 1150 1238
f 1150 1084 1238
f 1464 1445 1065
f 1150 1064 1084
f 1150 1065 1064
f 1065 1150 1464
f 1247 1147 1149
f 1150 1149 1147
f 1147 1464 1150
f 1249 1464 1147
f 1446 1464 1249
f 1249 1147 1146
f 246 249 247
f 247 249 749
f 749 748 623
f 749 623 247
f 1045 1058 1042
f 1057 1042 1058
f 729 1060 967
f 967 970 1238
f 967 1060 1042
f 967 1238 1417
f 1057 967 1042
f 729 967 1417
f 1462 1084 1063
f 1067 1465 1063
f 1462 1063 1465
f 1417 1084 998
f 1082 999 998
f 1082 998 1084
f 1462 1082 1084
f 1084 1417 1238
f 1082 1402 1085
f 1402 1082 1462
f 1400 1402 1461
f 1399 1402 1400
f 1461 1402 1462
f 912 911 105
f 153 983 985
f 983 153 911
f 911 153 105
f 105 104 469
f 913 912 469
f 103 466 469
f 466 460 464
f 469 912 105
f 153 152 105
f 372 153 986
f 443 372 860
f 443 153 372
f 986 153 985
f 460 462 464
f 1356 860 372
f 1356 372 376
f 462 443 860
f 443 462 1466
f 104 103 469
f 1011 1071 151
f 1071 179 151
f 1010 1071 1011
f 151 179 152
f 1127 940 1136
f 1129 1136 1131
f 940 1127 941
f 1129 1128 1136
f 458 941 1466
f 458 1466 462
f 458 462 459
f 462 460 459
f 103 460 466
f 1466 941 1127
f 152 179 181
f 1127 1136 1128
f 105 152 181
f 1297 84 724
f 724 84 83
f 1326 724 83
f 1469 1468 1299
f 84 1299 52
f 1299 84 1297
f 52 1299 1468
f 1326 1087 724
f 1086 1090 159
f 1050 159 1090
f 159 162 556
f 159 556 1087
f 559 1087 556
f 722 724 1087
f 722 1087 1281
f 559 1281 1087
f 1087 1086 159
f 1482 477 1285
f 477 1482 1479
f 401 477 1216
f 1212 1216 477
f 477 1479 1212
f 1285 477 891
f 895 897 663
f 664 663 897
f 895 663 662
f 891 893 887
f 662 887 893
f 893 895 662
f 891 887 1285
f 496 392 497
f 392 496 495
f 392 1473 1470
f 1473 392 495
f 392 1470 1231
f 1469 1470 1467
f 392 1231 389
f 822 1100 1102
f 1102 829 822
f 829 1420 78
f 1231 1100 822
f 1299 1231 1469
f 1231 1470 1469
f 1102 1420 829
f 822 829 816
f 822 389 1231
f 827 819 727
f 823 826 827
f 1286 830 827
f 826 819 827
f 819 822 816
f 727 1286 827
f 727 900 1286
f 830 1286 837
f 834 837 1320
f 954 1317 1320
f 1320 837 1321
f 1184 837 1286
f 727 819 725
f 816 725 819
f 1231 1298 1357
f 1420 176 178
f 178 78 1420
f 78 919 829
f 900 727 908
f 919 78 323
f 908 610 609
f 609 903 908
f 323 78 77
f 900 908 903
f 888 890 1321
f 888 1321 837
f 954 1320 953
f 953 717 951
f 717 953 1321
f 1321 953 1320
f 890 235 1321
f 837 1184 888
f 241 233 890
f 233 235 890
f 717 716 951
f 716 715 951
f 1231 1299 1298
f 1468 1474 52
f 49 52 1474
f 807 368 804
f 736 1439 733
f 1439 731 733
f 1159 731 1439
f 736 807 1441
f 1443 1441 807
f 1443 804 806
f 806 1196 1443
f 1049 1439 1450
f 1049 1159 1439
f 1439 1456 1450
f 736 1441 1439
f 1046 1049 1251
f 804 1443 807
f 1447 1049 1450
f 673 1144 1062
f 1144 673 1251
f 1251 1248 1144
f 1251 1049 1248
f 1066 1444 1465
f 1460 1463 1252
f 1463 1444 1252
f 1447 1449 1444
f 1444 1248 1447
f 1405 1397 660
f 1405 1403 1397
f 1401 660 1397
f 1401 1460 1252
f 1401 672 660
f 1463 1465 1444
f 1049 1447 1248
f 1162 122 1457
f 1162 1457 1456
f 1444 248 250
f 1453 1456 1459
f 1456 1457 1459
f 250 1252 1444
f 1456 1439 1162
f 1449 354 248
f 354 749 248
f 1252 1229 65
f 1252 65 670
f 670 65 867
f 1401 1252 670
f 758 657 672
f 1039 755 1422
f 758 1422 755
f 672 657 660
f 1425 754 1039
f 1425 751 754
f 751 1484 1132
f 1422 758 672
f 796 1422 672
f 672 798 796
f 798 793 796
f 1422 1425 1039
f 549 1484 1425
f 1425 1484 751
f 670 672 1401
f 1449 248 1444
f 750 353 747
f 356 934 747
f 356 747 353
f 53 976 818
f 976 53 54
f 53 818 391
f 390 821 820
f 391 390 53
f 825 53 390
f 760 54 155
f 54 760 1105
f 760 1109 1107
f 1107 1105 760
f 54 1105 976
f 825 390 820
f 824 828 831
f 825 824 884
f 831 836 884
f 884 836 835
f 831 884 824
f 825 884 53
f 1318 835 1319
f 832 833 812
f 1318 812 833
f 884 1318 833
f 815 832 812
f 812 811 815
f 1318 884 835
f 381 760 155
f 155 156 158
f 158 381 155
f 381 338 485
f 342 485 338
f 381 485 760
f 978 310 578
f 581 1012 578
f 578 1012 978
f 767 1012 581
f 1269 1273 1350
f 1269 1350 1270
f 883 815 1135
f 1270 883 1135
f 1270 1350 883
f 1353 767 1475
f 767 1353 1012
f 1475 767 215
f 1353 1475 1349
f 1349 1475 883
f 1349 883 1350
f 1475 215 217
f 815 883 832
f 496 498 1106
f 494 496 1106
f 498 977 1106
f 1108 273 272
f 1106 272 1476
f 272 1106 1108
f 1106 1476 494
f 487 433 476
f 484 476 399
f 476 484 487
f 433 892 476
f 893 896 894
f 665 896 433
f 892 433 893
f 893 433 896
f 433 436 665
f 759 1110 274
f 759 484 1110
f 271 274 1110
f 1110 1003 271
f 400 397 399
f 1110 484 399
f 476 400 399
f 786 1028 784
f 1028 786 734
f 782 784 1028
f 1028 847 782
f 734 733 1029
f 732 1029 733
f 734 1029 1028
f 663 599 661
f 599 663 665
f 597 436 845
f 665 597 599
f 845 436 1287
f 847 1028 845
f 597 845 1028
f 665 436 597
f 374 982 915
f 980 982 373
f 374 373 982
f 915 917 374
f 918 468 467
f 374 917 1190
f 467 1190 918
f 1190 917 918
f 1451 1449 1448
f 1449 1451 354
f 354 936 355
f 936 354 1451
f 1038 441 440
f 1322 440 439
f 1322 1477 1421
f 1322 1038 440
f 1322 439 1477
f 1113 1077 1079
f 1077 1421 1477
f 1079 1068 1113
f 1301 1113 1068
f 520 519 1421
f 1111 1113 1301
f 520 1077 1113
f 1077 520 1421
f 352 278 280
f 352 280 303
f 780 280 282
f 301 303 780
f 780 299 301
f 303 280 780
f 282 442 780
f 1141 437 282
f 440 442 282
f 472 780 470
f 442 1037 470
f 475 779 780
f 780 472 475
f 780 442 470
f 440 282 437
f 280 90 92
f 90 279 252
f 280 279 90
f 92 94 280
f 253 252 676
f 676 252 279
f 676 302 677
f 676 279 352
f 1139 1227 1478
f 1227 1139 281
f 1226 1478 1227
f 280 94 281
f 352 302 676
f 1227 281 94
f 1202 1481 1204
f 1201 1433 1202
f 1433 573 1202
f 996 571 107
f 107 571 573
f 573 1481 1202
f 771 1201 1206
f 771 1433 1201
f 1437 1430 1206
f 1206 1435 771
f 1433 107 573
f 107 1433 56
f 57 56 1433
f 1435 1206 1430
f 649 648 1213
f 1480 1482 843
f 649 1213 650
f 1244 1213 1480
f 650 1213 1244
f 1480 842 1242
f 1242 1244 1480
f 842 1480 843
f 1482 1284 843
f 599 843 886
f 599 598 109
f 661 599 886
f 599 109 843
f 598 110 109
f 110 598 1027
f 110 1027 1029
f 1029 1030 1158
f 1029 1158 110
f 886 843 1284
