OFF
729 1454 0

85345.92888977369875647128 446424.986328464699909091 9.471000000000001861621968
85345.71316841298539657146 446425.5875521994312293828 9.81093263732603126925369
85345.38864452137204352766 446426.2764425709028728306 4.254245373427270493493779
85346.47497545674559660256 446454.9443517688196152449 15.47007927685147166130264
85338.98150411427195649594 446459.2552687075221911073 14.79695504980789522164741
85339.07332622043031733483 446452.3356689550564624369 13.59004690912461832397184
85448.70671727100852876902 446454.581287248816806823 3.875264015022817254418896
85451.18678216067200992256 446460.334263493015896529 8.825024464813111535477219
85448.69539027988503221422 446454.5969556696945801377 12.06420844648976320456768
85345.16505864473583642393 446470.3117631401983089745 2.475527924772549237530939
85345.63002550364763010293 446470.6838664439273998141 4.6598484511759110660023
85347.05899164725269656628 446471.8274383192183449864 3.327103037307066468741823
85392.74831986534991301596 446471.0989022601279430091 15.14403220151949014393722
85395.30803971466957591474 446463.1532113910070620477 15.12127285360393713631311
85398.6577092302031815052 446469.4528993013082072139 15.10824143027863186716786
85431.1524828940600855276 446477.0385197193245403469 18.04258979207545010581271
85437.93044436228228732944 446479.9292415903182700276 18.04401044943502796513712
85434.60750131249369587749 446485.1782471268670633435 18.05110533476394607532711
85435.97949023195542395115 446475.0927646173513494432 18.42831029174448076446424
85366.21691493983962573111 446441.5273308158502914011 19.07162172290364665627749
85358.38391705325921066105 446439.8325827564112842083 16.71719886934221932506262
85361.64715425908798351884 446432.780149598722346127 17.13645530049082665868809
85446.13613240106496959925 446470.8488189452909864485 14.16386805757423772433867
85448.03247316805936861783 446467.9673160885577090085 17.36781945313192920821166
85448.02083532200776971877 446467.9885832263389602304 13.94818636884572882195243
85398.24556215749180410057 446442.9073915988556109369 13.27825802303933500070343
85392.77901580426259897649 446441.8738565035746432841 15.12025130840096664996963
85397.51886021700920537114 446433.3822436875780113041 12.11338650681373607653768
85423.05059013215941376984 446482.6626625822973437607 -1.062293660687182228485881
85422.45437404827680438757 446479.9274628136190585792 -1.062293660687179563950622
85419.70531770886736921966 446479.3988035321817733347 -1.062293660687179119861412
85437.03244851055205799639 446475.68739284947514534 -1.062293660687190222091658
85444.28554797585820779204 446476.9227267180685885251 -1.007580389738189419190917
85437.7826993906928692013 446470.4535492885042913258 -1.062293660687179563950622
85339.2059336671227356419 446441.1855351575068198144 6.124785385397515824479342
85338.23108434399182442576 446443.536303155415225774 4.06083320717830353885347
85340.23253203053900506347 446438.7099786564358510077 2.755562153734001817895205
85392.96849783578363712877 446431.4597348974202759564 0.9851122829286199644727162
85393.03126776979479473084 446431.5953390476061031222 -1.054620479737525595709258
85398.07766364981944207102 446433.7169093374395743012 -1.060838298805172996708279
85440.46717637091933283955 446486.1403833520598709583 -1.006691344825032086163219
85442.40679502114653587341 446481.5434395623160526156 1.107556905558853888038584
85442.35995269093837123364 446481.5246801105095073581 -1.025439252186719052417629
85412.75550779483455698937 446442.2764615647029131651 -1.062293660687178231682992
85411.94445236549654509872 446446.054076626431196928 -1.062293660687180230084437
85418.41677348956000059843 446445.1112462716409936547 -1.062293660687176455326153
85385.20665450672095175833 446438.0858841738663613796 -1.062293660687191998448498
85387.48434471013024449348 446435.0006125858053565025 -1.062293660687180452129041
85384.23559406390995718539 446432.9628705330542288721 -1.062293660687179785995227
85449.27465481264516711235 446464.9675897764973342419 8.8202966974818313161677
85450.23594487886293791234 446462.6475660934811457992 3.911664401969864535146826
85448.0486360632348805666 446467.9283708454458974302 3.791803979636583665779881
85389.74089666162035427988 446465.7641762389102950692 15.12163855910097431944905
85379.6027976710902294144 446430.5897766328416764736 -1.054521592079646241657542
85381.03420333446410950273 446433.4691947384853847325 -1.062293660687179119861412
85375.33236158466024789959 446428.7683365404955111444 9.849454805841613591610439
85373.27237517987668979913 446427.7667233429383486509 9.471000000000000085265128
85374.61471705554868094623 446428.3383960833889432251 5.073809926951891924318261
85382.65324987517669796944 446431.7896192677435465157 6.849200690736325647378635
85388.03634289775800425559 446429.4142115883878432214 6.430267333260331064082038
85387.87262744293548166752 446429.7345702681923285127 9.749644129590642194216343
85444.32394456157635431737 446452.7598055167472921312 8.017027116934601238540381
85451.15419289485726039857 446460.2286104568047448993 3.897994220014183941458441
85446.0038842532376293093 446472.8628762242733500898 5.999390150514591013575227
85447.54421112334239296615 446469.1457304726354777813 8.16900656104169797799841
85433.87362916710844729096 446448.4254565077135339379 5.329665559378599759554618
85436.19061480113305151463 446449.3864441916230134666 -0.02167935663994902117934771
85440.85537301229487638921 446451.3211886818171478808 3.048435748070572159917901
85425.47508402095991186798 446444.9482237974880263209 12.04746847717956725887234
85427.57794469798682257533 446452.199193605687469244 15.06980777388992009946378
85423.64635583989729639143 446450.7551779619534499943 16.37211062640086822739249
85428.24018177668040152639 446458.899931608175393194 -1.062293660687175123058523
85433.2952711914258543402 446451.2529784622020088136 -1.062293660687179119861412
85426.74453761863696854562 446451.5898769107297994196 -1.062293660687181784396671
85388.08100271213334053755 446476.7544546878198161721 15.79995552866316366191768
85388.23596822352556046098 446485.3469208547030575573 15.08836202638289591959619
85383.25646272368612699211 446483.2165291729033924639 15.12551537978617055557606
85361.15291481484018731862 446426.5287852769251912832 9.793771624628963223813116
85366.71057120658224448562 446431.441214517573826015 13.89818367612397764787602
85412.08668890524131711572 446457.4760148813365958631 -1.062293660687184670976535
85418.03966260490415152162 446460.2601874953834339976 -1.062293660687146257259883
85416.4025683465733891353 446453.8954851925955154002 -1.062293660687146257259883
85418.24112116883043199778 446441.9417530984501354396 0.3772118815314243756020574
85413.64115356847469229251 446440.170535703597124666 -1.060642845030186354193802
85419.06791972173959948123 446442.4145887480117380619 -1.059569945853341188524155
85434.23842045472702011466 446448.5785565288388170302 12.02303076119006597366479
85433.24691829553921706975 446455.0179522669641301036 15.78824161671470704959575
85448.67703956628974992782 446459.2849019740242511034 12.33370375789631090412968
85444.78211653095786459744 446459.3665414497372694314 15.15659719400954941193049
85449.40748259016254451126 446462.6375356900389306247 17.11129066503614026828473
85378.34289549151435494423 446446.5640516899875365198 19.08146369781957218947355
85370.96988162529305554926 446443.6376141079817898571 18.99821710420611609038133
85377.2063923061650712043 446438.0918244034401141107 19.066180345625127756648
85375.82936080095532815903 446428.8598851099377498031 1.766856704416447820804592
85373.26674719866423401982 446427.7952301422483287752 -1.002146542495791603499811
85346.25704752157616894692 446429.8961097347200848162 13.0752448152147380255883
85344.7135410632035927847 446427.9708345576655119658 9.798197986651402402458189
85346.83325809350935742259 446428.6485924848821014166 13.10013297187722791647957
85384.42369442849303595722 446452.8185678484733216465 -1.062293660687146257259883
85380.46495772407797630876 446460.856730814790353179 -1.062293660687146257259883
85388.55902328317461069673 446457.013585892622359097 -1.062293660687163132649857
85346.89858626997738610953 446425.0592509869020432234 9.818473564476587256422135
85382.6870973612240049988 446447.1897711961646564305 -1.062293660687206653392423
85376.78968761021678801626 446449.1620789291337132454 -1.062293660687146257259883
85368.51395110577868763357 446434.3562370295403525233 19.0136314710531415528294
85389.43065068240684922785 446436.43746568588539958 -1.062293660687180896218251
85391.31853382216650061309 446434.9246699232026003301 -1.062293660687183782798115
85370.48044925533758942038 446427.4752529514371417463 4.179614980644751121019453
85373.2763105684716720134 446427.7674337899079546332 4.117794662671638405981867
85348.94536726332444231957 446433.9128634714870713651 -1.062293660687179341906017
85347.17360351726529188454 446429.0000582230277359486 -1.062293660687177343504572
85343.51110736899136099964 446430.9193396010086871684 -1.019614597579937331772726
85344.63093918580852914602 446462.7895125129725784063 16.11760668753193925795131
85352.26892156845133285969 446425.5821128678508102894 -0.956582636370943650838683
85348.98124719143379479647 446425.2329369977815076709 3.699805432280206307638082
85345.97995809106214437634 446424.9448432198842056096 -0.9311549198447158781632993
85354.66128887493687216192 446435.2655020813690498471 -1.062293660687176455326153
85357.00117342396697495133 446431.4438879985245876014 -1.062293660687178897816807
85354.6085884133935905993 446432.6060996074811555445 -1.062293660687178897816807
85349.61590713859186507761 446425.3530787251656875014 9.827123911262296118707127
85355.38457178995304275304 446425.9580628297990188003 9.828090298166143767844005
85349.05042021488770842552 446425.2401515805977396667 9.471000000000000085265128
85336.26249286641541402787 446448.2833976413239724934 9.471000000000003637978807
85335.14710424495569895953 446450.9730644589872099459 5.47844588620041506032976
85337.03226443483436014503 446446.4271575785242021084 5.031467796887011623141461
85343.46777836341061629355 446430.9084514211281202734 2.241718561861520520039903
85340.98373753852501977235 446436.9044220510986633599 -0.9398195253276162564048946
85341.83750645157124381512 446434.8397164354682900012 2.701967485705390359385092
85341.04710639013501349837 446436.7457003920571878552 5.195553004762675897154622
85340.06625283842731732875 446439.1316125398152507842 9.767224157522381489116015
85377.05735567670490127057 446442.9493666896014474332 -1.062293660687182228485881
85371.8139379102794919163 446438.2396329454495571554 -1.06229366068718578119956
85371.56322992898640222847 446444.1512390091666020453 -1.062293660687146257259883
85377.15929687659081537277 446491.247285719437059015 9.010853407019800087596195
85376.38081677653826773167 446490.9243720602244138718 6.529315483189812141517905
85373.25505666715616825968 446489.5522148848976939917 12.1605412800733230227479
85338.35267290665069594979 446464.6730862995027564466 -1.062274311340879018317196
85345.68196697457460686564 446460.6677368562668561935 -1.062293660687180452129041
85339.04707832618441898376 446457.2356597910402342677 -1.062293660687189778002448
85357.49888551268668379635 446426.1213065399788320065 0.8635587876501615856028593
85357.79051685455488041043 446426.1517229995806701481 6.479086079453857394128136
85399.91775634324585553259 446500.6768770348862744868 12.07008995845794174783805
85396.58683220816601533443 446493.4206790503230877221 15.08190263233559136324402
85403.73279244120931252837 446495.6462549043353646994 15.10169036848447809973095
85350.59038590025738812983 446430.0331401461735367775 14.56554289869340301777356
85344.25375972739129792899 446434.7990506961359642446 13.12043835143997583259079
85381.83232648558623623103 446435.7844922943622805178 12.7936875531408542627787
85381.33378049719613045454 446437.3542531902203336358 15.49651563060687031736506
85379.72078289320052135736 446434.8565851187449879944 12.71382293033713573038312
85381.99804188817506656051 446431.5743730841786600649 9.824328177072708001560386
85387.76448378944769501686 446484.8089831810211762786 -1.062293660687146257259883
85389.82168184050533454865 446479.4734016275033354759 -1.062293660687180008039832
85383.98542550216370727867 446480.2875419343472458422 -1.06229366068718356075351
85365.66365994726947974414 446435.4715779006364755332 -1.062293660687184226887325
85374.61402088571048807353 446433.2993470766814425588 -1.062293660687179341906017
85367.86288756850990466774 446428.5205280465888790786 -1.062293660687178897816807
85373.92923419472936075181 446466.9860030485433526337 -1.062293660687242402573816
85372.45803515517036430538 446461.6247771139023825526 -1.062293660687174456924708
85400.32362690397712867707 446434.5103339900961145759 2.440036123182079741411599
85334.04468670743517577648 446453.6318774258252233267 9.731938324658608863160225
85332.58971931161067914218 446457.2140518338419497013 9.813599216930649404844189
85333.78132169191667344421 446454.2665354001801460981 6.167158189747870444819
85335.09516592510044574738 446457.4877499228459782898 13.16391715658695460433592
85393.41145379346562549472 446431.6436307166586630046 7.104720784553541612638128
85399.3210373419860843569 446434.0945022270316258073 6.827979271639161851226163
85377.88652340575936250389 446429.7430969391134567559 5.146943790893136139175112
85377.51034308981616050005 446429.6665323087363503873 9.835956838936970925146852
85348.91405746251984965056 446451.7063178265234455466 -1.062293660687169349898795
85347.34670297022967133671 446448.4935933111701160669 -1.062293660687178453727597
85343.78707573513383977115 446448.8210881403647363186 -1.062293660687171792389449
85346.00260522437747567892 446424.9959336792235262692 9.830659753037988224377841
85357.44363925025390926749 446427.0624557588016614318 -1.062293660687179785995227
85357.53272125871444586664 446426.1377848712727427483 -0.9744484054124096239490882
85349.41477410207153297961 446428.9032809371710754931 13.64710958760995040961461
85354.60328409032081253827 446458.8217997641768306494 -1.062293660687168017631166
85439.73361262766411527991 446482.6225312650203704834 -1.062293660687178897816807
85436.43360691421548835933 446485.2567703220993280411 -1.062293660687178675772202
85387.24969883006997406483 446440.6497580233844928443 16.64712671713692060393441
85387.64706623970414511859 446439.9535351923550479114 15.46895289350746693912697
85404.36111542805156204849 446440.2462883196421898901 -1.062293660687179341906017
85410.09462397461174987257 446443.6810432587517425418 -1.062293660687179563950622
85408.23675097686646040529 446437.9046710982220247388 -1.055442155017952243767354
85359.93323068437166512012 446434.7295789000345394015 -1.062293660687146257259883
85361.05683397920802235603 446440.3975501146633177996 -1.062293660687175123058523
85429.40510748114320449531 446468.3092687214375473559 18.42080702409050019241477
85421.96371180748974438757 446469.7420529862283729017 18.59156212321816425969701
85424.16483948123641312122 446466.0932498534093610942 18.37596759238437371664077
85384.80278696455934550613 446436.6151867268490605056 12.16147930469791660357259
85388.14987105570617131889 446430.1733166587073355913 9.781048178097503154049264
85357.15740698114677798003 446461.7761432762490585446 19.07551168339332292589461
85349.75975788115465547889 446465.6741777836577966809 17.522959783580290604732
85351.17881321342429146171 446459.1539466137764975429 16.90005691456920899895522
85344.33761904112179763615 446449.2460819720290601254 14.47218417793178524277664
85349.13979848047893028706 446448.6072777538211084902 15.47729336571183011983521
85377.99120532626693602651 446487.1659401487559080124 12.17821636508549509869681
85382.2793325051898136735 446489.6362678786972537637 13.76029325000312830695748
85379.54021685512270778418 446492.2037382090929895639 12.1185523947798667876441
85358.70325622452946845442 446448.920534925302490592 -1.062293660687179341906017
85355.45607599960931111127 446449.1348324675345793366 -1.062293660687178675772202
85355.3563075115525862202 446452.3875465801684185863 -1.062293660687180674173646
85383.60581313321017660201 446440.7414187829708680511 19.05254732132100059516233
85352.00887274892011191696 446429.2245203565107658505 14.27715592435034253071535
85343.45079017725947778672 446430.9494170179823413491 9.471000000000000085265128
85337.98837355941941495985 446444.1215800095233134925 0.8460420077253197890243541
85336.67835943792306352407 446447.6650342422071844339 -1.062290153030180261950477
85357.95559198908449616283 446446.3993576785433106124 17.22762203021257931823129
85363.5526949371414957568 446448.4342894279398024082 19.06901013560754876152714
85353.08007185664610005915 446476.5399687995668500662 -1.046284009281298610360977
85359.39325197583821136504 446479.0828537555644288659 -1.061751624072089672523589
85360.5777703943895176053 446475.2962758796638809144 -1.062293660687179563950622
85339.33699487370904535055 446452.085455402615480125 -1.062293660687174234880104
85433.27126784107531420887 446461.4605334119405597448 17.97152933313379108426489
85428.42997918601031415164 446463.2238665837794542313 17.99259716515491902555368
85426.76345771001069806516 446458.5099256907706148922 18.30763357166300409062387
85343.84481432934990152717 446430.0942530474276281893 9.813248821385721853971518
85389.47990964785276446491 446449.7963486667140386999 -1.062293660687146257259883
85387.58062263108149636537 446444.5915264791692607105 -1.062293660687185115065745
85368.76598912588087841868 446427.3297780212014913559 9.800783456180370833976667
85365.01609626426943577826 446426.9053338515805080533 5.899669728771976373593589
85350.73153855912096332759 446438.8204488536575809121 -1.062293660687178231682992
85341.87684333468496333808 446434.8001138055697083473 9.79410643498587774047337
85354.02015494232182390988 446430.9322251161211170256 15.37838302799282885757748
85351.00584352829901035875 446437.82800921710440889 14.89790288195307432772552
85386.28968175749469082803 446443.5663390888948924839 16.46846166555706503231704
85389.14511557377409189939 446448.6047176173306070268 15.13228669581217111783644
85381.98944219684926792979 446448.0703523634583689272 19.07895632484365577852259
85396.09741504795965738595 446451.9262143112136982381 15.6201555369091291680661
85397.55764322819595690817 446456.9584747255430556834 15.12087725237623914154028
85391.99072183812677394599 446457.631766897568013519 15.13631878933478525084411
85360.40179767116205766797 446455.1078021400608122349 19.05738210722501690952413
85338.15922730340389534831 446443.7095804275013506413 6.893047297935725126194484
85374.28491043392568826675 446456.3740917441318742931 -1.06229366068718444893193
85370.59375517170701641589 446449.6910976264625787735 -1.062293660687146257259883
85369.80633109538757707924 446457.7590117457439191639 -1.062293660687179341906017
85363.11301776033360511065 446446.9772802585503086448 -1.062293660687179341906017
85366.80377486385987140238 446441.1549909741734154522 -1.062293660687146257259883
85353.94132690128753893077 446476.9821128736366517842 9.739994986486342654075088
85354.56902707564586307853 446472.8962504990049637854 13.11339460712669691133669
85356.78443328457069583237 446473.1905677384347654879 13.82802054854692919150239
85381.48208805777539964765 446493.0403801330830901861 1.313725312108622533813218
85377.98922141373623162508 446491.5915385387488640845 1.743470849293636826260467
85378.61385205444821622223 446491.8506354197743348777 5.517423887323853470832091
85379.60133003142254892737 446436.3764513321220874786 -1.062293660687176677370758
85373.25349271101003978401 446468.435126258060336113 19.04736877287817975457074
85370.41817064613860566169 446475.3729530088603496552 19.01962796566092350758481
85367.4412095074076205492 446466.0522064831457100809 19.06345418088274357160117
85371.73290344397537410259 446459.2798330768710002303 -1.062293660687179563950622
85369.70882331419852562249 446460.6682415771647356451 -1.062293660687178675772202
85338.83856538162217475474 446442.2624438356142491102 -1.041861013608300190469436
85379.54507780229323543608 446430.4551723282784223557 1.516638599363251405094388
85388.02842769958078861237 446429.4108366391737945378 4.03895405020584430388908
85373.26347733415605034679 446427.7996883289888501167 9.800403003858717099205933
85369.60781739524099975824 446431.0425021168193779886 13.29026202667233036436301
85390.68099896344938315451 446435.9782419078983366489 9.851333806398631764977836
85394.13893910376646090299 446455.5153103303164243698 -1.062293660687146257259883
85393.06389554589986801147 446451.6338575957925058901 -1.062293660687179785995227
85430.0421798404713626951 446484.2096219946397468448 -1.062293660687179563950622
85422.00627824415278155357 446489.7467872814740985632 -1.062293660687180452129041
85429.44875783490715548396 446491.9481080029509030282 -1.062293660687183338708905
85392.99747781219775788486 446443.4274194725439883769 -1.062293660687166019229721
85391.88882031978573650122 446437.5986276151379570365 -1.062293660687180452129041
85389.4785581853793701157 446438.8562171489465981722 -1.062293660687182006441276
85391.38740573184622917324 446430.8039019568241201341 4.198016874846955737154985
85398.09617306131985969841 446443.1780059417942538857 15.1054673830100743003868
85398.10077354365785140544 446444.5895944840740412474 15.75092202037210142862023
85402.11724235136352945119 446435.2542498474940657616 1.144667380841022374937666
85394.35522979669622145593 446438.7421831600368022919 -1.062293660687179785995227
85399.30034040262398775667 446441.1331598101533018053 -1.062293660687178453727597
85400.02618460646772291511 446438.8762816255330108106 -1.062293660687178675772202
85425.9460497294639935717 446480.5989320484804920852 -1.062293660687179563950622
85435.81081956496927887201 446455.2269883601111359894 -1.062293660687179563950622
85342.96050244319485500455 446432.2161565337446518242 9.809216292364373757095564
85348.48687537685327697545 446472.8873008576920256019 9.847914124436833560594096
85345.93903227122791577131 446470.9311581311048939824 6.889035040492297312653136
85344.74472783695091493428 446469.9179378688568249345 9.832055081715010302900737
85362.1469625496247317642 446474.9426149330101907253 14.52970616886889665408944
85363.59561421582475304604 446472.572021275176666677 19.01024034402983531322207
85351.82730106804228853434 446444.4579776678583584726 15.69094453279726941730132
85345.55317225068574771285 446441.674521974113304168 14.04407558828545887763539
85371.92358845379203557968 446451.8771557339350692928 19.79587397201927245760089
85368.90471202223852742463 446457.9667311356170102954 20.00324609983147183811525
85364.65599895862396806479 446448.8905931334011256695 19.06830219149223637487012
85388.01525578874861821532 446429.4494839239050634205 -1.016188675805980601296596
85441.45778356640948913991 446451.5958804540568962693 12.0751721873091248937726
85440.75659821007866412401 446451.2802210698719136417 7.032522239536786123892398
85402.83218544935516547412 446439.2945764277246780694 13.78295239229517221701826
85362.78379421100544277579 446426.6739420954836532474 -0.934503998240917677087225
85362.46339782298309728503 446429.5347125586704351008 -1.062293660687179563950622
85351.68232903679017908871 446468.067000000097323209 -1.062293660687188889824029
85357.56418517662677913904 446460.1738986137206666172 -1.062293660687180230084437
85356.8720503561053192243 446470.0292471888824366033 19.35785834432969920726464
85417.10030953724344726652 446490.0680963462218642235 -1.062293660687177787593782
85414.33660291647538542747 446486.4222248518490232527 -1.062293660687178897816807
85412.27707714190182741731 446490.5074184608529321849 -1.062293660687172236478659
85408.17635679942031856626 446504.0386136971064843237 12.13673359563876630318191
85408.75797351560322567821 446497.8805916064302437007 15.11522047440829474851398
85413.35855858727882150561 446505.0695082452148199081 12.15583836733219058601208
85375.29440172495378647 446490.4737269380711950362 4.18731713244332581780327
85375.54173702454136218876 446490.5649235329474322498 -0.9688791170700219446132451
85378.07030332191789057106 446435.2071634677122347057 14.28831282644440570095412
85410.02585843918495811522 446445.6421537610585801303 -1.062293660687180230084437
85412.48892009905830491334 446449.8792225519428029656 -1.062293660687176011236943
85427.43237648905778769404 446445.7538972190232016146 0.484942413939731531424826
85423.72390822754823602736 446444.2158253230154514313 -0.9174698167588858366272575
85427.3437683781812665984 446445.7342988980817608535 -0.9806937889333782187861743
85425.07179921810165978968 446444.7748295670025981963 3.88419296180298090348515
85434.24875544615497346967 446472.6176668658154085279 -1.062293660687179563950622
85426.52701322983193676919 446470.9728970627766102552 -1.062293660687259944097605
85433.0383247654972365126 446476.5123303960426710546 -1.062293660687178675772202
85414.49800669822434429079 446506.7353880092850886285 3.722833705323007613685604
85417.3045815687655704096 446507.8995556757436133921 2.061464821386763457411462
85417.85794038769381586462 446507.9763363495585508645 -1.062118871416357190895496
85411.22286191166494973004 446505.3758947944734245539 -0.930215397834106005880983
85400.85116865902091376483 446461.508161508128978312 15.11290712617193321420928
85444.95482763019390404224 446453.0796321312082000077 -1.028227081967113765159638
85409.64022877931711263955 446463.7261443136958405375 -1.062293660687172902612474
85408.80250792016158811748 446467.4996750877471640706 -1.062293660687179563950622
85415.54243819354451261461 446466.9219554938608780503 -1.062293660687175789192338
85404.34857883864606264979 446455.3843843495124019682 15.61315338106350836255842
85402.3401042987679829821 446445.8596910625929012895 16.25532295658068804300456
85376.49860713213274721056 446476.2849711937597021461 15.13790640866633196992552
85378.69325373620085883886 446481.4065630104159936309 15.09075070539330987173798
85372.93636416715162340552 446478.4318836134625598788 15.87299210666424009730235
85341.50838175574608612806 446467.3854007026529870927 7.720042722653315259151441
85338.16186221795214805752 446464.6424674123991280794 9.837982005911593219593669
85343.52968172932742163539 446469.0030050185741856694 5.318491329648201926261208
85341.32096761823049746454 446467.2354170674807392061 4.865093381400995120600328
85401.61252976644027512521 446472.3712753190193325281 -1.062293660687179341906017
85406.59217491632443852723 446470.6707535719033330679 -1.062293660687209762016892
85401.14025527426565531641 446468.223810881027020514 -1.062293660687180674173646
85364.5522763098415452987 446486.0125237077591009438 9.471000000000000085265128
85361.43063049574266187847 446479.9793457626947201788 9.85623760851321684128834
85364.59850462016765959561 446485.9560785573557950556 9.851717450498227890420821
85367.30927129072370007634 446477.6236927889403887093 13.70337246623742188944561
85365.83269330913026351482 446485.5093484207172878087 9.870512532747534706345505
85363.60442863059870433062 446480.9648518803878687322 4.253436447616280702277436
85359.22633246910118032247 446479.1607606039615347981 -0.5464538658548350191779264
85354.39658831288397777826 446477.1705577900866046548 4.234262958432184476009752
85334.33070519134344067425 446453.3287252447917126119 -1.062293650365006891789221
85334.10423523219651542604 446453.4878562765661627054 2.565647641670341094766172
85415.43451981483667623252 446471.8144255508668720722 16.05576920991231304469693
85408.60260397786623798311 446472.7785749236936680973 15.09890335394131710700094
85408.09004960942547768354 446465.4489672125200740993 15.09641028678258045658822
85352.89380981339490972459 446451.6326723789679817855 16.58798186878485836359687
85371.74362585372000467032 446432.3284085550694726408 13.89952318943709030918399
85371.54816960639436729252 446433.6761675335001200438 16.07387216327206402866068
85354.96891514203161932528 446468.7858502083108760417 18.9106298226070919099584
85361.62426301147206686437 446463.6302102267509326339 19.07377942293969752540761
85352.07841639529215171933 446433.4267264505615457892 -1.062293660687179341906017
85366.66724161650927271694 446427.0775444086757488549 1.568012412565606528147555
85361.28058971681457478553 446426.5157293489901348948 3.346760458410334315715318
85352.74162191039067693055 446430.3263257488724775612 -1.062293660687175345103128
85349.72117132057610433549 446466.5006330930045805871 16.53650581403739749930537
85352.67708713044703472406 446469.8506154835340566933 15.18488716475719435550218
85360.40518700273241847754 446461.7625506101758219302 -1.062293660687179341906017
85366.90173342330672312528 446461.4385482200304977596 -1.062293660687180674173646
85359.81205800916359294206 446459.4886273563024587929 -1.062293660687178675772202
85397.20039773723692633212 446447.2185551191796548665 -1.062293660687174234880104
85401.90558276281808502972 446444.072370245005004108 -1.062293660687182450530486
85397.49365405349817592651 446442.6681625412311404943 -1.062293660687179563950622
85393.149342256088857539 446487.334779087221249938 15.10611664654260977158629
85391.25983112085668835789 446493.0609734503668732941 13.81790449981505908283452
85406.51329026812163647264 446447.5697231742087751627 16.27118954807175654764251
85377.81602888189081568271 446433.6898141175042837858 -1.062293660687180008039832
85412.11332654763828031719 446439.4002029594266787171 4.825036339464546131239331
85412.90024843141145538539 446439.7265848874230869114 2.148980127843810983279127
85418.37255879947042558342 446441.9962678707670420408 4.689370008764372599330272
85403.51319991909258533269 446435.8799039277364499867 12.12644586692843162722966
85403.99420024578284937888 446436.0327326283440925181 8.238242201617058668716709
85405.19666218104248400778 446436.5314630016218870878 9.877214213938222187039173
85408.08312430139631032944 446445.9186807415680959821 -1.062293660687178231682992
85429.46170732646714895964 446505.6096958600683137774 16.41705090074787065645978
85427.06732155264762695879 446505.11956304736668244 15.66078491897868119053783
85427.51868387052672915161 446503.7588865365833044052 18.49648652368262702339052
85434.43869028863264247775 446500.775906336959451437 14.64632163513789286923839
85433.41713330830680206418 446503.2351291042868979275 14.70999155168910732527365
85433.97348881977086421102 446501.8921355809434317052 17.88349661578892124680351
85367.9015510222379816696 446465.346483431349042803 17.86160478821522445969094
85361.95068061372148804367 446463.4898845324642024934 18.7981126543673227047293
85431.07073310727719217539 446508.8376379313413053751 8.715936689423818606314853
85432.36068269077804870903 446505.7879588563228026032 8.819825552934098311652633
85431.76583711821876931936 446507.2267113716807216406 1.763257464855874756537446
85441.67185073863947764039 446482.0360867608687840402 17.02099671428154437080593
85436.21523582280497066677 446485.224863812152761966 17.23877347029652185028681
85413.48494925182603765279 446506.3151716325082816184 9.471000000000000085265128
85417.76391890925879124552 446507.9978819037205539644 12.13924707533521996083437
85419.39872554890462197363 446508.7682069046422839165 6.191615799726474023145784
85381.52801782599999569356 446477.2794794753426685929 15.12754495725835113262292
85385.68956791450909804553 446475.7623760970891453326 15.79856795523917689649807
85357.84690606525691691786 446478.5910289441235363483 9.742814932872216004966504
85370.50119045909377746284 446488.485125834820792079 4.812328959863982014155681
85364.55394579247513320297 446485.9981738170608878136 -0.9726665203618128918705565
85404.42878658472909592092 446458.0823847013525664806 -1.062293660687179785995227
85431.05137382872635498643 446508.8485381554928608239 1.034290551373415523173094
85424.68344888198771513999 446504.1548645938164554536 15.62301840152484722068493
85372.04429586419428233057 446474.2332060906337574124 -1.062293660687146257259883
85377.03364316187798976898 446471.662164525012485683 -1.062293660687183782798115
85437.04326468076033052057 446494.2595502280164510012 17.97800285287659249888748
85438.01886464323615655303 446492.135315480874851346 10.623385628673524649912
85436.14421848897472955287 446496.6599620946799404919 9.471000000000000085265128
85425.27852416336827445775 446511.2037260725046508014 9.471000000000000085265128
85425.27061933602089993656 446511.1589069563779048622 12.10274728502052710155112
85423.09692711656680330634 446501.8759332182817161083 18.5190024699533992702527
85430.12838478264166042209 446496.1527727599022909999 17.98095591184264208095556
85441.84137559978989884257 446481.5305683165788650513 17.97748410959811948828246
85442.56141528327134437859 446479.7259822146152146161 17.76785321057708699754585
85353.03918244283704552799 446476.610291532299015671 7.237460850529974898392993
85437.10102312912931665778 446494.3505141601781360805 -0.9168526064265604125225195
85436.80141055927379056811 446489.4631908428855240345 -1.062293660687150254062772
85393.4422683065349701792 446484.1283530959044583142 -1.062293660687180230084437
85392.99199083246639929712 446488.9927792636444792151 -1.062293660687177787593782
85397.79605508175154682249 446488.1060107290977612138 -1.062293660687179119861412
85407.65691160029382444918 446503.8977007631910964847 5.462191283880414971463324
85433.04898388482979498804 446493.2137976987869478762 17.98799833524892477498724
85428.05138546874513849616 446491.5698492922238074243 17.98415268459676141787895
85431.59758329132455401123 446489.2750729903928004205 17.99359693311415497873895
85359.03578221479256171733 446457.2705369932809844613 -1.062293660687178009638387
85362.2122477283701300621 446453.8117044374812394381 -1.062293660687172902612474
85392.4832981027866480872 446481.8512649681069888175 15.11640150996900366919817
85392.38783550189691595733 446478.4791240431950427592 15.79616528589584412145541
85441.72006642346968874335 446483.1852856395416893065 8.754648573405331646313243
85438.23682337311038281769 446491.609209577611181885 4.485833242968849887688521
85421.91044355215854011476 446454.9492019115132279694 -1.062293660687183782798115
85430.09647862431302201003 446447.0176160329720005393 12.15196899438154964911973
85402.30265012485324405134 446467.1047192068072035909 15.10867989122456656048143
85403.57185760675929486752 446471.5159676515613682568 15.09324351146700671222334
85423.45110734894115012139 446493.6015072758309543133 17.9733723456908585092151
85426.98464110968052409589 446498.9632588590029627085 17.99591692863019432024885
85446.37550922964874189347 446471.9660638470086269081 1.63283992256564469691682
85445.77098560411832295358 446473.424911621434148401 3.572952818866660607000085
85425.42359579502954147756 446511.1483451094245538116 4.21101284606866066440034
85417.51432097215729299933 446494.8935672239167615771 -1.062293660687184670976535
85422.08292190915381070226 446499.5903797434293664992 -1.062293660687178231682992
85424.15694106648152228445 446496.1574358477373607457 -1.062293660687181784396671
85428.43868830599240027368 446506.139106026035733521 14.98553744869755810498191
85353.03216508484911173582 446476.6061651527415961027 9.728884586076665286213938
85355.47239553261897526681 446471.7453357554040849209 15.6035397146243361987672
85374.97120952988916542381 446480.7267357305390760303 13.80064293629339999824879
85386.25766743640997447073 446495.0212911570561118424 0.5500597607588829651703577
85391.49617677845526486635 446497.1941555081866681576 -0.9183814503761353886801544
85386.3260075520520331338 446494.9010209162370301783 -1.06188383823329068889052
85422.86354926053900271654 446480.2832579069654457271 18.04463661480494351962989
85422.60578834429907146841 446478.9711596581037156284 16.29304971777435540047918
85427.39178132085362449288 446486.5883653378114104271 17.99013817686851979260609
85422.13041699267341755331 446485.3716942592873238027 18.53129088949250302675864
85353.02954528103873599321 446476.6045714573701843619 2.762477266300825018419118
85352.67456229979870840907 446471.4948405869654379785 12.98758891604172127642869
85352.16222178784664720297 446475.8891589625854976475 9.794785177058699332519609
85332.22462651212117634714 446459.9529130021692253649 9.471000000000003637978807
85332.21048822365992236882 446459.933979768306016922 4.615542486984375081249254
85331.86763042297388892621 446458.9295292941969819367 9.471000000000001861621968
85332.83829396122018806636 446460.4469098206027410924 4.759850353295370872785952
85338.15577974784537218511 446443.7186234479304403067 9.730283881050372229992718
85339.69527244294295087457 446445.4552179352613165975 13.06574694719402707221434
85349.47621738640009425581 446472.7920812623342499137 -1.062293660687179119861412
85349.01992309751221910119 446473.3886462580994702876 -0.9568051873915650595847637
85375.23442568397149443626 446486.0035279709845781326 12.18021632291538480785675
85449.4181255678558954969 446462.6624523996142670512 13.79601168262620980442534
85448.98172918635827954859 446464.0469980087946169078 12.74200551791921753874703
85374.73639237345196306705 446436.9339970350847579539 19.01620343077918562357809
85376.39740164874820038676 446436.9795596787589602172 18.04081051012421710311173
85336.57580909652460832149 446453.0592165010166354477 13.08197592445817569739575
85337.70097718802571762353 446459.6002225318807177246 13.91276377818732434832327
85338.25779422458435874432 446464.7840231293812394142 0.6943807999528955887669213
85337.92911948593973647803 446464.5209915741579607129 9.470999999999998308908289
85385.7399236430210294202 446455.6401746298070065677 15.13463785084736379360493
85385.534828082614694722 446462.958867590525187552 15.22520522841243462153216
85381.82566582613799255341 446458.1882773212855681777 15.73721699244430638486847
85380.09031522908480837941 446460.1513471501530148089 14.43612081999039986612843
85381.19697023631306365132 446492.9185939634335227311 -0.9448795649305313792964967
85359.02528839997830800712 446468.1191198727465234697 -1.062293660687146257259883
85354.92970903942477889359 446445.9234401413123123348 -1.062293660687163798783672
85356.96163705539947841316 446447.2392281928914599121 -1.062293660687179341906017
85379.2202992294478463009 446454.9685014889691956341 18.96455619249501722833884
85370.90410363338014576584 446458.798892873921431601 19.99725849060358484621247
85341.65623496052285190672 446443.3374753196258097887 -1.062293660687179785995227
85337.29242107886238954961 446454.553623981773853302 -1.062293660687179785995227
85331.95293905268772505224 446458.931169792776927352 -1.047451516470605969999497
85350.82633044781687203795 446469.7366285655298270285 13.38556742643991981367435
85411.62870770957670174539 446470.1367009675595909357 -1.062293660687178453727597
85408.08372476178919896483 446475.2920438888249918818 -1.062293660687180230084437
85412.93272003816673532128 446475.030720441194716841 -1.062293660687178231682992
85379.34990793255565222353 446472.5705685477587394416 15.13652143239608705016508
85405.62803376928786747158 446436.7103776989970356226 7.119197464534471997410492
85397.05512910416291560978 446469.0818602005019783974 -1.062293660687172680567869
85396.89390648055996280164 446474.7000591898686252534 -1.062293660687178009638387
85414.94365303457016125321 446451.114973348390776664 16.31646865502687049342967
85415.11322613517404533923 446447.1011699972441419959 15.09102362924609330718795
85419.20093006014940328896 446448.7319412794895470142 15.05099215718859184676148
85368.02810768806375563145 446427.2290811356506310403 -0.9663560327527682680681664
85373.82033911284815985709 446433.7346413973136804998 14.72905599404739085400706
85373.65204869337321724743 446432.5251810732879675925 12.99469658179212139259562
85371.8953037363535258919 446435.7438124323380179703 19.0010098602000851997218
85443.57080945646157488227 446460.5433453089790418744 -1.062293660687179563950622
85451.15361022799334023148 446460.3364101028419099748 -1.006993840529290862306766
85448.7316578065074281767 446454.618914638296701014 -0.9678128908817930087238324
85420.14021567124291323125 446461.4793529171729460359 16.09629640993515309332906
85413.01648832643695641309 446463.3191293373238295317 16.1132814959845305224917
85413.35604855007841251791 446459.0990066087688319385 15.62019648217768441611497
85374.09762630717887077481 446435.256319862324744463 16.86971756958541845961008
85366.45109947459422983229 446479.2122721265768632293 -1.062293660687179563950622
85371.687874761046259664 446484.3356734015978872776 -1.062293660687179341906017
85415.67541752295801416039 446440.8776076984941028059 7.865686079210672865258402
85381.09718731482280418277 446469.5763843086897395551 15.81298699550555753035042
85385.44585252529941499233 446471.3647900650976225734 15.80600443903944096746272
85418.42872311902465298772 446442.0938206561258994043 12.13674845223502707369789
85447.16659643246384803206 446462.2104037640965543687 17.96033102928544167298242
85449.08289958571549504995 446462.8516957465908490121 17.93183368023489165921092
85420.53268562999437563121 446473.825587026949506253 -1.062293660687177121459968
85390.83899450219178106636 446496.9216262933914549649 9.471000000000000085265128
85385.85554760268132667989 446494.7683609831146895885 12.15793059218235327989532
85392.90740651049418374896 446497.7141358233639039099 12.14127083892443081936108
85439.60961810621665790677 446487.3756880482542328537 14.21430435003510162061957
85438.08606586660607717931 446491.9698284777696244419 17.22093915270242803217116
85410.9084564812364988029 446496.732051692612003535 18.44877264787117354671864
85417.71761750681616831571 446491.5357957793166860938 17.96736354939866586732933
85417.24239969548943918198 446498.7785890963859856129 18.16222968079672384078549
85416.86967900417221244425 446499.3191030745510943234 18.45272326353354941375073
85398.06476802102406509221 446489.3337547947885468602 15.10675488597963322945361
85386.6556126241193851456 446463.4498509631375782192 -1.062293660687146257259883
85396.39167300338158383965 446460.8355998151819221675 -1.062293660687146257259883
85424.76414224307518452406 446445.2153772300807759166 -1.062293660687179563950622
85403.63140545458009000868 446477.2305737238493748009 -1.062293660687179119861412
85345.02797314205963630229 446470.1070858268649317324 -1.042427623872721920150752
85347.90789919288363307714 446472.5068013665149919689 0.9974559678962779951660877
85424.02253731897508259863 446477.6084855930530466139 -1.062293660687180008039832
85429.40564448770601302385 446506.4353593057603575289 14.76365213840353440843955
85429.63882690435275435448 446506.3046502688666805625 15.48233893612099087988554
85431.90204558832920156419 446505.5054708980605937541 14.40767998098174551557804
85444.88756335459765978158 446475.5568027967819944024 2.607381051366305158012437
85433.6541538621240761131 446502.6695674481452442706 2.444626386921911365135429
85433.61223812997923232615 446502.7707468681619502604 -0.9155653516841421035721282
85432.26198382166330702603 446506.0190442749299108982 -0.9480807580664298850336991
85434.87222593625483568758 446499.7295516591402702034 8.53686171276931737850191
85420.91650219864095561206 446472.9487147855688817799 18.01954909079138289484945
85418.67036625683249440044 446467.112422295322176069 16.08523638394881771773726
85441.3191014384210575372 446468.2591491215280257165 18.00852595692775182101286
85436.52362440983415581286 446471.27756528026657179 18.47403569840715320538038
85438.00514701619977131486 446463.7348906483384780586 17.97123969003200372185347
85443.07442857626301702112 446464.7485270396573469043 17.97638615354397728651747
85409.56704865086067002267 446485.7049785091076046228 15.88038305073820843915655
85413.22192426901892758906 446489.4571992654819041491 17.74793059377028470180448
85405.81930682383244857192 446488.4688993784948252141 15.09618166609094913610534
85425.57466054751421324909 446474.7756271518301218748 18.0465632376708065010007
85417.20440672972472384572 446483.2734358858433552086 18.44806088608621053026582
85406.9070052124880021438 446480.8380465462687425315 16.59664721400969256137614
85403.62474182443111203611 446483.2070037142257206142 15.79781689454176785147865
85401.90461614614468999207 446478.7965836180374026299 16.60717815475249636847366
85435.4892911318747792393 446489.8678763707284815609 17.99787443864678238014676
85442.84702516952529549599 446478.9916204738547094166 15.95143635468048870507118
85431.89240511175012215972 446505.4554573681089095771 18.57068186964917089198934
85409.51967200623766984791 446438.3682955409749411047 12.11962733196256181145145
85379.97118693514494225383 446466.8794165942235849798 -1.062293660687180008039832
85383.16897671807964798063 446472.0068617761717177927 -1.062293660687186003244165
85430.54449575844046194106 446466.5714287478476762772 -1.062293660687178675772202
85427.44844145432580262423 446466.9262343436130322516 -1.062293660687180452129041
85448.43695192216546274722 446466.9864430950838141143 13.43855972718092850470839
85397.87963182348175905645 446477.0654372397693805397 16.62334454265826266805561
85447.7075383456249255687 446468.6228698852355591953 -1.024391562955315304606074
85442.50078981982369441539 446468.067000000097323209 -1.062293660687192886626917
85382.14852123700256925076 446485.8866932277451269329 -1.062293660687178897816807
85381.2178069775109179318 446466.3501738265622407198 15.15253772158431821992508
85372.75745170640584547073 446436.3470352293225005269 19.03125737270991990612856
85428.91545551089802756906 446464.6486687269061803818 -1.062293660687179785995227
85427.22225596336647868156 446462.7821603506454266608 -1.062293660687180452129041
85403.65688047881121747196 446435.8928266501752659678 2.778736369215228041440469
85410.64356953476089984179 446438.7906098884996026754 9.470999999999998308908289
85348.3424818315397715196 446472.8545888108783401549 5.303728559318603430483563
85351.20528505020774900913 446475.1456306665786541998 2.00623158268393408931729
85366.23615177560714073479 446469.5066421495284885168 -1.06229366068717046012182
85400.93479241411841940135 446482.4289112707483582199 15.37335339445560755677889
85397.63575812248745933175 446480.7400566097348928452 15.79450790736433951622075
85400.6327760685671819374 446481.9637041806126944721 15.79879575900579702363302
85370.08135256319656036794 446488.289170818985439837 7.379617700195191254408655
85346.01846558124816510826 446424.9304775043274275959 4.301703159427847644735721
85380.27964960735698696226 446461.360746156657114625 15.96454825425949408668203
85376.23305844044080004096 446461.6543154452810995281 19.01093550046593705360465
85419.23062546314031351358 446485.7185758305713534355 -1.062293660687178897816807
85415.91001978062558919191 446482.1263183572445996106 -1.062293660687114504881379
85416.96088477046578191221 446487.3033534077694639564 -1.062293660687176677370758
85391.52700000000186264515 446468.067000000097323209 -1.062293660687170682166425
85398.75969457064638845623 446464.7948992174351587892 -1.062293660687178675772202
85420.33383403488551266491 446453.3870335100800730288 16.33073967900289602539488
85400.47497029215446673334 446500.9186304591130465269 5.029966115564974415974575
85403.87802111587370745838 446502.3302164379856549203 8.905849982765149164265495
85399.09813619079068303108 446452.551081176265142858 -1.062293660687179563950622
85404.09949698077980428934 446502.4208298771409317851 -0.9325043059227440256364616
85404.16184033472381997854 446502.4479446914047002792 3.378421475641170790282786
85413.16718096897238865495 446439.8372972187353298068 -0.6445011879815505384527796
85410.36079335579415783286 446438.6733262846828438342 1.575514961481810027876804
85415.70730007100792136043 446476.2443302810424938798 16.44862868867307525988508
85421.75273263569397386163 446443.3982210716349072754 8.192467520758821564186292
85410.13173607777571305633 446482.1837420808151364326 16.5851786100863591855159
85412.97615023638354614377 446482.0572653734707273543 16.33237402386418679611779
85413.86653855838812887669 446489.9295937329879961908 17.96262679503857739859995
85394.45981187596044037491 446498.4235418690950609744 8.726375743066032697470291
85442.79328112617076840252 446477.9159476022468879819 18.48121083631250627377085
85421.03360035263176541775 446503.4615014835726469755 -1.062293660687183116664301
85412.59775949794857297093 446499.6363983594346791506 -1.062293660687170682166425
85408.87094734616403002292 446457.1901338431052863598 15.62308626351750184824141
85409.24263533494377043098 446452.8399165475857444108 15.1046568321807317403227
85406.59130373733933083713 446437.1099013567436486483 4.523578054448609719884189
85382.21602257333870511502 446474.3411642984137870371 -1.062293660687179119861412
85384.01901074651686940342 446476.10364082723390311 -1.062293660687182228485881
85403.10682801435177680105 446435.6653489999007433653 -0.9274415245130135376783187
85423.82012477843090891838 446464.9113330470281653106 -1.0622936606872281917191
85437.75670114341482985765 446450.1766322233597747982 12.14559394143127057930087
85435.76650283753406256437 446456.0408081114874221385 15.76057469703201086019817
85430.27259614276408683509 446455.237970690184738487 17.96938490983438541093165
85401.66948283738747704774 446441.2198377909371629357 -1.062293660687180008039832
85432.77974906850431580096 446468.7428526826552115381 -1.062293660687203322723349
85342.19560718479624483734 446467.9353729159338399768 2.228159114040189958672045
85382.03362855003797449172 446493.2691592098562978208 6.505720611228683836202435
85388.87169336587248835713 446491.443653440335765481 13.8192564071723182905771
85387.31169452599715441465 446491.542616127640940249 13.80445380757738682575564
85396.98492998916481155902 446499.4627269583288580179 -0.9608824406860950739783789
85394.67093262936396058649 446498.5111147884745150805 4.742873120197508285400545
85389.77237420073652174324 446496.4791920364950783551 4.273768321420109650432551
85392.20891828071034979075 446497.4898708768305368721 6.588246935381062208136882
85423.24123418614908587188 446501.9821339405025355518 -1.062293660687179563950622
85425.77071867637278046459 446501.1673433636897243559 -1.062293660687176899415363
85419.14764598810870666057 446502.7414353887434117496 14.294679536277101306041
85382.06804190420371014625 446476.2960001635365188122 -1.062293660687179341906017
85381.51089496597705874592 446478.1755928925704210997 -1.062293660687179119861412
85377.75135372964723501354 446479.4920755440834909678 -1.062293660687175789192338
85379.90397527256573084742 446475.3469113571918569505 -1.062293660687178453727597
85390.54687658057082444429 446473.4812280783080495894 15.79833960384308078062077
85369.52916250465204939246 446483.0818127868114970624 9.864127672835696358788482
85333.21003089369332883507 446460.7442720838007517159 -0.9195082316750134987515253
85332.2143874863104429096 446459.9398606371250934899 -0.9142803131556422879810953
85388.73895669520425144583 446472.987731296569108963 -1.062293660687176011236943
85344.69015175694948993623 446445.3143567525548860431 -1.062293660687179563950622
85347.18611032929038628936 446446.5943564475164748728 -1.062293660687179341906017
85348.30155057480442337692 446445.0488197383820079267 -1.062293660687173124657079
85335.09553853867691941559 446462.1967292024637572467 9.832344037667535729951851
85345.44932591114775277674 446447.3795128303463570774 -1.062293660687179785995227
85341.97510931562283076346 446440.1284015168785117567 13.09829539756944249973003
85332.25674900771991815418 446459.9135240909527055919 9.837838715265021960476588
85331.86681027729355264455 446458.9185512056574225426 4.099969691123061643622805
85332.67450224363710731268 446456.9355383698712103069 3.967610209573224189227858
85339.98762185104715172201 446454.7053428736398927867 -1.062293660687179341906017
85370.04160100893932394683 446488.2936649913317523897 -0.9284102387566003367069811
85331.90544412695453502238 446458.8826094850082881749 9.822209963149745703958615
85439.60947096202289685607 446487.3760735571850091219 17.83902836913897260728845
85439.40636017276847269386 446487.1513109596562571824 18.05056942267153985426376
85365.61239308332733344287 446486.4080426986329257488 9.786311233264797238007304
85405.82996163687494117767 446451.3977487325319088995 -1.062293660687180008039832
85395.6868411631730850786 446490.1357362122507765889 -1.062293660687179119861412
85395.69369092413398902863 446493.0629399926401674747 -1.062293660687191332314683
85418.55593765903904568404 446508.4186183647834695876 4.005138626972662763137123
85422.65735318968654610217 446510.119886126194614917 2.758418648517496851724218
85403.34743740032718051225 446464.3089016572921536863 -1.062293660687179341906017
85419.34085485448304098099 446508.7442021321621723473 -0.609201555750322087945392
85404.70310349372448399663 446500.9946971889003179967 -1.062293660687179563950622
85393.47408536144939716905 446491.6045240440871566534 -1.062293660687180452129041
85405.00340912997489795089 446502.7970275506377220154 6.201323642379034772886826
85418.48598989224410615861 446478.4858737168251536787 18.04531145961877669492424
85429.16603013797430321574 446477.7925181807950139046 -1.062293660687175123058523
85435.07050711815827526152 446499.2509925294434651732 5.125352161620298829802778
85422.37859742640284821391 446507.7822531551355496049 -1.062293660687180452129041
85435.35662657419743482023 446498.5604324039886705577 0.6177943477075815703614126
85435.4298127964575542137 446480.6151441757683642209 -1.062293660687180674173646
85437.7819364863244118169 446490.7836057277163490653 17.99707449218286825498581
85404.48353624102310277522 446501.2167851401609368622 12.16172832376630807971196
85420.001373028673697263 446509.0181851673405617476 2.226256325241779521206809
85411.2743158497178228572 446479.8990174534264951944 -1.062293660687182450530486
85431.16767495279782451689 446463.518055702093988657 -1.062293660687175345103128
85438.32455116297933273017 446456.917434662114828825 15.48790840252407896571185
85439.82045416836626827717 446459.2122203664621338248 17.99588691965107045689365
85435.02221098032896406949 446457.2759651898522861302 18.01452575094980090852914
85439.46309819541056640446 446450.7437319500604644418 9.874074037402243320116213
85428.30464320638566277921 446454.518555517599452287 18.01141775360766672520185
85431.53896937063836958259 446473.218634720251429826 18.39294620348097453188529
85411.42810865939827635884 446443.3365956966881640255 13.81204720910068139971827
85437.88592689535289537162 446450.2334133504773490131 -1.061487481252844311541139
85403.1411907705623889342 446435.6789403614238835871 6.359923321557906739087684
85441.74786278924148064107 446458.3961479521240107715 15.58449344706451533681957
85425.27804490855487529188 446511.147459939238615334 -1.028919284466629946450666
85421.58837574743665754795 446509.5566250961273908615 -1.057450197318729134821069
85436.53757362852047663182 446462.4877767809084616601 -1.062293660687179341906017
85419.80086981222848407924 446442.5886708929319866002 6.736960521585946715106274
85417.65235569818469230086 446441.6975580729194916785 6.933832821672986312933062
85448.374952467973344028 446466.9801531755947507918 17.94874378762078137583558
85444.28555891165160574019 446466.3930430567124858499 17.97289200025177535735565
85449.25564378927811048925 446463.2005942024989053607 17.99283250329678196521854
85434.33492420287802815437 446448.7342382129281759262 -1.056853153375810316916272
85431.04515388298023026437 446508.8050060603418387473 -1.016740684258107485504752
85406.57992841863597277552 446460.7277893453720025718 15.10514377763496796092113
85407.18924379088275600225 446479.3198424449656158686 -1.062293660687181784396671
85406.58742683431773912162 446465.0281767592532560229 -1.062293660687179785995227
85423.4128653050574939698 446465.8332656270358711481 18.34372525015917432256174
85398.8132348665822064504 446467.2985496895853430033 -1.062293660687178453727597
85407.60766721167601644993 446483.5054433872574009001 -1.062293660687178231682992
85438.78348979626025538892 446450.4618591184262186289 7.745664860233491211261025
85430.76407657419622410089 446447.2890820461907424033 -1.062144190064977289367221
85404.25764404883375391364 446490.1696307012462057173 -1.062293660687178009638387
85403.120286190664046444 446487.3037352938554249704 -1.062293660687179785995227
85393.03928601271763909608 446447.6063536103465594351 -1.062293660687178675772202
85418.66990451017045415938 446442.1195943003986030817 8.991849706105208284157015
85436.82478865954908542335 446449.6494726965902373195 8.503928437828832898048859
85399.21254475289606489241 446482.9113365538651123643 -1.062293660687179119861412
85405.94515435407811310142 446492.1597765646874904633 -1.062293660687178231682992
85407.3331655412184773013 446489.9502977726515382528 -1.062293660687176677370758
85412.95856825057126116008 446506.0889667005394585431 12.05411003567383509960109
85403.53849485104728955775 446493.1679241850506514311 -1.062293660687178009638387
85444.63473632362729404122 446461.1638464280986227095 17.96002086953384946355072
85445.06107039279595483094 446453.2077293350012041628 12.14076460501084397947125
85440.33453905809437856078 446486.5455707042128778994 1.665727746788041141456915
85438.80636517616221681237 446490.2344026700593531132 -0.3823245926685494566754642
85444.41638607463391963392 446475.6518009636783972383 15.1133098461550012814314
85444.29545305784267839044 446476.9856944929342716932 6.303973192872442510292785
85444.40061099101149011403 446475.6736239157617092133 16.69459222163804668070952
85444.60407598744495771825 446474.6427242403151467443 18.53397940954839384630759
85445.21761080168653279543 446469.7405104550998657942 18.01369514689903894577583
85446.40371966574457474053 446470.1853279954520985484 17.98983071865397675992426
85445.83553778096393216401 446473.262604053015820682 8.835951578459074085003522
85443.31565627630334347486 446466.3637456996366381645 17.70005263956695884530745
85448.00770630186889320612 446467.9809094630763866007 17.89236448423347169978115
85435.34462541752145625651 446498.5566241061897017062 -0.9736932224645610256530404
85433.65062878401658963412 446501.7937745217932388186 -1.062293660687180230084437
85429.69678641027712728828 446497.6617130863596685231 -1.062293660687174678969313
85404.06782897781522478908 446502.4052451733150519431 12.04592278544544292628871
85393.28911010816227644682 446495.3572785997530445457 -1.062293660687176899415363
85395.32429167168447747827 446449.6062185632763430476 -1.062293660687179341906017
85374.03266056340362410992 446457.5751321256393566728 14.33539027323597281338152
85390.76453024992952123284 446493.1956831047427840531 -1.062293660687175123058523
85391.05159117763105314225 446495.4154744797851890326 -1.062293660687180008039832
85438.6382776981481583789 446490.3521353050018660724 -1.057325351834135451767338
85433.44421166775282472372 446483.473901488701812923 -1.062293660687177787593782
3  0 1 2
3  3 4 5
3  6 7 8
3  9 10 11
3  12 13 14
3  15 16 17
3  18 16 15
3  19 20 21
3  22 23 24
3  25 26 27
3  28 29 30
3  31 32 33
3  34 35 36
3  37 38 39
3  40 41 42
3  43 44 45
3  46 47 48
3  49 50 51
3  12 52 13
3  48 53 54
3  55 56 57
3  58 59 60
3  8 61 6
3  50 7 62
3  63 64 51
3  65 66 67
3  68 69 70
3  71 72 73
3  74 75 76
3  77 78 21
3  79 80 81
3  82 83 84
3  84 83 43
3  69 85 86
3  87 88 8
3  89 88 87
3  90 91 92
3  53 93 94
3  95 96 97
3  98 99 100
3  96 1 101
3  96 101 97
3  102 103 98
3  21 104 19
3  47 105 106
3  107 94 108
3  2 1 96
3  109 110 111
3  4 3 112
3  113 114 115
3  116 117 118
3  113 115 110
3  119 114 120
3  119 121 114
3  122 123 124
3  115 111 110
3  125 111 115
3  126 111 127
3  126 109 111
3  128 129 34
3  130 131 132
3  133 134 135
3  127 111 125
3  136 137 138
3  114 139 140
3  141 142 143
3  95 144 145
3  146 147 148
3  146 148 149
3  150 151 152
3  107 108 56
3  153 154 155
3  127 36 126
3  156 99 157
3  37 39 158
3  159 160 161
3  162 160 159
3  163 37 164
3  55 165 166
3  167 168 169
3  101 170 0
3  1 170 101
3  1 0 170
3  171 172 113
3  102 130 103
3  140 120 114
3  95 97 173
3  94 155 154
3  137 174 167
3  40 175 176
3  26 177 178
3  179 180 181
3  153 182 183
3  184 185 186
3  187 149 188
3  189 190 191
3  192 193 3
3  194 195 196
3  197 198 199
3  200 92 147
3  200 90 92
3  173 119 201
3  125 2 202
3  203 124 204
3  20 19 205
3  19 206 205
3  207 208 209
3  169 204 210
3  211 212 213
3  96 95 214
3  215 216 102
3  217 218 107
3  125 115 2
3  48 54 46
3  163 60 59
3  60 163 188
3  27 163 164
3  219 183 116
3  129 128 220
3  36 128 34
3  144 221 222
3  223 224 225
3  226 227 228
3  205 206 229
3  217 78 77
3  124 35 230
3  34 230 35
3  27 188 163
3  231 232 233
3  127 128 36
3  95 173 144
3  183 234 235
3  236 237 238
3  239 240 241
3  242 130 46
3  243 244 245
3  157 246 247
3  35 203 248
3  35 248 36
3  223 26 224
3  249 58 165
3  249 250 58
3  173 97 119
3  46 54 242
3  217 251 252
3  56 251 217
3  26 253 27
3  27 253 188
3  254 255 100
3  228 227 13
3  256 257 258
3  259 260 261
3  163 262 37
3  100 255 215
3  263 264 26
3  84 43 45
3  158 39 265
3  266 267 268
3  46 130 102
3  59 250 262
3  28 256 269
3  59 262 163
3  26 264 224
3  270 72 71
3  220 271 145
3  250 59 58
3  272 273 274
3  275 238 276
3  277 193 278
3  220 128 271
3  279 280 281
3  249 93 53
3  282 249 53
3  281 206 19
3  61 283 284
3  223 200 177
3  223 177 26
3  27 285 25
3  242 131 130
3  155 286 287
3  266 260 259
3  174 288 289
3  276 238 290
3  114 113 139
3  21 78 104
3  78 217 252
3  78 252 104
3  291 292 293
3  128 127 271
3  294 295 296
3  297 240 298
3  215 98 100
3  299 148 147
3  58 166 165
3  153 155 287
3  183 235 153
3  44 300 301
3  302 303 304
3  305 303 302
3  306 307 308
3  309 310 311
3  312 309 311
3  200 225 90
3  313 13 227
3  301 81 45
3  6 67 314
3  315 316 317
3  318 226 319
3  320 321 322
3  320 322 244
3  20 205 277
3  274 323 324
3  325 326 323
3  327 328 329
3  122 124 230
3  330 331 332
3  333 334 331
3  335 336 337
3  323 274 325
3  147 177 200
3  178 177 147
3  149 148 166
3  57 165 55
3  217 77 218
3  139 172 286
3  338 204 339
3  338 210 204
3  182 287 117
3  90 279 91
3  202 271 125
3  127 125 271
3  271 95 145
3  101 119 97
3  121 119 101
3  281 229 206
3  149 166 58
3  201 221 144
3  278 222 277
3  340 341 342
3  343 193 277
3  252 344 345
3  140 77 120
3  154 153 131
3  346 189 347
3  346 347 290
3  119 120 201
3  20 222 221
3  277 222 20
3  144 222 145
3  278 145 222
3  116 348 219
3  349 218 350
3  116 118 348
3  109 348 351
3  352 346 353
3  343 229 191
3  354 355 356
3  153 287 182
3  357 358 359
3  360 142 361
3  25 319 263
3  25 285 319
3  362 319 285
3  25 263 26
3  154 363 53
3  364 365 366
3  39 38 106
3  54 363 242
3  105 260 106
3  367 368 369
3  370 301 300
3  371 372 373
3  374 375 376
3  377 245 378
3  379 380 381
3  16 382 383
3  384 385 386
3  281 280 229
3  387 388 76
3  389 236 238
3  330 390 391
3  79 392 315
3  381 393 379
3  394 373 372
3  395 396 156
3  397 398 399
3  400 385 401
3  402 373 394
3  397 399 374
3  385 400 386
3  397 376 403
3  374 376 397
3  404 405 382
3  404 16 405
3  16 404 382
3  335 330 391
3  337 406 389
3  258 407 408
3  409 410 411
3  394 401 385
3  412 384 309
3  413 414 415
3  199 416 417
3  418 74 419
3  418 75 74
3  398 420 421
3  422 45 81
3  423 305 65
3  14 424 425
3  426 427 402
3  428 429 63
3  74 76 388
3  400 379 430
3  431 432 433
3  371 434 372
3  406 435 236
3  353 346 436
3  322 321 437
3  438 439 440
3  378 347 189
3  378 189 229
3  441 442 15
3  443 441 15
3  444 441 443
3  445 406 337
3  377 243 245
3  109 219 348
3  322 333 244
3  389 275 331
3  272 446 447
3  281 91 279
3  448 449 450
3  451 449 448
3  122 452 453
3  352 274 112
3  454 455 207
3  4 112 324
3  321 456 437
3  7 457 87
3  457 7 458
3  232 234 417
3  235 234 132
3  232 132 234
3  92 459 460
3  91 459 92
3  204 124 123
3  236 435 237
3  162 159 461
3  461 462 162
3  463 451 464
3  325 274 273
3  275 333 331
3  465 466 467
3  467 466 468
3  414 443 415
3  238 275 389
3  239 440 469
3  239 438 440
3  470 354 289
3  452 230 34
3  183 471 472
3  192 278 193
3  473 474 279
3  475 126 248
3  400 430 386
3  138 476 477
3  465 228 466
3  147 92 460
3  272 478 446
3  479 480 481
3  332 331 334
3  243 482 320
3  244 243 320
3  483 369 368
3  417 356 355
3  323 464 324
3  475 219 126
3  327 484 485
3  225 224 465
3  137 288 174
3  473 90 225
3  473 279 90
3  252 345 104
3  486 487 488
3  384 412 294
3  253 187 188
3  281 19 91
3  36 248 126
3  489 286 155
3  349 286 489
3  99 231 157
3  490 345 344
3  490 491 299
3  55 491 251
3  251 56 55
3  171 286 172
3  131 153 235
3  345 492 104
3  493 494 495
3  58 60 149
3  188 149 60
3  57 108 93
3  187 146 149
3  147 146 187
3  496 497 498
3  460 299 147
3  466 228 52
3  465 467 473
3  233 247 246
3  499 490 299
3  500 391 501
3  364 366 502
3  93 108 94
3  482 503 504
3  318 227 226
3  488 505 68
3  488 68 70
3  506 89 507
3  508 481 30
3  499 492 345
3  509 510 511
3  394 372 401
3  376 427 403
3  443 15 17
3  512 398 513
3  514 515 516
3  514 516 517
3  258 257 433
3  6 62 7
3  414 413 403
3  142 360 518
3  519 520 100
3  521 73 304
3  402 427 373
3  186 212 184
3  522 327 485
3  523 455 454
3  524 455 523
3  307 508 525
3  526 527 528
3  428 32 529
3  530 531 532
3  399 533 374
3  314 495 6
3  534 535 185
3  340 535 534
3  536 537 538
3  536 538 539
3  523 9 524
3  540 541 542
3  184 543 185
3  444 515 544
3  545 546 547
3  373 427 376
3  548 397 413
3  426 443 414
3  426 444 443
3  16 383 17
3  549 382 405
3  375 550 376
3  551 285 367
3  369 551 367
3  31 33 306
3  256 258 408
3  519 552 553
3  299 460 499
3  307 554 555
3  175 42 31
3  49 64 556
3  441 444 544
3  14 425 557
3  32 558 559
3  377 280 474
3  501 298 560
3  99 519 100
3  420 398 512
3  504 503 561
3  234 183 472
3  355 247 233
3  490 499 345
3  104 492 19
3  91 492 562
3  19 492 91
3  108 57 56
3  492 459 562
3  460 459 499
3  91 562 459
3  492 499 459
3  249 282 250
3  53 94 154
3  182 116 183
3  263 319 264
3  249 165 93
3  93 165 57
3  251 491 252
3  344 252 491
3  344 491 490
3  166 491 55
3  166 148 491
3  299 491 148
3  139 113 172
3  349 350 286
3  555 563 564
3  217 107 56
3  359 266 259
3  565 158 265
3  102 98 215
3  282 37 262
3  282 262 250
3  566 369 483
3  567 568 524
3  37 158 164
3  355 156 247
3  223 225 200
3  46 105 47
3  46 102 216
3  359 267 266
3  157 247 156
3  154 131 242
3  569 355 354
3  103 232 231
3  570 571 572
3  570 518 571
3  238 237 436
3  436 237 446
3  135 134 573
3  121 574 114
3  2 574 0
3  207 568 445
3  2 115 574
3  232 417 233
3  110 351 113
3  171 113 351
3  101 574 121
3  115 114 574
3  468 575 576
3  107 218 349
3  561 52 504
3  167 174 199
3  204 169 475
3  197 234 472
3  159 161 123
3  416 356 417
3  219 471 183
3  123 122 159
3  156 552 99
3  577 578 579
3  535 497 496
3  520 580 581
3  103 132 232
3  235 132 131
3  493 495 314
3  12 14 557
3  516 402 517
3  516 426 402
3  486 582 498
3  583 141 584
3  358 357 585
3  586 587 412
3  181 588 589
3  341 340 590
3  216 261 46
3  412 309 312
3  164 367 27
3  285 27 367
3  305 68 591
3  423 69 68
3  545 592 540
3  593 540 592
3  593 541 540
3  544 541 593
3  545 540 546
3  541 594 514
3  141 595 511
3  141 511 142
3  596 405 16
3  597 598 311
3  498 599 600
3  39 266 268
3  601 364 566
3  505 591 68
3  553 602 603
3  181 565 604
3  216 259 261
3  242 363 154
3  37 282 38
3  564 605 555
3  606 607 86
3  69 86 608
3  257 579 291
3  557 571 419
3  44 180 300
3  181 589 601
3  179 609 358
3  367 164 368
3  601 566 483
3  204 475 248
3  570 572 546
3  547 546 572
3  569 354 470
3  233 246 231
3  157 231 246
3  347 276 290
3  561 466 52
3  610 307 306
3  98 103 231
3  98 231 99
3  173 201 144
3  355 569 156
3  355 233 417
3  271 202 214
3  271 214 95
3  103 130 132
3  416 174 289
3  583 595 141
3  473 225 465
3  323 326 464
3  611 325 9
3  133 135 196
3  194 196 135
3  133 241 134
3  107 489 94
3  155 94 489
3  360 418 571
3  612 241 133
3  349 489 107
3  297 134 241
3  613 361 614
3  583 615 616
3  456 321 194
3  456 194 135
3  616 617 618
3  467 468 473
3  477 476 338
3  387 320 482
3  432 619 620
3  337 336 445
3  296 295 517
3  509 618 617
3  75 360 613
3  75 613 614
3  524 11 567
3  290 238 436
3  482 504 388
3  517 621 296
3  321 387 76
3  603 622 623
3  388 387 482
3  152 623 624
3  321 320 387
3  519 553 580
3  625 623 622
3  99 552 519
3  626 388 504
3  624 560 152
3  552 396 553
3  393 430 379
3  561 576 575
3  290 436 346
3  244 333 276
3  360 361 613
3  510 195 614
3  297 390 573
3  573 334 627
3  612 133 196
3  353 446 478
3  208 500 209
3  447 237 435
3  628 477 629
3  523 454 288
3  207 445 336
3  447 446 237
3  276 333 275
3  334 333 627
3  500 208 391
3  210 338 476
3  437 627 333
3  437 333 322
3  335 337 389
3  470 289 288
3  151 485 630
3  389 331 335
3  330 335 331
3  209 500 569
3  631 632 633
3  523 137 136
3  569 470 209
3  96 214 2
3  448 634 451
3  122 230 452
3  463 611 136
3  204 248 203
3  34 129 452
3  168 632 635
3  203 35 124
3  453 278 192
3  123 339 204
3  2 214 202
3  471 219 633
3  159 122 461
3  453 461 122
3  5 461 453
3  199 174 416
3  633 219 631
3  286 350 139
3  120 77 221
3  120 221 201
3  221 21 20
3  21 221 77
3  199 198 167
3  452 636 453
3  631 169 635
3  634 637 160
3  162 634 160
3  638 629 477
3  639 638 477
3  278 453 636
3  452 129 636
3  343 3 193
3  325 611 326
3  138 137 640
3  168 635 169
3  278 636 145
3  205 343 277
3  633 632 168
3  289 354 356
3  273 10 325
3  288 137 523
3  9 11 524
3  136 611 523
3  462 634 162
3  463 136 628
3  450 639 160
3  274 324 112
3  633 168 471
3  639 450 638
3  276 245 244
3  3 5 192
3  339 161 639
3  3 343 191
3  112 191 190
3  3 191 112
3  453 192 5
3  447 567 272
3  279 474 280
3  198 168 167
3  347 245 276
3  378 245 347
3  504 52 12
3  626 504 12
3  557 419 626
3  557 626 12
3  378 229 280
3  352 190 346
3  289 356 416
3  417 234 197
3  189 191 229
3  417 197 199
3  189 346 190
3  198 472 471
3  197 472 198
3  352 112 190
3  377 378 280
3  471 168 198
3  451 628 449
3  450 449 638
3  475 169 631
3  219 475 631
3  406 567 447
3  510 196 195
3  510 612 196
3  229 343 205
3  0 574 101
3  171 117 287
3  117 351 118
3  406 236 389
3  207 455 568
3  634 324 464
3  272 567 273
3  207 470 288
3  156 569 395
3  500 395 569
3  298 641 297
3  390 297 641
3  449 628 629
3  638 449 629
3  451 463 628
3  123 161 339
3  464 451 634
3  448 637 634
3  4 462 5
3  4 324 462
3  634 462 324
3  5 462 461
3  642 160 637
3  137 167 640
3  169 640 167
3  160 642 450
3  477 339 639
3  338 339 477
3  160 639 161
3  450 642 637
3  450 637 448
3  138 477 628
3  138 628 136
3  207 288 454
3  391 390 641
3  406 568 567
3  501 641 298
3  501 391 641
3  207 336 208
3  335 208 336
3  391 208 335
3  470 207 209
3  552 156 396
3  512 643 644
3  512 644 382
3  500 501 395
3  445 568 406
3  334 645 332
3  330 332 645
3  573 627 135
3  573 645 334
3  353 478 352
3  447 435 406
3  463 464 326
3  390 645 573
3  330 645 390
3  436 446 353
3  272 274 478
3  352 478 274
3  298 469 560
3  440 560 469
3  297 241 240
3  297 573 134
3  548 413 415
3  392 646 585
3  514 517 295
3  394 621 402
3  518 570 546
3  616 595 583
3  553 630 580
3  547 572 571
3  595 618 509
3  418 360 75
3  411 647 648
3  195 75 614
3  76 75 195
3  511 510 361
3  616 618 595
3  309 649 310
3  650 386 430
3  614 361 510
3  511 361 142
3  392 520 651
3  257 28 577
3  578 30 481
3  311 310 652
3  586 615 583
3  653 312 598
3  571 518 360
3  647 654 648
3  584 655 583
3  590 656 593
3  590 593 592
3  602 625 622
3  307 525 657
3  421 658 399
3  619 597 659
3  544 515 594
3  530 660 531
3  362 600 318
3  599 318 600
3  376 550 373
3  426 414 403
3  308 661 31
3  31 42 32
3  41 32 42
3  403 427 426
3  593 656 544
3  385 621 394
3  397 662 513
3  548 662 397
3  431 291 293
3  293 598 431
3  294 663 295
3  310 649 664
3  296 621 385
3  665 292 578
3  644 643 662
3  397 513 398
3  644 662 548
3  412 655 584
3  412 587 655
3  516 515 426
3  426 515 444
3  418 419 571
3  13 52 228
3  666 554 610
3  362 318 319
3  592 545 341
3  592 341 590
3  439 617 616
3  590 340 534
3  590 534 656
3  497 535 340
3  667 668 669
3  340 342 497
3  423 85 69
3  543 534 185
3  284 283 670
3  671 582 70
3  672 543 184
3  505 566 502
3  13 424 14
3  211 184 212
3  673 362 285
3  403 413 397
3  270 314 674
3  270 493 314
3  608 211 213
3  270 674 72
3  86 607 669
3  483 368 675
3  551 369 566
3  307 555 605
3  364 601 589
3  488 487 505
3  673 487 362
3  676 668 667
3  61 67 6
3  61 284 67
3  181 601 565
3  668 539 538
3  558 493 559
3  494 493 558
3  43 83 181
3  670 283 606
3  650 677 678
3  659 678 677
3  181 83 588
3  493 679 559
3  604 565 265
3  551 566 505
3  673 551 505
3  679 33 559
3  667 606 283
3  496 582 213
3  498 582 496
3  70 582 488
3  671 213 582
3  486 488 582
3  604 39 268
3  671 69 608
3  679 666 610
3  70 69 671
3  213 671 608
3  669 608 86
3  608 669 211
3  540 542 546
3  85 423 65
3  211 669 668
3  680 681 366
3  18 15 672
3  605 508 307
3  506 682 683
3  506 684 682
3  620 433 432
3  441 656 442
3  544 656 441
3  15 543 672
3  68 305 423
3  442 543 15
3  184 537 672
3  18 672 537
3  72 674 685
3  375 533 380
3  543 442 534
3  686 620 659
3  611 9 523
3  318 599 687
3  374 533 375
3  67 674 314
3  534 442 656
3  585 520 392
3  535 186 185
3  583 587 586
3  665 480 688
3  486 600 362
3  315 689 316
3  589 365 364
3  502 566 364
3  651 520 581
3  370 180 179
3  535 690 186
3  535 496 690
3  496 213 690
3  186 690 212
3  213 212 690
3  521 304 303
3  551 673 285
3  651 689 392
3  45 303 84
3  521 303 45
3  505 487 673
3  84 303 82
3  484 329 691
3  362 487 486
3  158 675 164
3  45 422 521
3  665 688 692
3  67 693 65
3  11 10 567
3  370 179 358
3  305 302 65
3  687 599 498
3  497 687 498
3  521 422 73
3  65 302 694
3  43 180 44
3  357 359 259
3  542 541 514
3  581 484 691
3  695 696 411
3  676 667 283
3  694 304 73
3  66 674 67
3  510 617 612
3  259 697 357
3  591 698 680
3  589 588 365
3  603 151 630
3  410 647 411
3  72 685 694
3  485 484 580
3  315 392 689
3  694 73 72
3  358 585 646
3  479 316 328
3  302 304 694
3  65 699 85
3  327 329 484
3  254 585 255
3  663 141 143
3  241 612 239
3  510 509 617
3  485 409 700
3  438 239 612
3  40 42 175
3  610 33 679
3  292 579 578
3  312 311 598
3  686 659 677
3  548 415 17
3  700 411 696
3  598 701 653
3  239 469 240
3  240 469 298
3  395 501 624
3  501 560 624
3  603 630 553
3  580 630 485
3  696 702 692
3  150 152 560
3  296 703 294
3  624 623 625
3  603 623 152
3  653 701 704
3  395 625 396
3  624 625 395
3  411 700 409
3  696 695 702
3  695 411 704
3  152 151 603
3  30 29 525
3  577 579 257
3  480 522 688
3  313 227 318
3  502 698 505
3  307 657 308
3  176 175 661
3  485 700 522
3  506 683 539
3  66 685 674
3  296 385 703
3  585 254 520
3  602 622 603
3  697 215 255
3  508 317 481
3  605 317 508
3  481 317 479
3  522 480 327
3  679 270 666
3  702 292 692
3  71 666 270
3  666 564 563
3  666 563 554
3  554 563 555
3  493 270 679
3  591 680 305
3  366 305 680
3  366 681 502
3  79 315 80
3  317 80 315
3  7 49 458
3  556 458 49
3  65 685 66
3  18 596 16
3  73 422 71
3  694 685 65
3  309 386 649
3  33 610 306
3  293 292 702
3  32 428 558
3  537 184 538
3  652 678 311
3  306 308 31
3  408 40 176
3  559 33 32
3  705 676 88
3  706 88 676
3  31 661 175
3  51 558 428
3  49 7 50
3  421 707 708
3  709 710 549
3  211 668 538
3  525 508 30
3  87 8 7
3  431 433 257
3  257 291 431
3  707 41 40
3  529 429 428
3  382 549 420
3  308 657 661
3  664 649 386
3  317 316 479
3  660 530 658
3  519 580 520
3  384 386 309
3  71 422 564
3  505 698 591
3  311 659 597
3  644 383 382
3  495 62 6
3  41 707 420
3  63 429 710
3  420 710 41
3  606 667 607
3  428 63 51
3  710 429 529
3  699 670 606
3  383 644 17
3  420 549 710
3  506 507 684
3  283 61 706
3  8 706 61
3  211 538 184
3  668 705 539
3  457 458 89
3  710 529 41
3  41 529 32
3  668 676 705
3  494 62 495
3  86 85 606
3  537 711 18
3  712 711 537
3  18 711 596
3  713 714 712
3  549 711 709
3  405 711 549
3  405 596 711
3  51 64 49
3  87 457 89
3  684 507 89
3  558 50 494
3  682 684 89
3  89 506 88
3  51 50 558
3  88 506 705
3  669 607 667
3  50 62 494
3  8 88 706
3  711 22 709
3  710 709 715
3  705 506 539
3  23 682 556
3  716 683 713
3  23 22 714
3  458 556 89
3  89 556 682
3  713 23 714
3  63 715 64
3  710 715 63
3  23 717 682
3  706 676 283
3  699 606 85
3  556 24 23
3  64 24 556
3  713 717 23
3  716 713 536
3  24 64 22
3  382 420 512
3  717 713 683
3  717 683 682
3  712 537 536
3  536 713 712
3  536 539 683
3  716 536 683
3  712 22 711
3  714 22 712
3  64 715 22
3  22 715 709
3  677 650 430
3  677 393 686
3  532 381 530
3  381 686 393
3  677 430 393
3  401 379 400
3  526 528 380
3  526 380 379
3  375 528 550
3  531 718 719
3  373 550 371
3  381 380 530
3  619 659 620
3  526 379 401
3  421 660 658
3  576 243 377
3  576 377 474
3  718 407 720
3  660 407 718
3  420 707 421
3  432 597 619
3  686 532 620
3  532 686 381
3  399 398 421
3  687 313 318
3  586 412 312
3  581 329 651
3  438 617 439
3  580 484 581
3  700 696 692
3  692 688 700
3  151 409 485
3  653 615 586
3  410 654 647
3  615 653 704
3  294 703 384
3  678 664 650
3  514 594 515
3  402 621 517
3  481 665 578
3  438 612 617
3  439 616 615
3  653 586 312
3  584 294 412
3  384 703 385
3  583 655 587
3  9 325 10
3  544 594 541
3  584 141 721
3  663 721 141
3  518 542 143
3  518 143 142
3  648 722 615
3  511 595 509
3  514 143 542
3  524 568 455
3  626 74 388
3  482 243 503
3  561 503 243
3  561 243 576
3  581 691 329
3  522 700 688
3  13 313 424
3  253 178 187
3  687 424 313
3  180 370 300
3  425 342 341
3  425 424 342
3  687 342 424
3  497 342 687
3  697 723 357
3  187 178 147
3  228 465 224
3  228 224 226
3  26 178 253
3  224 264 226
3  226 264 319
3  498 600 486
3  584 721 294
3  561 575 466
3  466 575 468
3  473 724 474
3  74 626 419
3  468 724 473
3  576 724 468
3  576 474 724
3  294 721 663
3  410 725 654
3  295 663 143
3  150 410 409
3  295 143 514
3  678 652 664
3  597 432 598
3  310 664 652
3  658 530 533
3  407 660 421
3  530 380 533
3  658 533 399
3  258 720 407
3  433 720 258
3  720 719 718
3  526 401 527
3  380 528 375
3  528 527 550
3  401 372 434
3  371 550 527
3  434 371 527
3  434 527 401
3  311 678 659
3  531 660 718
3  386 650 664
3  431 598 432
3  433 620 720
3  531 620 532
3  720 620 719
3  531 719 620
3  725 726 722
3  409 151 150
3  150 440 725
3  615 704 648
3  725 440 726
3  722 654 725
3  648 704 411
3  440 439 726
3  560 440 150
3  150 725 410
3  439 722 726
3  439 615 722
3  396 625 602
3  396 602 553
3  293 701 598
3  702 701 293
3  702 695 701
3  704 701 695
3  291 579 292
3  648 654 722
3  215 697 216
3  520 254 100
3  255 723 697
3  255 585 723
3  282 106 38
3  261 260 105
3  301 370 646
3  646 370 358
3  81 80 422
3  317 605 80
3  329 689 651
3  316 689 328
3  329 328 689
3  301 646 79
3  392 79 646
3  268 609 179
3  675 368 164
3  359 358 267
3  268 179 604
3  609 267 358
3  301 45 44
3  604 265 39
3  604 179 181
3  67 284 693
3  609 268 267
3  261 105 46
3  54 53 363
3  158 565 675
3  601 483 675
3  675 565 601
3  282 53 48
3  106 260 266
3  282 47 106
3  48 47 282
3  106 266 39
3  43 181 180
3  518 546 542
3  79 81 301
3  216 697 259
3  585 357 723
3  327 480 328
3  328 480 479
3  481 480 665
3  17 415 443
3  407 421 708
3  707 40 708
3  644 548 17
3  256 28 257
3  513 662 512
3  643 512 662
3  408 727 40
3  708 40 727
3  708 727 407
3  407 727 408
3  661 728 176
3  408 176 728
3  256 657 269
3  408 728 256
3  657 525 269
3  29 28 269
3  29 269 525
3  256 728 657
3  661 657 728
3  692 292 665
3  578 577 30
3  28 30 577
3  80 564 422
3  80 605 564
3  71 564 666
3  610 554 307
3  65 693 699
3  502 681 698
3  305 366 303
3  303 366 82
3  680 698 681
3  670 699 693
3  670 693 284
3  366 365 82
3  83 82 365
3  83 365 588
3  545 547 341
3  341 547 425
3  425 547 557
3  557 547 571
3  273 567 10
3  611 463 326
3  210 640 169
3  138 640 476
3  476 640 210
3  635 632 631
3  220 636 129
3  145 636 220
3  627 456 135
3  437 456 627
3  321 76 194
3  195 194 76
3  286 171 287
3  348 118 351
3  171 351 117
3  351 110 109
3  182 117 116
3  219 109 126
3  140 350 77
3  77 350 218
3  140 139 350

