OFF
738 1472 0

85338.92002097873773891479 446447.3382088499492965639 13.08014498642676315398603
85335.39079651210340671241 446450.4596741095301695168 9.811102486877656403407855
85336.12495064182439818978 446448.6150692671653814614 9.470999999999998308908289
85385.79174981002870481461 446437.0253778981859795749 12.15441184060165902280914
85390.97216871021373663098 446438.2640292479773052037 9.852497797754210751008941
85390.72543232007592450827 446439.1610753696877509356 12.32146560224083664536465
85390.56726360591710545123 446435.4722973398165777326 9.740787705922141270775683
85335.08207862173730973154 446457.458527559763751924 13.15327292159451211261967
85337.70928310179442632943 446459.6129861086956225336 13.90881690575175433366439
85332.47010666747519280761 446457.5061411131755448878 9.815603330015122196527955
85333.98373296245699748397 446453.8197397076874040067 9.791711703301315239400537
85426.7716737495647976175 446458.5097629911033436656 18.3084267070986612679917
85428.33362884937378112227 446454.4751708765397779644 17.99555909433492217885941
85437.36226160461956169456 446458.165820472699124366 17.96868919098068673179114
85451.15361022799334023148 446460.3364101028419099748 -1.006993840529290862306766
85448.30430946685373783112 446460.4535808433429338038 -1.062293660687178897816807
85447.59148013405501842499 446468.9069387495983392 -1.023000401045628393603693
85336.11950868672283831984 446454.1785997816477902234 13.06389954035774714213858
85401.06117711603292264044 446453.0213489453308284283 -1.06229366068718578119956
85404.70726017486595083028 446459.7171213991823606193 -1.062293660687146257259883
85410.53719248381094075739 446452.2019223709357902408 -1.062293660687146257259883
85401.56031759426696226001 446482.378456245525740087 15.78943898337691820188411
85404.21984110797347966582 446479.6665420359931886196 16.59987443036383325534189
85407.8686792163789505139 446481.1646252516657114029 16.58490219549294053535959
85444.0465159319865051657 446477.4890614000032655895 -1.012316363923604356500618
85442.50078981982369441539 446468.067000000097323209 -1.062293660687192886626917
85448.0486360632348805666 446467.9283708454458974302 3.791803979636583665779881
85428.98296751039742957801 446482.6695067531545646489 17.90781914119754603120782
85431.39350671018473803997 446483.66540632548276335 17.90618848961508291495193
85431.17401080545096192509 446484.3590148366638459265 18.00242458928033073561892
85434.84755653837055433542 446474.1993229635409079492 -1.062293660687179119861412
85434.69932802415860351175 446481.2759362119832076132 -1.062293660687180674173646
85445.52883326209848746657 446462.0403392256703227758 -1.062293660687187557556399
85446.09751338095520623028 446459.8143059083959087729 -1.062293660687180230084437
85344.87310756047372706234 446450.1557908065733499825 -1.062293660687176899415363
85342.67985166865400969982 446450.431831941707059741 -1.062293660687179119861412
85341.53667657492042053491 446452.3238469575881026685 -1.062293660687179785995227
85447.30996306179440580308 446458.613162106485106051 -0.9079517758391109083504489
85449.67370296105218585581 446459.593487660342361778 4.040614016950243581050017
85435.53057821518450509757 446449.1126889206934720278 9.470999999999992979837771
85439.06726107238500844687 446450.580657196172978729 -0.9313435196762555046134935
85445.05122105118061881512 446453.0614490569569170475 9.470999999999998308908289
85446.76721340880612842739 446471.0199027893249876797 8.821511934093447138138799
85445.98791440221248194575 446453.5049582241917960346 -1.02575063145951350662699
85346.98802473190880846232 446447.4061670899391174316 -1.062293660687179119861412
85356.14862971434195060283 446454.777215979527682066 -1.062293660687174456924708
85350.37529107066802680492 446443.4963919308502227068 -1.06229366068713937387713
85364.62273209233535453677 446462.4984060442657209933 15.61179001624617335153289
85363.86522618684102781117 446464.563720080244820565 19.06984835973536718256582
85360.71213060166337527335 446462.058208741364069283 17.40808869751164067452009
85395.85515068506356328726 446432.66091209213482216 -0.9465455946809441245548555
85387.98172145099670160562 446429.5160917500033974648 -1.058116135423176285002
85393.27261630659631919116 446437.4319915099185891449 -1.062293660687176455326153
85450.09923470199282746762 446462.9775132416398264468 4.275205588935334866107496
85451.18728431682393420488 446460.3203353126882575452 3.884763513915182819857819
85409.53412589905201457441 446488.2053685186547227204 15.94967040553762060994814
85404.09045425277145113796 446490.7335396069101989269 15.09344522510602892850784
85400.94528064395126421005 446487.1190398416365496814 -1.062293660687179341906017
85397.50359557414776645601 446492.6383017448242753744 -1.062293660687178231682992
85403.05282198711938690394 446496.0314616722171194851 -1.062293660687179785995227
85435.39416826581873465329 446485.5083447173819877207 18.05133792932367242656255
85433.17193439228867646307 446484.4019195054424926639 17.90637816707898721801939
85435.5435692464088788256 446485.2000462737632915378 17.62652085230721610287219
85360.206559621641645208 446479.5646848645410500467 1.272314689242614926811825
85364.12328509859798941761 446481.1702684719348326325 -0.9613331147173220792012671
85359.73802472121315076947 446479.2218355726217851043 -1.06196874922575545951986
85368.23865985943120904267 446475.6624023448675870895 -1.06229366068718356075351
85347.36877768322301562876 446452.56513425731100142 -1.06229366068718400484272
85332.55715765517379622906 446460.2219222838175483048 4.24994670307488320304401
85337.55401575645373668522 446464.083821438136510551 9.868909240858297238219166
85338.90657393627043347806 446465.303228034928906709 5.853302053150356343280691
85331.87060470289725344628 446458.9276573139359243214 -0.9444330597184927844622848
85332.23882544513617176563 446459.9669278250657953322 -0.9185030725492634440243478
85334.02149567524611484259 446453.960255701036658138 -1.055688913111289428670148
85333.17728863671072758734 446455.7231108341366052628 4.29200964121876271661904
85451.18678216067200992256 446460.334263493015896529 8.825024464813111535477219
85394.44161289441399276257 446432.234490967181045562 7.843330084799429613440225
85394.79034694234724156559 446434.7569643935421481729 8.496825388893569197534816
85393.27271204134740401059 446432.822316071717068553 7.431124520428136648320105
85336.45479898707708343863 446447.8196674385108053684 2.157485307199045632131629
85331.9052253768895752728 446458.8873546633985824883 9.823347592765681923765442
85331.86774638910719659179 446458.9305323666194453835 9.471000000000005414335646
85351.36753332662920001894 446466.6218772828578948975 17.94986220135529819685871
85348.68626305735961068422 446466.5903648282401263714 15.3257367803680804030364
85345.81153470634308177978 446463.454244983266107738 16.45657050357161210740742
85398.55629994282207917422 446433.7773214852786622941 5.287960653451701631411197
85397.51158090413082391024 446433.3935070075676776469 12.12779702581809182504458
85362.96880370280996430665 446474.3123799583408981562 15.99486212068113921702661
85359.03618131190887652338 446474.5908172050840221345 13.11871348388330105194655
85356.87098239739134442061 446469.9447450381703674793 19.41285342451038431477173
85384.8569039209105540067 446438.5911495972541160882 15.15610056399682825656328
85387.87895961051981430501 446439.0288173675653524697 13.91574264273108418876745
85389.78478972600714769214 446441.0694840640644542873 15.73101099919672307692053
85382.50433552621689159423 446493.4618321192101575434 12.05522444937390780239639
85387.80928527569631114602 446495.6649024635553359985 9.470999999999998308908289
85382.43117291435191873461 446493.4340606702025979757 4.062692197457777432134662
85342.80628476521815173328 446468.3582240297691896558 9.838266694648426735625435
85351.75904310049372725189 446475.5276056593866087496 9.834148600742260271090345
85353.6025433703325688839 446476.791809858288615942 9.833797665102000706838226
85353.0308749904070282355 446476.605420264124404639 9.471000000000000085265128
85373.26666472692159004509 446427.8009714965592138469 9.801353301891829516989674
85376.93758147301559802145 446429.3382081838790327311 9.731576010067824356042365
85375.12238629248167853802 446432.5855223602848127484 9.965842371862313697761238
85376.93965658178785815835 446429.3365739069995470345 7.382485748727458663154266
85371.37721619232615921646 446453.8157189366756938398 19.77084565573257535220364
85370.62405367495375685394 446455.8981999325915239751 19.75199237805543717172441
85370.10358064800675492734 446455.6277038991102017462 16.27085512913795639633463
85349.72795183010748587549 446429.8664035265683196485 -1.062293660687176677370758
85350.43014969953219406307 446432.463671216566581279 -1.062293660687178675772202
85353.00212723750155419111 446431.6738529808353632689 -1.062293660687177343504572
85432.62335267459275200963 446447.9857365915668196976 12.1296283543222394030181
85428.78712968109175562859 446452.548264286364428699 14.84395476494658261401582
85428.29568244323309045285 446447.0121237568673677742 12.15478534236512508925898
85379.9170187015988631174 446430.8597766862949356437 9.854757207519798001271738
85382.65861545283405575901 446431.7911648033768869936 9.641354363069387645168717
85377.94826872438716236502 446434.9377839833032339811 13.95543556345643665395073
85354.45678500433859881014 446446.3771424030419439077 16.45018806286525503423945
85354.191413474953151308 446449.623710163461510092 14.73366662160105988732539
85355.96325459887157194316 446452.1273221450392156839 17.3130859927360525318818
85356.19011804224282968789 446447.0713610927341505885 16.62402058595088050196864
85347.24962309269176330417 446450.7169141109916381538 15.25298993577870731996882
85398.13257337624963838607 446444.5388243055786006153 15.7490022814599974765315
85398.02505775111785624176 446443.1104507178533822298 14.91058389508990522642762
85402.35658513258385937661 446445.8545395578257739544 16.25343846034507322428908
85348.9457006102311424911 446459.276595891104079783 -1.062293660687179119861412
85357.75081141441478393972 446463.1174570472212508321 -1.062293660687179785995227
85397.77933086584380362183 446441.706849140056874603 -1.062293660687173346701684
85394.80008749247645027936 446440.3346765533788129687 -1.062293660687181118262856
85392.54276328878768254071 446442.7144320292281918228 -1.062293660687177565549177
85447.72690631571458652616 446457.2393298791721463203 8.089893557223080122753345
85448.73877661627193447202 446454.6115985137294046581 3.85237456062757344099623
85332.23813065844296943396 446459.9663644616957753897 9.730249377132665244971577
85365.69998507233685813844 446486.3362066872068680823 9.770847296961928662994978
85364.59880359990347642452 446485.9541236489894799888 9.852724265966477545930502
85368.87111556649324484169 446478.1284286812297068536 13.91620111380356838992611
85365.20959652372403070331 446481.6278555821045301855 9.625018270572860856759689
85373.28721260000020265579 446427.7699846798204816878 2.167774335870379154300736
85376.06432861546636559069 446428.981176039029378444 -0.9861864052209327047293641
85376.88903468693024478853 446429.3148401577491313219 2.629491405112141855227037
85391.52700000000186264515 446468.067000000097323209 -1.062293660687170682166425
85383.42694907871191389859 446468.3048692415468394756 -1.06229366068717046012182
85387.29626674221071880311 446475.4249666792456991971 -1.062293660687181340307461
85387.25062906851235311478 446472.0866405892884358764 15.79923503769297887799894
85380.77689628759981133044 446469.3826274046441540122 15.80352480908544343662925
85386.50004979889490641654 446463.3618328117299824953 15.1884219574674350639043
85331.87271992901514749974 446458.8711981914239004254 4.259206158271662268077762
85342.51136250824492890388 446468.1751182094449177384 -0.9678136259728912227373598
85343.44862724868289660662 446462.2801500710193067789 -1.062293660687178453727597
85342.83747427817434072495 446463.6468018571613356471 13.08744464339479840475633
85339.00470571751066017896 446459.2225041905767284334 14.80319001299330494703099
85342.86796051528654061258 446438.0202178234467282891 13.10285276238471219301118
85344.81040529569145292044 446433.3179362629307433963 13.06871406280933101129449
85348.41018180841638240963 446438.2987442064913921058 14.3663498397972446696258
85339.1634709925128845498 446441.312939335941337049 9.772694506263542635338126
85339.01751803855586331338 446441.6403032211237587035 -0.9209014113342697260833347
85448.31829020909208338708 446467.2763104424811899662 14.47840773181379958600701
85444.60904051810211967677 446474.6503221378661692142 18.53356419882830508072402
85332.1957576589920790866 446459.9031985019100829959 4.241928000292300104945298
85388.03181624242279212922 446429.4122113987104967237 6.426618986505737041170505
85393.51040185378224123269 446431.6844940703012980521 1.72793307832171194604598
85444.53628223651321604848 446476.4043361985241062939 8.809768919778166562650767
85428.96819897834211587906 446505.5229430177714675665 16.23977027518302307385056
85431.85553544783033430576 446505.4841797901899553835 18.57166914070314334139766
85430.10153392382198944688 446506.151750574994366616 15.98907277079711874989698
85425.27093069814145565033 446511.1635918544488959014 12.09803832999771522338506
85442.19512302195653319359 446457.6447864814545027912 14.17344740179694184689652
85443.40853550544125027955 446460.6678483078721910715 17.97343800466862973053139
85437.18248231388861313462 446479.7638608419802039862 17.92886956645729767956254
85432.98951443254190962762 446477.8744218826177529991 18.04535176367469517799691
85437.33633704422391019762 446475.6613900145748630166 18.43842363128681327566483
85432.50728106878523249179 446478.3924553586402907968 17.07182181881769622577849
85374.059550460398895666 446477.0269357555662281811 15.57228988427675275829642
85378.09638471856305841357 446481.1164523857878521085 15.12057285301160547419386
85372.91042693621420767158 446478.5281018266105093062 15.81805193618737703786792
85372.90041529753943905234 446480.3948411050369031727 13.00866964880436782436846
85346.63682989653898403049 446466.3395052972482517362 13.49955481899515952193269
85380.00086057114822324365 446452.3749863968696445227 -1.062293660687197105474411
85372.42201657900295685977 446450.3571685234201140702 -1.062293660687179119861412
85374.11012352845864370465 446453.3115049265325069427 -1.062293660687174901013918
85359.39633632601180579513 446443.084466527565382421 -1.062293660687178675772202
85358.73887961397122126073 446440.4895647603552788496 -1.062293660687178675772202
85356.14357893484702799469 446439.8336845163721591234 -1.062293660687174456924708
85341.57554751003044657409 446456.3026317275362089276 -1.062293660687177787593782
85342.82887732454400975257 446463.713332324055954814 10.22934506929508735595391
85436.71680663425649981946 446495.0441623826045542955 17.97727859884849976879195
85436.2534818275598809123 446496.3963581656571477652 9.471000000000001861621968
85434.33530843447078950703 446501.0233910552924498916 17.86731368035490774559548
85400.81795888018677942455 446443.8177519948221743107 13.04051758138354344396248
85426.79091835183498915285 446503.4609319695155136287 18.48362673467007155636566
85449.27721443363407161087 446463.2003933888045139611 17.98391959951599972100666
85449.40226135097327642143 446462.6286236574524082243 16.24394609200408012839034
85359.85392249556025490165 446458.9343544799485243857 16.06239275548992040398844
85360.17808348331891465932 446455.8287610507686622441 17.98921834129669861113143
85363.70769018781720660627 446457.8508704998530447483 17.14724597222861035561436
85363.56750310219649691135 446438.5435328017338179052 16.37740923506566659284545
85364.72350438704597763717 446440.1107728887582197785 18.01552363444044502216457
85362.59529576521890703589 446438.9839660983416251838 17.56750481154391252403002
85417.90098459248838480562 446441.8794000567868351936 12.13964248088361230770715
85424.98812589945737272501 446444.8205225252313539386 12.13569406319804144800401
85424.43130221098545007408 446449.0909357266500592232 12.34117820385994512832895
85417.93011202325578778982 446441.8127596536069177091 10.17899252347091554327108
85423.43872066593030467629 446465.8077701491420157254 18.35121456235085446451194
85420.13518916793691460043 446461.4771617421065457165 16.09458031595166005445208
85402.85293826753331813961 446439.2811204426106996834 13.77679720256307405179541
85404.13612385214946698397 446436.1677702665911056101 12.1476440316720175616183
85395.79401414841413497925 446437.3777218836476095021 12.0707337847838491740049
85351.30668086085643153638 446435.0074035972356796265 -1.062293660687192886626917
85344.44545828763511963189 446437.1943637701333500445 -1.062293660687178897816807
85364.5232468515750952065 446481.3434712336165830493 -0.18418728781881049672009
85420.52726418385282158852 446478.2912349789403378963 16.57120073020860928636466
85418.73929092117759864777 446478.4245539895491674542 17.90211200489422438408837
85417.4591385387466289103 446477.7102665610145777464 17.47896937760691216112718
85385.70363390579586848617 446475.779919859953224659 15.79871134055932557771484
85379.73138695978559553623 446477.0808814660413190722 15.13589110252624791996823
85379.25944905505457427353 446473.5371001606108620763 15.13734212403191037310535
85375.19652006494288798422 446432.6187467438285239041 12.14158539197473984927456
85395.89433432236546650529 446458.6276869632420130074 -1.062293660687176233281548
85395.07746317647979594767 446448.2966840984881855547 -1.062293660687178231682992
85373.03504921737476252019 446444.1606334846001118422 18.92379270979139604946795
85377.50094130737124942243 446444.1805844379123300314 16.16294449623881490651911
85374.95421133231138810515 446445.1626094845705665648 19.07858978208120248609703
85432.83340568590210750699 446464.6273054428165778518 18.00052521995854704073281
85437.95267930885893292725 446471.8728773975162766874 18.48468437841971834245669
85430.91422173545288387686 446468.9570301945204846561 18.43232098907244775887193
85425.8373550279502524063 446469.2406264847377315164 -1.062293660687146257259883
85431.22038987081032246351 446480.18476368288975209 -1.062293660687179785995227
85430.37304776208475232124 446460.7732294146553613245 -1.062293660687178009638387
85433.60273235730710439384 446454.6866338172112591565 -1.062293660687179341906017
85422.61160449672024697065 446460.0140723317163065076 -1.062293660687179341906017
85429.28808169203693978488 446496.1083397596376016736 -1.06229366068718578119956
85432.58100727800047025084 446488.0296865757554769516 -1.062293660687181562352066
85423.51129154468071646988 446489.0432341198902577162 -1.062293660687179341906017
85370.09649525166605599225 446455.6353889685124158859 19.60533616862006667247442
85368.89964935372699983418 446457.9719161258544772863 20.0029377981077978176927
85363.55864027951611205935 446448.4356627012020908296 19.07067639372997547297928
85365.22265913094452116638 446448.302296842448413372 17.97547370226557106320797
85365.11232104813097976148 446448.8931092740967869759 18.92432202098376947674296
85435.31462002905027475208 446449.0231185953016392887 0.06017513850722281537608538
85428.83090569371415767819 446446.3339480063295923173 10.24997609240016416265462
85428.82885568542405962944 446446.3433589617488905787 12.05675446364304015389735
85347.84371029908652417362 446467.6861605271114967763 12.54787282451595409327183
85448.73987072269665077329 446454.6177004814380779862 12.0196617282720215058589
85423.57388540681859012693 446450.750839791027829051 16.35869882313098955251007
85440.26164239234640263021 446451.1412067117635160685 12.11678232459432713596925
85419.46480320848058909178 446503.0914039035560563207 -1.062293660687203100678744
85427.56537828721047844738 446505.4017714590881951153 -1.062293660687180008039832
85427.74287382999318651855 446502.2313287379802204669 -1.062293660687176455326153
85432.49019384154235012829 446447.8516660233144648373 2.921119811553987588581549
85370.48715079479734413326 446483.6502840385073795915 9.761251315404965822608574
85359.94187590389628894627 446445.4386081795673817396 17.45618597420468631753465
85359.15246177047083619982 446447.5828536279150284827 17.59997051364694087283169
85361.74878334994718898088 446445.9762803345802240074 16.6750030462674665443501
85446.896097987235407345 446460.8583741002948954701 16.08956048039495101420471
85446.53640807127521838993 446461.9570807046839036047 17.96989051488263555711455
85448.74163231917191296816 446454.6256300443783402443 -0.9551461781994823319053012
85440.70006889390060678124 446457.331547251611482352 -1.062293660687179563950622
85404.94289515815034974366 446473.2888791974983178079 -1.062293660687176455326153
85395.37833072272769641131 446478.0170738075976260006 -1.062293660687179341906017
85434.02092526285559870303 446489.6749338911031372845 17.99621932962551795753825
85442.4804598054033704102 446481.3656703204615041614 4.36950893977602383699832
85440.45694413258752319962 446486.2461939190397970378 -0.9350016611390160603534127
85440.87791117723099887371 446485.2339343347703106701 4.601664232661123676848547
85410.13526537452707998455 446504.9257222707965411246 9.471000000000001861621968
85414.60146696452284231782 446506.7783033428131602705 7.064033901819343874706192
85410.64202959011890925467 446505.1356373089947737753 -0.9229220281606989040312783
85437.69584432312694843858 446490.9371772941667586565 17.99887936741998828438227
85439.60995850426843389869 446487.374783625709824264 14.97440605559537729618569
85438.08682743748067878187 446491.9671203269972465932 12.71529514504053537393702
85438.08472157473443076015 446491.9742230547708459198 17.22314594096902951037009
85416.18498966027982532978 446477.3775819694274105132 -1.062293660687178009638387
85412.10411355867108795792 446471.0984523231163620949 -1.062293660687180008039832
85389.74094810683163814247 446432.3363352358574047685 6.644362299872877741790944
85434.55458622952573932707 446454.1537352807936258614 13.66853221278204699729031
85415.01290887565119192004 446458.2176578248618170619 -1.062293660687146257259883
85416.92088304727803915739 446441.3941741424496285617 3.586710759863372732780817
85420.95974373409990221262 446443.0693228010786697268 2.991117097358454657296534
85381.19698466261615976691 446431.1634010603884235024 4.920348549475918709106281
85384.39741853902523871511 446432.5384518550126813352 6.364742712014440861878484
85382.0417060321633471176 446431.5255232135532423854 7.801083488202236182473825
85415.1214957342017441988 446447.0848676186287775636 15.08258259346472129891481
85419.87239623200730420649 446453.1664167657145299017 16.33582273292395825592394
85414.72103998227976262569 446451.0193066985812038183 16.31564771876698571873021
85405.8522722783382050693 446447.3473744076327420771 16.27800609707654899693807
85399.82618044075206853449 446466.5897919344715774059 -1.062293660687178453727597
85449.28679357252258341759 446463.0651388277765363455 12.10823603221970756749215
85449.36881881415320094675 446462.5909110892680473626 13.67081742497389562629451
85428.12245753292518202215 446481.5659958532778546214 16.76752304974808183146706
85431.04155102816002909094 446482.8847618176368996501 16.93865673322649101351089
85366.16992249815666582435 446456.3545252237818203866 17.43899435323794122609797
85364.28723931421700399369 446456.3169190297485329211 18.56997447930227451706742
85362.39393777681107167155 446452.7868227135040797293 15.98142309757655610269467
85409.78954370375140570104 446484.1637973028118722141 -1.062293660687178897816807
85416.33035954683145973831 446487.5035696309059858322 -1.06229366068718444893193
85343.89366097291349433362 446429.942420332576148212 9.795759454772202445838047
85346.83493120579805690795 446428.7183560454868711531 13.13391801949178905317694
85371.04686995220254175365 446432.8728049937053583562 15.1677652425024085403038
85361.9233446979196742177 446455.5356733466032892466 18.87205198553316165543947
85360.63418470986653119326 446455.0431984848692081869 18.93329578157948844818748
85372.02631097025005146861 446435.8815552949672564864 19.06334409427078924181842
85372.34659021912375465035 446438.0552386064082384109 16.17918952615397643057804
85369.80830066163616720587 446436.250392176560126245 17.33300962986303517254782
85430.99772497332014609128 446483.8240065308636985719 -1.062293660687176233281548
85429.68518326357298064977 446481.9172662179335020483 -1.062293660687178675772202
85361.09542724108905531466 446479.9309624105226248503 9.67903663906471400935061
85349.47245984848996158689 446468.5663455452886410058 13.51907409235677448577917
85348.36820032543619163334 446472.8201501651201397181 9.829831285883072311548858
85345.60431217978475615382 446470.5733243420836515725 9.851808147707341589693897
85372.26780610787682235241 446439.327934516011737287 -1.062293660687179785995227
85369.48903780162800103426 446437.5615744686801917851 -1.062293660687180230084437
85368.81714026977715548128 446439.5779725329484790564 -1.062293660687179341906017
85396.43004243093309924006 446452.0576836481923237443 15.62088514751654244605561
85402.6345622467779321596 446451.0435284867417067289 15.11442546120186314340117
85404.5028725043375743553 446455.4058298338204622269 15.62216581660060299441284
85410.82037357038643676788 446438.9277589861885644495 12.13526307193478537271858
85416.51222889932978432626 446468.2793393948813900352 15.88196404379053205957462
85417.83806602533149998635 446464.635113947675563395 15.98334619019026980879516
85418.34164389765646774322 446465.3165417538839392364 15.51971152108988505347043
85421.9855936177191324532 446469.7570292190066538751 18.59319978791628713565842
85361.14213711790216621011 446426.5408788459608331323 9.8102016792363979647007
85353.5345116577809676528 446425.7396384597523137927 9.803353606455136315389609
85357.36016802457743324339 446426.106838633946608752 1.934078158170270622662201
85418.65129060941399075091 446456.996264158224221319 15.09077896181243971795993
85413.02965136549028102309 446463.3289303230121731758 16.11491198386247702956098
85363.70500193431507796049 446481.0070127907674759626 5.395977414282830508795996
85364.5451145321421790868 446486.0065109679708257318 9.470999999999987650767252
85404.1907995218934956938 446436.1142736963229253888 11.49392157401837799568511
85422.46199527077260427177 446485.3304880617070011795 18.39206288142434075894016
85421.69842357590096071362 446479.8141439718310721219 18.04662661108766386064417
85349.08840950900048483163 446425.2450945298769511282 -0.9309811328057725487994389
85344.54141268778766971081 446428.3258845274103805423 -0.9408802011200355641662441
85346.03113186449627391994 446425.060851948510389775 -1.060662021706886726235552
85448.9967910146078793332 446465.6382169072167016566 8.819195963401458726593773
85397.72419470571912825108 446468.6916633053915575147 15.11467230125477456681438
85391.85381343642075080425 446466.5946914525120519102 15.12385705497771226646364
85397.88635396758036222309 446477.062048104649875313 16.6228048832314030391899
85427.30994415387976914644 446471.494425193639472127 18.36120145875868558960065
85423.84499124040303286165 446474.2535049203434027731 17.90538192722666721579117
85439.58362368268717546016 446488.3581920773722231388 4.979492790755623232712423
85439.35241138486890122294 446464.2178859187406487763 17.97249430663709546251994
85374.79395533035858534276 446481.9626772795454598963 -1.062293660687184226887325
85376.32418811169918626547 446485.8504753687302581966 -1.06229366068716912785419
85379.85669134774070698768 446481.1307424912229180336 -1.062293660687179341906017
85429.11271240972564555705 446496.0503856424475088716 17.98115084146484576876901
85435.08987984730629250407 446466.6599083311157301068 -1.062293660687179341906017
85448.03085285656561609358 446467.9708312038565054536 11.0141155827862586846777
85441.4843607728835195303 446482.1291244975291192532 14.74522353939617858031852
85441.64786832053505349904 446482.0751860282034613192 16.64272043257247801761878
85442.37035949324490502477 446480.2264790920307859778 16.26133470551921078595115
85441.19493952977063599974 446482.1389597184606827796 16.79233765997715011053515
85435.68664359742251690477 446481.2809511987725272775 14.69606036832696105420837
85388.78120375088474247605 446486.4040161498123779893 -1.062293660687179785995227
85389.2463685057737166062 446491.6443928963271901011 -1.062293660687184226887325
85391.30419123105821199715 446488.8208955283625982702 -1.062293660687178009638387
85396.58375588747730944306 446493.4144087538588792086 15.08343861205529456981367
85384.87220326715032570064 446490.627278194937389344 13.78583757674589094222029
85390.02047449391102418303 446486.0269706220715306699 15.11393821283311211800537
85388.39334547476028092206 446495.8128302457625977695 12.15992077497689827225713
85417.01389490990550257266 446465.4438023820985108614 -1.062293660687179563950622
85402.82905369592481292784 446474.315224531979765743 15.07951739603748109175285
85408.30423199641518294811 446473.2647263937396928668 15.09903747386310968181533
85407.31109638186171650887 446476.7885056401137262583 15.11279050874294327400094
85432.29469676139706280082 446447.9216439209994859993 -1.062034841542802476865859
85425.89680536316882353276 446445.1173229507985524833 -0.9232955615563229745390572
85428.20616782842262182385 446507.7243468497763387859 -0.9408992946853524941275282
85431.09724020172143355012 446508.8153660126845352352 3.882480934253582649517966
85431.06776399731461424381 446508.8365444433875381947 -0.9417507103071346419298493
85432.24474125659617129713 446506.0710225655348040164 3.867762906877000528282906
85367.99636669851315673441 446487.3096320899785496294 -1.060584294766168111934235
85364.60913188647828064859 446485.9250864217756316066 -1.055170834550787972716535
85364.52970185529557056725 446485.99048250587657094 -0.3907101735300358424929357
85420.03789145541668403894 446452.6525288645643740892 -1.062293660687195995251386
85421.04968192032538354397 446447.1803260875749401748 -1.062293660687178897816807
85417.22310963236668612808 446483.2910854510846547782 18.45379091282785921634968
85419.14020254967908840626 446492.125723774079233408 17.96919994659691965921411
85428.82643216852738987654 446446.3320925771840848029 5.537662535922089901418985
85405.45745047577656805515 446467.4907653183327056468 15.10478786697743203149003
85429.48942482854181434959 446508.0526207478251308203 8.854188100966556618232062
85431.09452639879600610584 446508.8180263448157347739 8.716805905375377250265956
85425.71671055437764152884 446510.4521894934005104005 6.623838057166265613773248
85381.0770391783444210887 446492.7586596839828416705 -1.055842078482302826003547
85387.57841851441480685025 446495.5691388972336426377 -0.4425818098591519644813275
85387.64200610712578054518 446495.4506534318206831813 -1.061584361633709505667866
85375.85387364895723294467 446477.9212469009216874838 -1.062293660687176233281548
85375.49970081872015725821 446469.985982482205145061 -1.062293660687178897816807
85422.65072966998559422791 446510.1171386892674490809 4.09510983472308609520951
85425.28515337473072577268 446511.2048210748471319675 4.392628470871938972663884
85425.34339448988612275571 446511.2015014353091828525 -0.6646594215111067960322089
85426.7701019662490580231 446507.8854885745095089078 4.912169669727482812504604
85429.86416094662854447961 446508.4113418690976686776 6.170722834158091529843659
85432.32267486392811406404 446473.5719867466832511127 18.40015020459964389942797
85441.85803344649320933968 446481.5347017378080636263 17.94149302188392880452739
85442.56208364070334937423 446479.7251107324846088886 17.76454084187716730980355
85427.63437411440827418119 446480.8436712316470220685 -1.06229366068724351279684
85373.22912515605275984854 446468.4378347842721268535 19.0527126581086605483506
85374.13274019923119340092 446470.2708384706056676805 16.99189158244153929899767
85370.78716458247799891979 446469.2618198447162285447 16.42980253952435276687538
85413.40330973161326255649 446440.0780733013525605202 -1.061389328062717352096911
85410.64356953476089984179 446438.7906098884996026754 9.470999999999998308908289
85448.69508758190204389393 446459.2607935399282723665 12.29501056572178185888333
85448.39603609463665634394 446461.6846953199710696936 16.39561283467676844338712
85376.4518382249225396663 446490.9538317674305289984 4.932318724044824520547081
85388.2162351196602685377 446430.0162961419555358589 9.737118661126737961808431
85387.6562520854058675468 446431.5828402020270004869 9.83977360284455393468761
85387.86903572894516400993 446429.7436427715583704412 9.771687063397187955615664
85411.78561283483577426523 446493.2725928081781603396 -1.062293660687195107072966
85411.6878379856061656028 446488.5209153351606801152 -1.062293660687180008039832
85412.31180252069316338748 446478.1940426877699792385 15.36463598635072891340769
85393.90780794389138463885 446440.4012874728650785983 10.8500357792013151225774
85433.5879194840817945078 446502.8294832045794464648 13.04013741032709994271954
85433.42108802538132295012 446503.2286852746619842947 16.66856462395815796639909
85395.18050649060751311481 446464.5413218354224227369 -1.062293660687179119861412
85428.49199978190881665796 446476.0287739025661721826 18.04310806319869087133156
85428.14530769632256124169 446477.4193695983267389238 15.80895809798501083776046
85424.85234465044050011784 446479.8342589725507423282 16.1926521842398685180342
85423.31995030815596692264 446476.4140796897117979825 14.30704059097092617491853
85447.51949863308982457966 446457.3543860045610927045 -1.062290117667036515314294
85421.747929214863688685 446501.3131397657562047243 18.51099967488289621542208
85442.78734435549995396286 446477.9291753768920898438 18.48006692068561562791729
85387.95709448074921965599 446430.8968478788156062365 9.644782520380829282657942
85367.80985525572032202035 446487.3685470368945971131 3.931114457828126962368742
85372.22139977852930314839 446489.1989056354505009949 2.056392122206782246962575
85418.68574669555528089404 446494.0337589523987844586 -1.062293660687180230084437
85415.4728995350596960634 446491.5027279407368041575 -1.062293660687180896218251
85350.83758475079957861453 446457.5542841093265451491 16.67708184317567443599728
85352.15082650109252426773 446460.9113364104414358735 17.27669566499365672029853
85344.20158589049242436886 446429.1389356504660099745 3.978764475164905611848098
85345.93173467634187545627 446424.9826998662319965661 -0.4858478172278377638093616
85397.21764593446278013289 446460.8807832211605273187 15.12092987974736857381686
85404.63256156731222290546 446444.8969326940714381635 12.27434385770506075630237
85375.25850825344969052821 446470.8319872628198936582 16.32416079781957662930836
85378.50116686025285162032 446464.6854020447353832424 16.0173002793943446420144
85365.45141601374780293554 446483.5912962594884447753 2.993622447447537027187536
85352.79279531621432397515 446476.3898932398296892643 -0.9891419549042600456445484
85363.98410670932207722217 446473.1529248323058709502 18.38024604399837613755153
85373.16328680567676201463 446486.0310544333187863231 8.195886549432575662876843
85369.34573471802286803722 446483.1118470175424590707 8.117421059833732854826849
85368.57631326832051854581 446486.0089886377681978047 6.61519106081712227052094
85383.58395175352052319795 446440.7155313268885947764 19.05941147765332743801991
85379.73853232925466727465 446440.4638528856448829174 17.16499288968214642636667
85380.53291316496324725449 446439.6410879061440937221 18.92212656449925844981408
85402.25604085698432754725 446435.3175779225421138108 -0.9533672037452785019695511
85399.06111558960401453078 446433.98669767304090783 1.22472962651200023564968
85399.05679057641827967018 446433.9877465676981955767 -0.9417829717446175585848778
85374.87443605771113652736 446459.2270502285100519657 -1.062293660687182450530486
85368.89661957604403141886 446460.5563761802623048425 -1.062293660687178453727597
85392.6442068287287838757 446437.5503787099150940776 9.823323122298450726930241
85402.87323342716263141483 446435.5678029840346425772 0.74122050239947856464795
85385.73879242592374794185 446456.0756942232837900519 15.15063427158199971245267
85404.53116026465431787074 446443.9737442764453589916 -1.062293660687179341906017
85439.47926426655612885952 446487.1124069412471726537 18.00855381879797434407919
85436.98330871181678958237 446484.1250007583294063807 15.0762587364754274688039
85439.4003099096444202587 446482.3428778428351506591 15.41728743645504806636382
85385.99738112719205673784 446488.3732592170708812773 13.7536171409920200403576
85406.41271627633250318468 446503.3816083609126508236 1.423925506633383797350234
85403.37844641738047357649 446502.1229927800595760345 5.384488114999105512481492
85426.04372806545870844275 446508.1888474031584337354 -1.062293660687181562352066
85425.28796585486270487309 446511.1485094137606211007 -1.030076808340055993795659
85371.00337088661035522819 446488.6926936888485215604 7.720755410766976467584755
85433.37759938569797668606 446503.3051949802320450544 -0.9730369320746676820022003
85419.08358667166612576693 446442.2915339239989407361 -0.9239495446086251062567385
85394.03672124729200731963 446486.6437296031508594751 -1.062293660687180008039832
85423.54565764652215875685 446510.3448726499918848276 -1.061453744407162114171683
85431.91818992439948488027 446505.4903422653442248702 14.22813933227839910955481
85399.92588538605195935816 446500.690869959769770503 2.332452034949162644750231
85403.14295290793234016746 446502.0253100379486568272 1.881878983723446197018347
85433.30510954621422570199 446483.716386512154713273 16.77791347064422922130689
85449.07812378325616009533 446462.8537660251022316515 17.93727468687571402483627
85449.37212093258858658373 446462.6024317122064530849 17.15340701123597710875401
85382.32138223179208580405 446489.6170561971375718713 13.78496760182609293110545
85379.63403111080697271973 446487.2896968477871268988 12.17673686554390499736655
85426.34161096459138207138 446508.9273714960436336696 10.72444346580039642446991
85425.25608844016096554697 446511.1976418490521609783 9.471000000000000085265128
85439.50533022145100403577 446487.6459182664984837174 17.86146491101748878804756
85436.91934867562667932361 446494.4986060924711637199 -1.057583258785792512668422
85438.54519877451821230352 446490.8648276380263268948 2.925868468870347793853171
85413.60102078625641297549 446489.798160866426769644 17.96148908147626244158346
85440.31792828234029002488 446486.5856671625515446067 6.82891746934136900648582
85439.01952137459011282772 446489.7198686841293238103 8.046502145802485017611616
85441.01301878190133720636 446484.9020731786731630564 8.76607604462303235948184
85394.16230447929410729557 446498.2002031406736932695 -1.051318799197232145559155
85448.0288825060852104798 446467.9641031586215831339 17.86356834239681745657435
85441.63333557214355096221 446482.0914715650142170489 10.9732666955481086290547
85442.77436064023640938103 446480.6564108829479664564 8.801433932866313369913769
85442.70110893488163128495 446468.6552692589466460049 18.01114488574912542162565
85441.4865056384151102975 446482.1095208126935176551 17.07194651429082909999124
85417.97869891213485971093 446508.1791796482284553349 2.108656577378543506284814
85417.20940615223662462085 446502.9625260482425801456 12.75730870764287416818661
85415.25329386239172890782 446506.9912177178193815053 12.12042843877524411766444
85367.75399575922347139567 446449.9135871565667912364 18.80077120706439686159683
85369.84159412760345730931 446449.6412558383890427649 17.10245325623985124252613
85369.0994034349569119513 446450.5557691743597388268 18.92283070840603897977417
85357.89225981611525639892 446443.0886421064496971667 14.84116243990053618517777
85356.44668456423096358776 446443.7019869762007147074 16.49608949582163219815811
85372.5161482082330621779 446444.9467514665448106825 17.97211895934514558348383
85373.34738793986616656184 446444.4818580813589505851 19.07771292955822417525269
85372.94544006511569023132 446444.4958899875055067241 18.92611909076741483204387
85433.0987219937815098092 446448.1040577735984697938 0.56073281449009182431098
85400.5425430163013515994 446435.1425005507771857083 -1.062293660687179563950622
85370.27090932385181076825 446442.7174261913751251996 -1.062293660687180896218251
85363.6399031358741922304 446444.8565147945191711187 -1.0622936606871695719434
85369.02317556052003055811 446450.196892553532961756 -1.062293660687192220493102
85364.50601521790667902678 446456.2874195460462942719 -1.062293660687180230084437
85369.64818951886263675988 446442.7633622674620710313 18.93308314663136115996167
85371.28322540086810477078 446442.9538949453271925449 18.19830213903918547657668
85371.73853847359714563936 446443.8031723796157166362 19.07604553592351948054784
85370.61413562377856578678 446435.7583932970883324742 -1.062293660687178009638387
85397.55407008159090764821 446441.0222934072371572256 12.18304904816018918722875
85378.30344743690511677414 446456.7615176378167234361 15.82353294055146264440737
85373.9460787724528927356 446458.032546303526032716 15.08695966231525353862253
85373.30841184919700026512 446454.7922808895818889141 15.67065905732248154436093
85383.31350334594026207924 446444.5098357132519595325 13.7698810380250087348486
85375.60546826325298752636 446439.4523981878301128745 16.10271525911678125453363
85381.12896270166675094515 446438.0097086321329697967 16.62297103006620702103646
85380.9267125048500020057 446439.4849584182375110686 18.99544371800340059053269
85377.85836833674693480134 446438.2162500654230825603 19.00062079240409929070665
85387.22968459069670643657 446431.3673959958832710981 9.851016031598453182027697
85381.1327958473120816052 446431.2874612289015203714 -1.061963849894087985603619
85380.20228132855845615268 446435.5692247507977299392 -1.062293660687205765214003
85385.20268396784376818687 446432.8881785413832403719 -0.946803277529044251537016
85381.40674459833826404065 446431.2544509717263281345 -0.4184789684784662178174131
85394.7156424180866451934 446437.48706777737243101 8.941453435437733077151279
85373.26560236544173676521 446489.5336982937296852469 12.17163843687907309742968
85373.26595156054827384651 446447.0608702356112189591 -1.062293660687178897816807
85384.44809190725209191442 446483.4203827196615748107 -1.062293660687178897816807
85389.99929221779166255146 446480.8928594933240674436 -1.062293660687181784396671
85378.73368362625478766859 446489.3060744914691895247 -1.062293660687176455326153
85376.65561695542419329286 446489.6499564011464826763 -1.062293660687181340307461
85370.63698749292234424502 446481.542909789364784956 -1.062293660687184670976535
85387.5217203148640692234 446434.1913161449483595788 7.825020709740344138083401
85386.39681837464740965515 446443.834311134647578001 16.22332793317687205103539
85389.88728907023323699832 446448.72643176035489887 15.13119538827393029123414
85372.31179884175071492791 446456.591609287541359663 19.62857701698589707461906
85370.92022182249638717622 446458.8063909219345077872 19.99580301008053595523961
85379.03432524421077687293 446430.236092295206617564 9.712577378108562697889283
85361.63088817060634028167 446455.6762461657053790987 19.04191877314791980779773
85382.05350863930652849376 446448.0888514483813196421 19.03961078168024556589444
85368.46986596471106167883 446434.4680714870919473469 19.07155293929467987368298
85369.20084680909349117428 446432.1901077781221829355 15.28154393621067264064095
85356.79933561569487210363 446446.9886953621171414852 17.02385096351006765758029
85360.37325116072315722704 446455.0960424545919522643 19.05055097091531379760454
85359.28522155665268655866 446453.41468945232918486 17.29956030227298313661777
85375.37146130336623173207 446433.8012517755851149559 -1.062293660687182228485881
85376.19155405421042814851 446439.0442927750991657376 -1.06229366068718444893193
85336.58642002234410028905 446447.7808911229949444532 -1.056349115585015319140894
85341.90407488051278050989 446448.3618704709806479514 -1.062293660687148477705932
85363.51019814398023299873 446432.463343699520919472 16.2467645486020373368774
85363.22139522840734571218 446433.3053612568182870746 17.55719837912575442828711
85358.35440338717307895422 446432.0342239038436673582 16.40440566335657734953202
85364.61156283730815630406 446456.9177588956081308424 19.03857907618764144785928
85369.0410067672492004931 446460.3998696760972961783 16.62838609972168768535994
85370.25839694708702154458 446427.4529948490671813488 -0.9302820776227992416451684
85373.28513090863998513669 446427.7710596133838407695 -0.935569239013884890177053
85368.7852259468927513808 446431.142641797661781311 12.683015511549204035191
85365.22484683427319396287 446426.9732028255239129066 9.815581798226132193008198
85366.26550101215252652764 446445.6586064385483041406 15.81848747431102353289134
85367.52530747115088161081 446442.0633340898202732205 19.0732660928680886058828
85369.45603729576396290213 446444.134934600442647934 17.28048139476037903250472
85387.77559231434133835137 446440.3246738472953438759 -1.062293660687179341906017
85379.28337324214226100594 446438.5606844067806378007 -1.062293660687178453727597
85387.15074890990217681974 446457.0771246113581582904 -1.062293660687146257259883
85387.00486388428544159979 446448.360650999064091593 -1.062293660687146257259883
85368.9177875539317028597 446467.2654406876536086202 18.27211101430549078372678
85364.90267546618997585028 446471.1473349634907208383 16.39032761463058562867445
85351.60707234471919946373 446430.3045053433161228895 14.80705041852847969607865
85368.58212099953379947692 446450.6906226804130710661 18.91566107120404183206119
85371.92496704864606726915 446451.8789679263136349618 19.79596517823514645328942
85357.81661273610370699316 446436.8494894407340325415 -1.062293660687179341906017
85360.7087698411924066022 446438.6770259325858205557 -1.062293660687180008039832
85373.58947360620368272066 446482.6881226153927855194 9.868743534710729292669384
85374.89937357156304642558 446485.4549046733882278204 11.97009690527553793515381
85367.33987555839121341705 446451.3790721395635046065 17.09323480262162320286734
85367.1846765700465766713 446449.9188041150919161737 19.05103056252072590837088
85368.10218971467111259699 446450.7390912877162918448 18.54309466882508061758017
85355.66794509126339107752 446459.5764147629961371422 16.82579993691702213709505
85354.36372205385123379529 446454.0562102312687784433 17.00178786895837390602537
85357.74557292574900202453 446458.1249868703307583928 15.72237461913002931623851
85367.56585190043551847339 446436.6567742496263235807 -1.062293660687179119861412
85392.30613676506618503481 446497.5301971184671856463 7.791106456268835245282389
85389.42170458570763003081 446496.3337342289742082357 6.635617117032552414457314
85345.93102222902234643698 446424.9835869790404103696 8.445480287810845254625747
85346.7552133213757770136 446425.0084052773891016841 9.760652158137265388404558
85357.18313816784939263016 446461.7546721550752408803 19.07644868924887049388417
85356.33133651799289509654 446464.4631379320635460317 15.87879875965022158368356
85374.58261774040875025094 446490.0221740131382830441 -1.062241925690426302963942
85376.28274003065598662943 446487.9791646235971711576 12.18005603308389694916514
85399.07069411473639775068 446462.0110016661928966641 -1.062293660687180008039832
85396.06685204070527106524 446461.6484114621998742223 -1.062293660687179119861412
85366.49805651880160439759 446483.8034799985471181571 8.879924244620953643902794
85347.64774459951149765402 446472.2986050579929724336 2.462816884573869824492931
85347.70869024813873693347 446472.2011116413050331175 -1.058321220656611716393058
85351.23905265367648098618 446466.0323403549264185131 -1.062293660687180230084437
85359.02215936292486730963 446466.0779381486354395747 15.53948628334927128946674
85355.31967434931721072644 446467.793061344709713012 17.3498936988978442741427
85358.71318914541916456074 446463.3816576154204085469 17.7651945494382594858962
85417.06845598662039265037 446507.6946057124296203256 -1.053804404048869436394398
85377.85131251807615626603 446491.382993851148057729 -1.062049701463517070720854
85375.18171871827507857233 446490.4269860103959217668 2.036589710130387587128098
85414.25861345327575691044 446489.1508695098455063999 -1.062293660687178897816807
85380.67619269365968648344 446461.2313832060317508876 15.71346949869004205879719
85385.15912332914012949914 446483.987399194622412324 15.12536089061289779067465
85353.15401349893363658339 446465.6938672788091935217 15.5302909646159026380019
85374.55659149643906857818 446470.9260291706887073815 16.26871394665231562726149
85372.92454995909065473825 446474.6376092495047487319 16.62417876737463728886723
85371.22823207397595979273 446471.6521991920308209956 13.71850418379155911452472
85361.01375319121871143579 446460.5947471448453143239 15.5694794033374659392166
85374.41047892860660795122 446462.1480768925976008177 17.31191126354685039245851
85372.4744741257163695991 446463.7613890112843364477 13.74588623951867205619237
85376.4187357754708500579 446490.9401008665445260704 -0.8758866381054619676405082
85350.80995918856933712959 446461.1626925848540849984 16.18204563417818064863241
85367.91031147162721026689 446474.2074231753358617425 19.04662423202561072343997
85370.44189773444668389857 446475.3499031971441581845 19.03431794601377191611391
85365.63868111233750823885 446466.415305833681486547 17.5105430929286214336571
85399.84381157413008622825 446500.6568257306353189051 11.68451722798885050735862
85405.24892326595727354288 446502.8044327133684419096 12.14861766064293213673864
85363.79343593085650354624 446472.4335438387934118509 19.02465352929839781381816
85428.7676334777643205598 446506.6712917536497116089 12.07447303262418181191151
85375.39375212838058359921 446466.2679518386139534414 14.53704139027481900825478
85387.03759952905238606036 446495.3448071031016297638 4.53212138999066915800995
85362.99204282679420430213 446430.4671497588860802352 11.41620330852321174575081
85362.02484098295099101961 446469.8830015226267278194 16.290777699386516985669
85366.56362074434582609683 446474.3292390236165374517 18.21403800616532464573538
85376.24312883534003049135 446461.6579833786236122251 19.00552972902448445324808
85374.80429875799745786935 446460.7225774727994576097 18.64936618339261542587337
85374.35739825956989079714 446461.0670946912141516805 18.88068724949870613727398
85370.0187525780638679862 446441.9667535171611234546 17.50151154348007054295522
85370.58899785028188489377 446468.1509385084500536323 17.9790086543691280951407
85357.12637612638354767114 446445.7766068807104602456 16.98659598733033959661043
85366.33517071463575121015 446472.8092418772866949439 18.00882730245704976823617
85370.15508919837884604931 446464.8157059525256045163 15.63857924613789762702254
85374.30577123218972701579 446487.1544268358848057687 12.18121513508343056741978
85362.90069776248128619045 446466.3962016254081390798 15.83224261149702449813503
85360.53973913243680726737 446463.1406420614221133292 19.07192537970378864997656
85372.76199264074966777116 446441.4414982858579605818 14.99703836741199403093106
85372.04508108488516882062 446460.8516442532418295741 17.79085962132294795878806
85365.81196440434723626822 446449.5445486332173459232 18.91385547650793341745157
85358.54400064526998903602 446450.3805738895898684859 15.3688932914759561754181
85342.18603607649856712669 446433.9992662558797746897 9.47099999999999475619461
85358.52422791440039873123 446455.7961500504752621055 17.02654561196258242716794
85368.23846516787307336926 446453.488179187523201108 14.7227876307728209326342
85364.83464791681035421789 446426.8864092178409919143 9.470999999999998308908289
85341.66253006186161655933 446435.3689041875768452883 -1.016453438807537024146654
85343.0795242867898195982 446431.861172438773792237 -0.956805540515637042986441
85342.4273223877971759066 446433.4174244005116634071 0.6032095623406503737129469
85366.7289612407039385289 446466.2837363676517270505 -1.062293660687180896218251
85345.765418055365444161 446425.4325179877923801541 9.796192371486611705222458
85345.99204248431487940252 446424.9425549071747809649 9.7481040829661580460197
85366.19427089468808844686 446441.6983565533300861716 18.9293688528325709796718
85363.40488691737118642777 446441.2695780039066448808 17.82409939088088179914848
85366.07614048972027376294 446440.9183523375540971756 18.38661854639676462852549
85369.84116762173653114587 446443.2091873985482379794 18.92958402755163049846487
85371.24030893811141140759 446443.7880049431114457548 18.92848334036461110940763
85369.68717213463969528675 446438.9281857886235229671 15.66867975225795639460102
85366.33229821074928622693 446440.1451710235560312867 17.06212699493841000730754
85370.8494089175364933908 446447.5757530020782724023 14.66814282400990343546709
85356.84074034127115737647 446429.5779122748645022511 12.70917176036807738626067
85357.18622296866669785231 446454.7745771021000109613 17.68259626756360347599184
85357.56166845871484838426 446429.7856878645252436399 10.6559762480109938564965
85362.94936302391579374671 446430.5651814697193913162 13.1678747837092995354169
85378.85590248755761422217 446438.9478535951930098236 18.92236482162133981432817
85381.47046908100310247391 446451.8508252491592429578 13.77384883685384409091057
85378.44791490839270409197 446447.2457713095936924219 18.21490767060474880167931
85382.3190208518790313974 446454.2584468650165945292 16.23313657142367105734593
85385.30731147622282151133 446450.2508309989934787154 15.44274314176074724969112
85379.17666672902123536915 446454.9227867117151618004 19.01277121204785913732849
85366.16357219840574543923 446441.5061840101843699813 19.05426344061673660235101
85366.27677267877152189612 446441.3542309083859436214 18.91452926580209847884362
85359.83135438985482323915 446440.1965577065129764378 17.0715191542034965266339
85369.64668057524249888957 446452.2708899998106062412 17.19035305062507390516657
85371.23263151806895621121 446467.4033375952858477831 18.88037092298196029105384
85376.6116058446787064895 446438.0238795436453074217 18.9143059634814463265684
85378.64519990798726212233 446439.2772632207488641143 18.28495730744562663971919
85367.18217641480441670865 446465.2743598113884218037 18.20810594332716192411681
85368.26228166675718966872 446466.3628432047553360462 19.06191178021658316765752
85390.78789685598167125136 446461.9950506802415475249 -1.062293660687180008039832
85396.57079376217734534293 446499.2991774639231152833 5.509342003410225174775405
85386.78951870120363309979 446486.5212621039827354252 12.26458654325870867296544
85402.45717832303489558399 446501.6505368734360672534 -1.04735157408156465130844
85394.18244210837292484939 446482.24874114990234375 -1.062293660687180008039832
85391.29600349551765248179 446476.8497767841909080744 -1.062293660687179563950622
85392.73462603171356022358 446479.5406608979101292789 -1.062293660687180008039832
85372.29130919853923842311 446456.7617739241104573011 18.46189888869230344425887
85393.22118528568535111845 446486.2374299594084732234 15.09855171663633655043668
85417.48994454227795358747 446507.9764442642917856574 5.544785061198964193351912
85438.06443298335943836719 446484.315913958300370723 11.81941865580567885274377
85419.46019498289388138801 446508.7937044348218478262 8.290174002866985247806042
85444.10534529694996308535 446458.6698026396334171295 -1.062293660687179341906017
85359.5630816711054649204 446472.5513251410447992384 -1.062293660687179563950622
85410.21724850844475440681 446504.9382876969175413251 12.08415850833901039607099
85410.97780158236855641007 446503.3394355248310603201 12.15785270830977182754395
85410.89602869038935750723 446496.7393631157465279102 18.44765560245841484743323
85408.43836675304919481277 446453.5844532335177063942 15.10869040461031787003776
85412.26494999628630466759 446458.6038586845388635993 15.62402506748012065429521
85419.76840683170303236693 446472.8975011366419494152 17.40165611770984099848647
85420.87052589007362257689 446472.8667233195737935603 18.04458405637651097208618
85415.43997895806387532502 446471.9054151488817296922 16.08727026109112401286438
85365.40782597484940197319 446438.9895935950335115194 -1.062293660687179563950622
85359.7936020229390123859 446434.0573619885835796595 -1.062293660687141372278575
85377.23412701311463024467 446436.1955601315130479634 -1.062293660687178231682992
85375.09775465009442996234 446454.3262742170481942594 17.49681655812240776981525
85377.66183720371918752789 446444.1433415592764504254 -1.062293660687180452129041
85385.49543801290565170348 446433.0082855976070277393 2.759053442383271104176856
85422.43689355048991274089 446443.8356334480340592563 -1.062156972232896290364579
85422.49021018990606535226 446443.7040955821867100894 -0.353692312775222617027282
85393.95222142284910660237 446446.527514080167748034 15.12955440782349114670069
85401.84516361581336241215 446441.3634324657614342868 13.7291906971898889366912
85404.96032863404252566397 446495.8604466342367231846 15.75063172592942528638105
85418.45536865161557216197 446478.489451103494502604 18.04110113322226283116834
85430.70133560698013752699 446480.2242645840742625296 13.76495899669482447791324
85429.1344055710214888677 446506.5363847410771995783 14.21379701675398088411839
85394.30764008915866725147 446498.2847481101634912193 12.14671639387813684152206
85399.1261737355962395668 446500.2669404804473742843 12.15178944646158498699151
85394.68928901581966783851 446490.2661208970821462572 -1.062293660687179563950622
85346.25388031899638008326 446466.4192565653938800097 -1.062293660687173790790894
85369.3975957798829767853 446443.2747751967399381101 18.5489882459864752206613
85354.86727563281601760536 446428.4321991449687629938 -1.062293660687175789192338
85344.3937687241705134511 446429.9932181538897566497 -1.062293660687177121459968
85359.66959501015662681311 446426.3904374325647950172 -1.017917344615442143407336
85363.44787627941695973277 446461.7680486849276348948 -1.062293660687180230084437
85370.22747029026504606009 446467.3901162920519709587 18.89869331585573775100784
85370.75031252417829819024 446467.4035762319690547884 19.05830671032762779759651
85374.25042154642869718373 446450.730832124303560704 15.99173656558733291888075
85375.33630264936073217541 446452.8760831374675035477 18.50627404533322817314911
85379.46763377950992435217 446430.4219229017035104334 7.893478126627845981033715
85376.62873433504137210548 446438.7495647033210843801 17.81885725919912388803823
85375.05682192055974155664 446437.591139692987781018 18.59506311606384443280149
85375.05713536842085886747 446437.2266623551840893924 19.06476494712418912058638
85373.48158773010072764009 446452.5148969670408405364 19.69163908809033358693341
85378.55264090570562984794 446446.5813050469732843339 19.06910722084611720106295
85351.99723117469693534076 446429.2301964265061542392 14.28474551717942198081346
85356.99219524985528551042 446460.5201395525364205241 17.42188096176247569246698
85369.9117506380716804415 446450.7337292334414087236 18.68216979957768941744689
85372.85021533958206418902 446454.4833811091957613826 19.53670061358390341865743
85376.21361219609389081597 446490.709174513176549226 -1.061670369141761494091725
85427.37973697978304699063 446507.109340544615406543 -1.062293660687179785995227
85427.06393964185554068536 446507.2560609053471125662 -0.881189500995560148766117
85439.17108687965082935989 446482.5682236566790379584 10.10085295810255878734552
85417.4352593651128700003 446475.2031700386432930827 13.81319906216774029417138
85448.37798006940283812582 446459.0556003021774813533 12.06958347937136721839124
3  0 1 2
3  3 4 5
3  3 6 4
3  7 8 9
3  10 7 9
3  11 12 13
3  14 15 16
3  10 1 17
3  18 19 20
3  21 22 23
3  0 17 1
3  24 16 25
3  26 16 24
3  27 28 29
3  30 31 24
3  32 15 33
3  34 35 36
3  37 15 14
3  38 37 14
3  39 40 41
3  15 37 33
3  26 24 42
3  43 41 40
3  44 45 46
3  47 48 49
3  50 51 52
3  53 54 14
3  21 55 56
3  23 55 21
3  57 58 59
3  60 61 62
3  63 64 65
3  64 66 65
3  34 36 67
3  68 69 70
3  71 72 73
3  73 74 71
3  53 75 54
3  76 77 78
3  1 79 2
3  9 80 81
3  82 83 84
3  76 85 86
3  87 88 89
3  90 91 92
3  93 94 95
3  96 70 69
3  97 98 99
3  100 101 102
3  103 101 100
3  104 105 106
3  107 108 109
3  110 111 112
3  113 114 115
3  116 117 118
3  119 117 116
3  120 17 0
3  121 122 123
3  17 7 10
3  124 125 45
3  126 127 128
3  129 130 38
3  131 69 68
3  132 133 134
3  135 134 133
3  136 137 138
3  139 140 141
3  142 143 144
3  71 145 72
3  72 146 147
3  148 8 149
3  148 149 84
3  150 151 152
3  153 79 154
3  155 42 156
3  71 74 145
3  81 145 9
3  74 79 1
3  157 72 145
3  68 72 157
3  158 51 159
3  157 131 68
3  157 81 131
3  80 9 131
3  81 80 131
3  160 42 24
3  161 162 163
3  161 163 164
3  165 166 13
3  167 168 169
3  167 170 168
3  171 172 173
3  173 172 174
3  84 175 148
3  131 9 69
3  176 177 178
3  179 180 181
3  7 17 149
3  70 146 72
3  72 147 182
3  69 8 183
3  99 98 63
3  184 185 186
3  120 149 17
3  123 122 187
3  162 161 188
3  164 188 161
3  155 189 190
3  191 192 193
3  194 195 196
3  197 198 199
3  200 198 197
3  11 201 202
3  203 86 204
3  203 205 86
3  46 206 207
3  208 64 63
3  209 210 211
3  38 54 75
3  212 213 214
3  100 102 215
3  216 18 217
3  218 219 220
3  221 222 223
3  224 225 30
3  38 14 54
3  226 227 228
3  229 230 231
3  232 105 233
3  234 235 236
3  40 39 237
3  238 239 198
3  240 96 175
3  41 130 241
3  199 111 242
3  241 243 41
3  39 41 243
3  244 245 246
3  247 237 39
3  248 134 174
3  132 134 248
3  249 234 250
3  251 234 249
3  166 252 253
3  130 43 254
3  43 40 255
3  256 257 57
3  60 258 61
3  259 260 261
3  262 263 264
3  158 159 76
3  158 76 78
3  265 266 267
3  265 267 268
3  269 270 256
3  78 6 271
3  12 272 13
3  20 19 273
3  274 275 200
3  276 277 278
3  279 242 280
3  279 199 242
3  242 12 11
3  281 282 279
3  239 110 112
3  19 283 270
3  284 155 285
3  284 285 75
3  153 2 79
3  27 286 287
3  288 289 290
3  291 292 269
3  151 293 294
3  215 115 295
3  290 296 297
3  298 299 300
3  70 72 68
3  69 9 8
3  129 38 75
3  301 225 302
3  303 63 98
3  82 304 83
3  87 303 88
3  240 304 305
3  240 305 306
3  307 308 309
3  310 311 312
3  89 97 304
3  82 89 304
3  305 304 97
3  89 88 97
3  313 197 279
3  314 315 316
3  314 316 317
3  318 319 320
3  301 302 231
3  321 315 322
3  323 303 135
3  323 135 324
3  184 267 185
3  242 111 12
3  325 204 86
3  103 136 138
3  326 327 27
3  328 329 107
3  330 329 328
3  26 42 331
3  332 142 333
3  332 334 142
3  317 335 336
3  261 260 337
3  221 338 222
3  339 340 341
3  24 259 160
3  186 188 342
3  162 188 186
3  25 343 30
3  331 42 344
3  345 346 347
3  348 346 345
3  155 344 42
3  170 167 349
3  350 351 352
3  353 354 355
3  354 353 356
3  184 258 265
3  19 357 273
3  358 359 360
3  361 247 362
3  260 24 31
3  31 230 260
3  363 364 365
3  366 365 364
3  367 368 369
3  370 362 371
3  110 243 272
3  372 326 373
3  24 260 259
3  374 247 39
3  374 238 198
3  238 110 239
3  22 334 358
3  332 375 358
3  222 156 169
3  376 377 378
3  379 380 381
3  351 379 381
3  66 382 383
3  384 385 386
3  200 275 198
3  267 184 268
3  387 388 364
3  130 129 241
3  25 30 24
3  389 335 223
3  347 390 391
3  390 167 391
3  169 389 222
3  225 392 302
3  31 301 230
3  30 225 31
3  313 282 203
3  313 279 282
3  393 394 395
3  12 111 272
3  231 302 392
3  396 274 397
3  252 241 398
3  252 398 399
3  243 110 39
3  41 43 130
3  93 95 400
3  401 402 403
3  269 392 224
3  30 343 224
3  59 404 405
3  406 23 360
3  406 360 359
3  244 404 264
3  85 325 86
3  407 205 5
3  5 205 92
3  408 409 186
3  156 42 160
3  221 11 13
3  372 327 326
3  139 283 410
3  336 335 411
3  411 412 336
3  413 414 412
3  130 254 415
3  254 43 415
3  158 401 403
3  342 188 416
3  169 156 417
3  418 402 401
3  367 419 420
3  421 422 404
3  423 424 84
3  425 329 426
3  427 333 144
3  282 311 123
3  428 282 123
3  134 173 174
3  143 429 430
3  368 431 369
3  432 99 63
3  89 433 87
3  434 435 248
3  436 435 434
3  144 143 430
3  437 438 439
3  440 441 442
3  443 444 383
3  6 445 4
3  76 159 85
3  85 159 441
3  20 273 370
3  370 273 228
3  446 440 396
3  447 310 427
3  448 126 217
3  449 450 451
3  62 450 449
3  385 363 386
3  130 415 37
3  38 130 37
3  355 354 452
3  201 316 202
3  262 453 454
3  363 455 456
3  457 436 434
3  255 25 32
3  427 375 332
3  357 270 269
3  375 359 358
3  458 365 366
3  459 20 371
3  459 396 20
3  350 352 460
3  456 455 461
3  409 462 162
3  463 454 464
3  465 450 62
3  399 466 253
3  62 61 465
3  231 392 292
3  331 344 155
3  399 467 466
3  190 467 399
3  468 93 469
3  470 376 378
3  470 378 471
3  265 472 266
3  230 473 260
3  377 462 408
3  21 334 22
3  474 473 185
3  229 458 473
3  458 185 473
3  417 391 167
3  347 391 417
3  373 475 372
3  31 225 301
3  337 476 261
3  477 478 476
3  380 479 381
3  155 480 189
3  477 476 337
3  259 261 478
3  246 245 458
3  451 348 345
3  481 482 478
3  259 478 482
3  167 169 417
3  347 417 156
3  156 160 347
3  480 156 483
3  155 156 480
3  345 481 451
3  345 347 481
3  348 484 346
3  229 473 230
3  451 349 167
3  265 268 184
3  472 265 258
3  474 260 473
3  408 366 377
3  377 364 388
3  366 364 377
3  264 263 485
3  456 386 363
3  164 486 416
3  487 486 164
3  229 246 458
3  386 456 461
3  488 489 490
3  491 249 492
3  493 494 220
3  495 494 493
3  247 496 237
3  110 238 39
3  274 396 459
3  40 227 255
3  126 497 127
3  112 198 239
3  199 112 111
3  498 499 500
3  182 124 67
3  178 501 444
3  502 503 504
3  307 505 308
3  442 50 52
3  506 92 205
3  158 78 271
3  100 136 103
3  507 508 509
3  438 510 511
3  512 513 514
3  407 5 4
3  403 402 515
3  516 517 518
3  519 516 518
3  90 3 91
3  90 92 437
3  325 313 204
3  203 204 313
3  448 396 440
3  158 271 401
3  271 418 401
3  520 77 86
3  396 397 446
3  521 400 457
3  457 434 521
3  228 273 357
3  500 522 498
3  215 113 115
3  215 102 113
3  218 220 494
3  141 523 524
3  525 340 526
3  368 367 527
3  64 527 66
3  256 291 269
3  143 142 214
3  446 397 325
3  6 528 271
3  418 271 402
3  402 271 528
3  402 528 6
3  209 327 210
3  327 372 210
3  50 441 159
3  6 78 77
3  529 92 530
3  85 441 446
3  126 128 217
3  86 77 76
3  3 5 91
3  3 515 402
3  3 402 6
3  531 532 105
3  101 533 102
3  159 51 50
3  512 437 513
3  297 296 534
3  437 529 510
3  535 510 529
3  295 536 537
3  46 181 206
3  116 538 119
3  539 118 540
3  102 533 113
3  541 307 542
3  3 115 114
3  499 179 45
3  154 543 544
3  79 543 154
3  545 546 547
3  289 288 548
3  233 549 548
3  548 288 233
3  136 550 551
3  552 100 537
3  295 537 100
3  552 553 100
3  50 442 441
3  136 551 137
3  554 555 556
3  215 295 100
3  557 517 558
3  517 557 518
3  176 559 560
3  103 533 101
3  561 395 562
3  547 152 563
3  162 462 163
3  233 532 549
3  298 300 536
3  427 144 447
3  564 490 104
3  565 104 490
3  235 489 488
3  554 489 235
3  566 180 567
3  174 568 248
3  569 248 568
3  368 208 431
3  323 431 208
3  323 208 63
3  93 400 521
3  570 571 572
3  573 574 575
3  517 516 541
3  178 444 443
3  309 308 576
3  427 312 375
3  94 577 578
3  579 319 580
3  579 328 319
3  424 581 582
3  420 583 367
3  9 74 10
3  584 469 93
3  584 93 521
3  585 586 410
3  132 587 436
3  146 588 589
3  124 590 125
3  591 592 593
3  44 34 67
3  182 36 73
3  499 45 501
3  567 180 179
3  36 543 73
3  34 544 35
3  544 543 36
3  9 145 74
3  461 594 485
3  420 419 457
3  595 525 526
3  436 587 435
3  97 88 98
3  400 596 420
3  303 323 63
3  303 98 88
3  324 135 133
3  422 292 597
3  324 431 323
3  369 431 324
3  182 147 124
3  598 447 144
3  469 172 599
3  592 82 600
3  141 140 382
3  256 57 291
3  601 602 603
3  191 193 49
3  193 604 49
3  605 430 606
3  596 607 583
3  596 583 420
3  608 582 600
3  609 602 610
3  610 134 609
3  562 611 561
3  454 612 613
3  614 433 89
3  213 172 171
3  425 579 293
3  387 363 385
3  615 376 470
3  393 616 430
3  74 73 79
3  617 94 578
3  176 178 443
3  618 318 553
3  213 212 599
3  213 599 172
3  427 310 312
3  619 562 614
3  87 433 620
3  562 395 603
3  288 106 233
3  621 531 622
3  623 531 621
3  395 394 601
3  395 601 603
3  555 624 502
3  561 625 395
3  492 249 626
3  609 627 603
3  623 532 531
3  628 549 606
3  430 394 393
3  212 214 142
3  569 172 629
3  455 244 461
3  534 539 297
3  192 539 534
3  619 591 630
3  631 49 48
3  511 219 632
3  218 632 219
3  549 532 633
3  236 571 634
3  236 634 234
3  614 562 627
3  570 634 571
3  5 92 91
3  492 626 116
3  635 540 118
3  297 540 290
3  290 634 570
3  150 636 151
3  191 637 192
3  638 106 288
3  290 638 288
3  290 570 638
3  620 609 134
3  100 553 136
3  639 136 553
3  608 600 82
3  154 44 207
3  544 44 154
3  207 44 46
3  67 124 45
3  79 73 543
3  640 641 642
3  639 318 320
3  643 383 444
3  511 632 299
3  644 645 580
3  318 639 553
3  646 647 648
3  554 647 646
3  151 636 293
3  235 488 571
3  500 177 522
3  556 649 650
3  289 296 290
3  618 553 552
3  621 622 507
3  300 299 651
3  652 648 195
3  106 232 233
3  298 536 295
3  234 634 290
3  571 236 235
3  556 493 653
3  548 549 193
3  547 563 654
3  194 300 652
3  194 536 300
3  118 539 655
3  140 443 383
3  618 656 318
3  657 656 618
3  651 652 300
3  555 652 624
3  233 105 532
3  503 632 218
3  658 513 439
3  659 660 535
3  218 494 504
3  495 504 494
3  89 619 614
3  661 535 662
3  661 662 447
3  659 535 661
3  659 661 663
3  651 624 652
3  646 664 555
3  665 555 664
3  666 547 196
3  196 547 194
3  638 570 667
3  598 661 447
3  393 668 616
3  469 599 468
3  213 171 214
3  622 508 507
3  658 669 514
3  670 669 658
3  616 606 430
3  671 672 48
3  142 334 212
3  87 620 134
3  410 586 673
3  172 568 174
3  569 568 172
3  569 434 248
3  469 584 172
3  612 454 674
3  355 452 675
3  599 675 452
3  599 355 675
3  585 216 586
3  676 464 453
3  198 275 374
3  615 377 376
3  460 677 350
3  176 522 177
3  224 392 225
3  430 605 621
3  133 132 324
3  598 430 621
3  66 527 382
3  442 127 497
3  52 127 442
3  216 585 18
3  678 679 257
3  143 214 429
3  173 134 610
3  584 521 629
3  584 629 172
3  367 583 340
3  354 93 468
3  324 419 369
3  508 622 680
3  303 87 134
3  303 134 135
3  368 64 208
3  569 629 434
3  434 629 521
3  468 452 354
3  212 334 355
3  212 355 599
3  681 353 355
3  64 368 527
3  674 454 463
3  400 420 457
3  577 479 578
3  387 364 363
3  264 485 594
3  594 244 264
3  244 594 461
3  231 421 229
3  485 263 682
3  451 683 266
3  343 25 255
3  343 255 226
3  684 682 263
3  32 33 685
3  559 216 217
3  245 365 458
3  164 470 471
3  95 380 379
3  292 422 421
3  125 686 643
3  453 464 454
3  487 687 688
3  27 29 326
3  479 674 463
3  301 231 230
3  226 255 227
3  57 257 677
3  367 340 527
3  468 599 452
3  139 141 678
3  383 382 140
3  95 595 400
3  109 108 206
3  45 179 46
3  487 684 263
3  380 578 479
3  186 342 184
3  29 342 326
3  258 342 29
3  479 463 676
3  479 676 59
3  689 373 416
3  40 237 361
3  676 463 464
3  59 58 479
3  142 144 333
3  380 95 617
3  460 57 677
3  264 404 59
3  475 689 55
3  257 283 139
3  18 585 19
3  690 281 691
3  405 404 597
3  257 256 283
3  332 333 427
3  692 317 693
3  692 694 317
3  691 322 375
3  59 405 57
3  237 496 361
3  197 199 279
3  202 315 321
3  639 550 136
3  361 496 247
3  357 269 224
3  370 227 361
3  277 158 403
3  690 282 281
3  270 357 19
3  270 283 256
3  19 585 283
3  216 673 586
3  695 696 567
3  541 542 697
3  90 512 3
3  139 673 140
3  140 559 443
3  698 509 508
3  507 509 698
3  621 507 598
3  663 598 507
3  598 144 430
3  217 560 559
3  673 139 410
3  667 564 104
3  605 623 621
3  39 238 374
3  338 13 166
3  20 396 448
3  63 65 432
3  567 696 566
3  505 576 308
3  200 397 274
3  699 560 557
3  700 277 276
3  374 362 247
3  253 466 189
3  32 685 255
3  332 358 334
3  322 314 694
3  316 315 202
3  343 226 224
3  228 224 226
3  357 224 228
3  322 315 314
3  370 228 227
3  40 361 227
3  110 272 111
3  13 338 221
3  189 466 467
3  190 189 467
3  338 166 483
3  222 338 483
3  200 197 313
3  313 325 397
3  313 397 200
3  370 361 362
3  371 701 459
3  362 702 701
3  85 446 325
3  459 275 274
3  702 459 701
3  275 362 374
3  703 530 92
3  428 704 282
3  282 704 203
3  705 56 55
3  705 55 689
3  422 597 404
3  524 679 678
3  292 405 597
3  504 495 493
3  650 504 493
3  694 359 322
3  375 322 359
3  689 688 705
3  269 292 392
3  372 706 210
3  451 450 349
3  119 635 117
3  118 117 635
3  691 281 321
3  349 707 170
3  688 687 613
3  56 705 353
3  708 615 470
3  708 470 164
3  170 412 411
3  471 384 684
3  246 229 421
3  408 186 185
3  262 687 487
3  372 55 23
3  23 406 372
3  373 689 475
3  317 336 693
3  27 327 413
3  487 263 262
3  709 710 674
3  353 710 709
3  612 674 710
3  353 705 710
3  612 710 613
3  454 613 262
3  710 705 613
3  164 684 487
3  162 186 409
3  408 185 366
3  471 684 164
3  676 453 264
3  262 264 453
3  95 94 617
3  596 400 595
3  291 57 405
3  475 55 372
3  244 246 421
3  291 405 292
3  378 385 471
3  404 244 421
3  461 485 384
3  378 377 388
3  373 342 416
3  292 421 231
3  674 577 709
3  351 381 479
3  257 139 678
3  459 702 275
3  112 199 198
3  57 711 58
3  460 711 57
3  677 257 679
3  36 35 544
3  124 147 712
3  193 47 604
3  556 713 649
3  154 207 640
3  426 579 425
3  579 426 328
3  125 590 686
3  207 206 108
3  44 544 34
3  626 250 538
3  206 181 566
3  109 566 696
3  294 563 151
3  547 546 194
3  328 426 330
3  293 579 644
3  107 109 714
3  714 109 696
3  567 179 499
3  120 0 150
3  152 120 150
3  580 645 579
3  640 153 154
3  715 107 329
3  330 426 329
3  107 715 108
3  589 712 146
3  328 107 714
3  328 716 320
3  304 175 83
3  240 175 304
3  425 636 642
3  305 588 306
3  183 8 148
3  150 153 636
3  500 178 177
3  67 45 44
3  20 448 18
3  444 501 717
3  296 289 534
3  47 49 604
3  96 588 146
3  69 148 96
3  67 36 182
3  69 183 148
3  240 306 96
3  96 148 175
3  157 145 81
3  572 564 667
3  672 718 561
3  718 672 719
3  672 628 719
3  192 637 539
3  655 575 574
3  425 293 636
3  566 181 180
3  158 277 700
3  113 533 403
3  720 659 721
3  720 660 659
3  501 500 499
3  18 448 217
3  173 610 602
3  173 602 171
3  722 533 103
3  663 661 598
3  691 375 312
3  203 704 506
3  443 559 176
3  82 592 89
3  140 673 559
3  551 550 505
3  560 128 557
3  187 122 506
3  704 187 506
3  206 566 109
3  581 49 631
3  593 581 631
3  505 307 541
3  700 519 518
3  700 518 51
3  137 516 138
3  519 138 516
3  52 557 128
3  551 505 541
3  551 541 137
3  137 541 516
3  643 717 125
3  557 558 699
3  542 307 699
3  699 307 498
3  499 695 567
3  640 207 641
3  181 46 179
3  437 510 438
3  501 178 500
3  699 176 560
3  559 673 216
3  410 283 585
3  541 697 517
3  3 114 515
3  699 558 542
3  697 542 558
3  697 558 517
3  502 504 650
3  502 650 649
3  293 580 319
3  498 695 499
3  309 576 695
3  700 51 158
3  695 576 696
3  328 320 319
3  545 547 657
3  695 498 309
3  669 723 724
3  554 646 555
3  724 725 669
3  45 717 501
3  45 125 717
3  444 717 643
3  307 309 498
3  725 298 295
3  725 295 115
3  550 696 576
3  576 505 550
3  657 547 654
3  699 522 176
3  560 217 128
3  513 658 514
3  572 667 570
3  638 667 106
3  498 522 699
3  278 722 276
3  658 439 670
3  276 722 103
3  138 276 103
3  519 276 138
3  700 276 519
3  277 403 278
3  631 630 591
3  403 114 113
3  278 533 722
3  403 533 278
3  114 403 515
3  440 442 497
3  529 530 535
3  279 280 281
3  446 441 440
3  428 187 704
3  428 123 187
3  407 4 445
3  721 726 720
3  440 497 126
3  440 126 448
3  321 322 691
3  518 557 52
3  518 52 51
3  6 77 205
3  520 205 77
3  520 86 205
3  128 127 52
3  205 203 506
3  211 372 406
3  723 669 670
3  686 432 65
3  690 691 312
3  508 680 698
3  531 105 104
3  106 105 232
3  633 606 549
3  430 429 394
3  663 507 698
3  616 668 628
3  605 606 633
3  564 572 571
3  626 538 116
3  89 592 619
3  591 619 592
3  724 299 298
3  48 630 631
3  437 92 529
3  703 92 121
3  122 121 92
3  407 445 205
3  506 122 92
3  205 445 6
3  121 310 703
3  670 439 438
3  627 562 603
3  488 490 571
3  662 535 530
3  663 721 659
3  511 724 723
3  565 720 726
3  727 219 510
3  535 727 510
3  703 310 530
3  219 511 510
3  3 512 115
3  633 623 605
3  115 512 514
3  651 632 624
3  514 725 115
3  90 437 512
3  513 437 439
3  723 670 438
3  723 438 511
3  669 725 514
3  299 724 511
3  545 537 536
3  650 493 556
3  666 196 647
3  250 635 538
3  728 654 563
3  644 579 645
3  608 82 84
3  652 555 648
3  1 10 74
3  724 298 725
3  118 655 574
3  151 563 152
3  652 195 194
3  666 152 547
3  491 152 666
3  293 319 294
3  648 647 195
3  234 251 235
3  235 251 554
3  196 195 647
3  492 152 491
3  191 575 637
3  729 575 191
3  251 647 554
3  696 716 714
3  490 730 565
3  648 555 665
3  646 648 664
3  648 665 664
3  642 641 425
3  715 329 641
3  425 641 329
3  647 251 491
3  647 491 666
3  251 249 491
3  116 152 492
3  728 563 294
3  116 120 152
3  644 580 293
3  639 716 550
3  320 716 639
3  319 728 294
3  319 318 656
3  550 716 696
3  657 654 656
3  545 552 537
3  108 715 641
3  618 552 657
3  545 657 552
3  319 656 654
3  319 654 728
3  714 716 328
3  536 546 545
3  194 546 536
3  108 641 207
3  150 0 153
3  0 2 153
3  642 153 640
3  642 636 153
3  182 73 72
3  590 124 712
3  588 432 589
3  149 8 7
3  146 712 147
3  96 146 70
3  424 582 608
3  97 588 305
3  83 175 84
3  96 306 588
3  608 84 424
3  432 588 99
3  99 588 97
3  589 590 712
3  589 432 590
3  686 590 432
3  593 631 591
3  149 120 423
3  149 423 84
3  250 234 290
3  539 540 297
3  249 250 626
3  729 573 575
3  592 600 582
3  581 593 582
3  592 582 593
3  193 534 548
3  625 561 718
3  490 489 730
3  503 624 632
3  554 653 489
3  614 620 433
3  289 548 534
3  651 299 632
3  581 729 49
3  649 555 502
3  713 555 649
3  555 713 556
3  106 667 104
3  663 698 731
3  48 47 671
3  549 47 193
3  534 193 192
3  191 49 729
3  581 573 729
3  635 250 540
3  571 490 564
3  655 539 637
3  581 574 573
3  423 574 424
3  581 424 574
3  120 118 574
3  423 120 574
3  538 635 119
3  116 118 120
3  250 290 540
3  637 575 655
3  554 556 653
3  502 624 503
3  727 220 219
3  220 727 660
3  218 504 503
3  653 720 489
3  493 720 653
3  220 720 493
3  489 720 730
3  565 730 720
3  104 565 726
3  535 660 727
3  220 660 720
3  726 663 731
3  726 721 663
3  662 530 447
3  310 447 530
3  630 48 611
3  611 48 672
3  672 561 611
3  630 562 619
3  611 562 630
3  628 606 616
3  628 668 719
3  633 532 623
3  671 628 672
3  671 47 628
3  549 628 47
3  698 531 731
3  393 395 625
3  726 531 104
3  726 731 531
3  680 622 531
3  690 311 282
3  680 531 698
3  465 287 707
3  614 609 620
3  614 627 609
3  393 719 668
3  393 625 719
3  718 719 625
3  312 311 690
3  310 121 311
3  123 311 121
3  382 527 339
3  527 340 339
3  686 66 643
3  643 66 383
3  367 369 419
3  94 93 356
3  65 66 686
3  93 354 356
3  607 732 583
3  709 356 353
3  334 681 355
3  595 732 607
3  379 595 95
3  141 341 523
3  479 577 674
3  596 595 607
3  709 577 356
3  356 577 94
3  617 578 380
3  379 525 595
3  340 525 523
3  382 341 141
3  339 341 382
3  340 523 341
3  340 583 526
3  526 583 732
3  526 732 595
3  379 523 525
3  371 362 701
3  524 350 677
3  524 523 350
3  460 352 711
3  370 371 20
3  351 350 379
3  379 350 523
3  479 58 711
3  479 711 351
3  352 351 711
3  524 678 141
3  677 679 524
3  264 59 676
3  262 613 687
3  384 471 385
3  613 705 688
3  461 384 386
3  487 688 486
3  689 486 688
3  416 486 689
3  245 455 733
3  734 455 363
3  458 366 185
3  682 684 384
3  682 384 485
3  385 378 387
3  378 388 387
3  363 245 733
3  363 365 245
3  734 363 733
3  734 733 455
3  164 163 708
3  184 342 258
3  478 266 683
3  373 326 342
3  683 481 735
3  683 451 481
3  61 29 28
3  409 408 462
3  287 465 28
3  168 411 389
3  287 28 27
3  449 266 472
3  259 482 160
3  481 347 160
3  481 160 482
3  451 266 449
3  478 735 481
3  683 735 478
3  416 188 164
3  390 484 348
3  62 449 60
3  348 451 167
3  465 349 450
3  483 156 222
3  16 32 25
3  16 26 53
3  272 243 165
3  272 165 13
3  317 316 201
3  348 167 390
3  346 484 347
3  168 389 169
3  474 337 260
3  477 337 474
3  411 168 170
3  347 484 390
3  29 61 258
3  472 258 60
3  472 60 449
3  465 61 28
3  287 286 707
3  223 222 389
3  413 327 209
3  286 27 413
3  413 412 286
3  413 209 414
3  336 412 414
3  22 360 23
3  389 411 335
3  692 693 414
3  414 693 336
3  694 314 317
3  358 360 22
3  706 211 210
3  694 211 406
3  694 406 359
3  211 706 372
3  692 736 694
3  211 694 736
3  211 736 209
3  414 209 736
3  414 736 692
3  163 462 708
3  465 707 349
3  170 707 412
3  286 412 707
3  708 462 615
3  377 615 462
3  56 681 21
3  353 681 56
3  21 681 334
3  275 702 362
3  455 245 244
3  241 252 165
3  16 53 14
3  37 685 33
3  331 75 53
3  26 331 53
3  16 15 32
3  241 129 737
3  255 685 43
3  415 43 685
3  37 415 685
3  165 243 241
3  75 737 129
3  165 252 166
3  399 398 285
3  75 331 284
3  737 75 398
3  398 75 285
3  190 285 155
3  399 285 190
3  737 398 241
3  155 284 331
3  480 253 189
3  483 253 480
3  483 166 253
3  399 253 252
3  248 435 587
3  248 587 132
3  132 436 457
3  132 457 419
3  132 419 324
3  214 171 429
3  603 602 609
3  394 602 601
3  394 429 602
3  171 602 429
3  267 477 185
3  185 477 474
3  266 478 477
3  266 477 267
3  478 261 476
3  335 317 201
3  335 201 223
3  221 201 11
3  223 201 221
3  202 321 11
3  242 11 280
3  281 280 321
3  321 280 11

