v 94431.684 463944.332 -0.115
v 94432.398 463948.467 -0.115
v 94434.986 463947.921 -0.115
v 94438.438 463947.192 -0.115
v 94439.520 463946.964 -0.115
v 94438.630 463943.090 -0.115
v 94437.399 463943.310 -0.115
v 94434.292 463943.866 -0.115
v 94432.398 463948.467 4.159
v 94431.684 463944.332 4.028
v 94434.986 463947.921 7.530
v 94434.292 463943.866 7.409
v 94437.399 463943.310 3.178
v 94438.630 463943.090 3.096
v 94439.520 463946.964 2.846
v 94438.438 463947.192 2.917
v 94437.399 463943.310 3.552
v 94438.438 463947.192 3.219
o NL.IMBAG.Pand.0546100000034624-0
f 8 1 3
f 3 7 8
f 3 1 2
f 4 6 7
f 5 6 4
f 4 7 3
f 1 10 2
f 9 2 10
f 3 2 9
f 9 11 3
f 1 8 10
f 12 10 8
f 7 6 14
f 14 13 7
f 14 6 15
f 5 15 6
f 5 4 15
f 16 15 4
f 8 7 13
f 17 12 8
f 17 8 13
f 17 13 18
f 16 18 13
f 4 3 16
f 3 18 16
f 18 3 11
f 9 10 12
f 12 11 9
f 13 14 16
f 15 16 14
f 12 17 11
f 18 11 17
